<svg width="396" height="126" viewBox="0 0 396 126" fill="none" xmlns="http://www.w3.org/2000/svg">
<path opacity="0.2" d="M30.7783 17.7063C30.7783 7.04545 24.159 0.967144 15.5189 0.967144C6.83104 0.967144 0.259473 7.04545 0.259473 17.7063C0.259473 28.3195 6.83104 34.4455 15.5189 34.4455C24.159 34.4455 30.7783 28.3672 30.7783 17.7063ZM23.793 17.7063C23.793 24.612 20.5152 28.3513 15.5189 28.3513C10.5067 28.3513 7.24474 24.612 7.24474 17.7063C7.24474 10.8006 10.5067 7.06136 15.5189 7.06136C20.5152 7.06136 23.793 10.8006 23.793 17.7063ZM35.882 34H48.0704C55.8035 34 60.6089 29.7516 60.6089 23.5937C60.6089 17.4199 55.8035 13.4579 48.0704 13.4579H42.7718V7.09318H57.5061V1.41267H35.882V34ZM42.7718 28.4627V18.8997H48.0704C51.7619 18.8997 53.7827 20.9364 53.7827 23.53C53.7827 26.2032 51.7619 28.4627 48.0704 28.4627H42.7718ZM30.7783 63.7063C30.7783 53.0454 24.159 46.9671 15.5189 46.9671C6.83104 46.9671 0.259473 53.0454 0.259473 63.7063C0.259473 74.3195 6.83104 80.4455 15.5189 80.4455C24.159 80.4455 30.7783 74.3672 30.7783 63.7063ZM23.793 63.7063C23.793 70.612 20.5152 74.3513 15.5189 74.3513C10.5067 74.3513 7.24474 70.612 7.24474 63.7063C7.24474 56.8006 10.5067 53.0614 15.5189 53.0614C20.5152 53.0614 23.793 56.8006 23.793 63.7063ZM35.882 80H48.0704C55.8035 80 60.6089 75.7516 60.6089 69.5937C60.6089 63.4199 55.8035 59.4579 48.0704 59.4579H42.7718V53.0932H57.5061V47.4127H35.882V80ZM42.7718 74.4627V64.8997H48.0704C51.7619 64.8997 53.7827 66.9364 53.7827 69.53C53.7827 72.2032 51.7619 74.4627 48.0704 74.4627H42.7718ZM65.0682 80H71.958V69.4346H77.7498C85.2443 69.4346 89.6041 64.9634 89.6041 58.4554C89.6041 51.9794 85.3238 47.4127 77.9249 47.4127H65.0682V80ZM71.958 63.9132V53.0454H76.6042C80.5821 53.0454 82.5075 55.2094 82.5075 58.4554C82.5075 61.6855 80.5821 63.9132 76.636 63.9132H71.958ZM95.933 80L98.3516 72.5692H110.11L112.529 80H119.912L108.678 47.4127H99.7996L88.55 80H95.933ZM100.102 67.191L104.112 54.8594H104.366L108.376 67.191H100.102ZM135.689 80.4455C143.008 80.4455 148.243 76.4198 148.227 70.8507C148.243 66.7932 145.665 63.8973 140.876 63.2926V63.038C144.52 62.3857 147.034 59.808 147.018 56.1482C147.034 51.0087 142.531 46.9671 135.784 46.9671C129.101 46.9671 124.073 50.8814 123.978 56.5142H130.581C130.66 54.032 132.936 52.4249 135.752 52.4249C138.537 52.4249 140.398 54.1115 140.383 56.5619C140.398 59.1237 138.219 60.8581 135.084 60.8581H132.045V65.9181H135.084C138.775 65.9181 141.083 67.7638 141.067 70.3893C141.083 72.9829 138.855 74.765 135.705 74.765C132.665 74.765 130.39 73.1738 130.263 70.7871H123.325C123.437 76.4835 128.528 80.4455 135.689 80.4455ZM183.317 63.7063C183.317 53.0454 176.697 46.9671 168.057 46.9671C159.369 46.9671 152.798 53.0454 152.798 63.7063C152.798 74.3195 159.369 80.4455 168.057 80.4455C176.697 80.4455 183.317 74.3672 183.317 63.7063ZM176.331 63.7063C176.331 70.612 173.053 74.3513 168.057 74.3513C163.045 74.3513 159.783 70.612 159.783 63.7063C159.783 56.8006 163.045 53.0614 168.057 53.0614C173.053 53.0614 176.331 56.8006 176.331 63.7063ZM188.42 80H202.343C209.662 80 213.561 76.1812 213.561 70.9939C213.561 66.1727 210.108 63.2608 206.401 63.0858V62.7675C209.79 62.0038 212.288 59.6011 212.288 55.7664C212.288 50.8814 208.66 47.4127 201.468 47.4127H188.42V80ZM195.31 74.3672V65.7112H201.086C204.396 65.7112 206.448 67.6206 206.448 70.3097C206.448 72.7601 204.778 74.3672 200.927 74.3672H195.31ZM195.31 61.0491V52.9818H200.545C203.6 52.9818 205.334 54.5571 205.334 56.912C205.334 59.4897 203.234 61.0491 200.418 61.0491H195.31ZM223.661 80L226.079 72.5692H237.838L240.257 80H247.64L236.406 47.4127H227.527L216.278 80H223.661ZM227.83 67.191L231.84 54.8594H232.094L236.104 67.191H227.83ZM246.295 53.0932H256.272V80H263.082V53.0932H273.059V47.4127H246.295V53.0932ZM277.467 80H299.488V74.3195H284.356V66.5386H298.295V60.8581H284.356V53.0932H299.425V47.4127H277.467V80ZM303.136 80H304.918C312.763 80 315.213 75.2106 315.722 64.2792L316.232 52.9341H325.254V80H331.952V47.4127H309.835L309.294 61.9083C308.976 70.9939 307.639 74.0808 304.059 74.3831L303.136 74.4627V80ZM344.634 59.4579V47.4127H337.76V80H349.933C357.666 80 362.487 75.7516 362.471 69.5937C362.487 63.4199 357.666 59.4579 349.933 59.4579H344.634ZM344.634 64.8997H349.933C353.64 64.8997 355.661 66.9364 355.645 69.53C355.661 72.2032 353.64 74.4627 349.933 74.4627H344.634V64.8997ZM367.957 80H374.847V66.5386H388.833V80H395.707V47.4127H388.833V60.8581H374.847V47.4127H367.957V80ZM30.7783 108.706C30.7783 98.0454 24.159 91.9671 15.5189 91.9671C6.83104 91.9671 0.259473 98.0454 0.259473 108.706C0.259473 119.319 6.83104 125.446 15.5189 125.446C24.159 125.446 30.7783 119.367 30.7783 108.706ZM23.793 108.706C23.793 115.612 20.5152 119.351 15.5189 119.351C10.5067 119.351 7.24474 115.612 7.24474 108.706C7.24474 101.801 10.5067 98.0614 15.5189 98.0614C20.5152 98.0614 23.793 101.801 23.793 108.706ZM35.882 92.4127V125H42.5649V103.71H42.8354L51.2687 124.841H55.8194L64.2527 103.79H64.5232V125H71.2061V92.4127H62.7092L53.735 114.307H53.3531L44.3789 92.4127H35.882ZM117.211 125H125.819L112.692 107.958L126.933 92.4127H118.054L106.121 105.429H104.513V92.4127H97.6236V125H104.513V111.109H106.614L117.211 125ZM158.681 108.706C158.681 98.0454 152.062 91.9671 143.422 91.9671C134.734 91.9671 128.162 98.0454 128.162 108.706C128.162 119.319 134.734 125.446 143.422 125.446C152.062 125.446 158.681 119.367 158.681 108.706ZM151.696 108.706C151.696 115.612 148.418 119.351 143.422 119.351C138.41 119.351 135.148 115.612 135.148 108.706C135.148 101.801 138.41 98.0614 143.422 98.0614C148.418 98.0614 151.696 101.801 151.696 108.706ZM163.785 92.4127V125H170.468V103.71H170.738L179.172 124.841H183.722L192.156 103.79H192.426V125H199.109V92.4127H190.612L181.638 114.307H181.256L172.282 92.4127H163.785ZM232.488 92.4127H205.692V125H212.503V98.0136H225.678V125H232.488V92.4127ZM237.281 125H239.063C246.908 125 249.358 120.211 249.868 109.279L250.377 97.9341H259.399V125H266.098V92.4127H243.98L243.439 106.908C243.121 115.994 241.784 119.081 238.204 119.383L237.281 119.463V125ZM271.778 125H293.8V119.319H278.668V111.539H292.607V105.858H278.668V98.0932H293.736V92.4127H271.778V125ZM318.801 125H327.41L314.282 107.958L328.523 92.4127H319.645L307.711 105.429H306.104V92.4127H299.214V125H306.104V111.109H308.204L318.801 125ZM359.078 103.821C358.171 96.2951 352.475 91.9671 344.932 91.9671C336.324 91.9671 329.753 98.0454 329.753 108.706C329.753 119.335 336.213 125.446 344.932 125.446C353.286 125.446 358.33 119.892 359.078 113.894L352.109 113.862C351.456 117.346 348.719 119.351 345.044 119.351C340.095 119.351 336.738 115.676 336.738 108.706C336.738 101.928 340.048 98.0614 345.092 98.0614C348.863 98.0614 351.584 100.241 352.109 103.821H359.078ZM364.019 125H386.041V119.319H370.908V111.539H384.847V105.858H370.908V98.0932H385.977V92.4127H364.019V125Z" fill="url(#paint0_linear)"/>
<defs>
<linearGradient id="paint0_linear" x1="-17.1429" y1="30.8574" x2="438.657" y2="30.8574" gradientUnits="userSpaceOnUse">
<stop stop-color="#B9D4E4"/>
<stop offset="1" stop-color="#B9D4E4"/>
</linearGradient>
</defs>
</svg>
