<svg width="31" height="19" viewBox="0 0 31 19" fill="none" xmlns="http://www.w3.org/2000/svg">
<path d="M4.58807 18L5.88352 14.0199H12.1818L13.4773 18H17.4318L11.4148 0.545454H6.65909L0.633523 18H4.58807ZM6.82102 11.1392L8.96875 4.53409H9.10511L11.2528 11.1392H6.82102ZM23.1974 18.2472C25.1321 18.2472 26.3849 17.4034 27.0241 16.1847H27.1264V18H30.5696V9.17045C30.5696 6.05114 27.9276 4.73864 25.0128 4.73864C21.8764 4.73864 19.8139 6.23864 19.3111 8.625L22.669 8.89773C22.9162 8.02841 23.6918 7.3892 24.9957 7.3892C26.2315 7.3892 26.9389 8.01136 26.9389 9.08523V9.13636C26.9389 9.98011 26.044 10.0909 23.7685 10.3125C21.1776 10.5511 18.8509 11.4205 18.8509 14.3438C18.8509 16.9347 20.7003 18.2472 23.1974 18.2472ZM24.2372 15.7415C23.1207 15.7415 22.3196 15.2216 22.3196 14.2244C22.3196 13.2017 23.1634 12.6989 24.4418 12.5199C25.2344 12.4091 26.5298 12.2216 26.9645 11.9318V13.321C26.9645 14.6932 25.831 15.7415 24.2372 15.7415Z" fill="black"/>
</svg>
