<svg width="48" height="48" viewBox="0 0 48 48" fill="none" xmlns="http://www.w3.org/2000/svg">
<circle cx="24" cy="24" r="24" fill="url(#paint0_linear)"/>
<path d="M12.5881 33L13.8835 29.0199H20.1818L21.4773 33H25.4318L19.4148 15.5455H14.6591L8.63352 33H12.5881ZM14.821 26.1392L16.9688 19.5341H17.1051L19.2528 26.1392H14.821ZM31.1974 33.2472C33.1321 33.2472 34.3849 32.4034 35.0241 31.1847H35.1264V33H38.5696V24.1705C38.5696 21.0511 35.9276 19.7386 33.0128 19.7386C29.8764 19.7386 27.8139 21.2386 27.3111 23.625L30.669 23.8977C30.9162 23.0284 31.6918 22.3892 32.9957 22.3892C34.2315 22.3892 34.9389 23.0114 34.9389 24.0852V24.1364C34.9389 24.9801 34.044 25.0909 31.7685 25.3125C29.1776 25.5511 26.8509 26.4205 26.8509 29.3438C26.8509 31.9347 28.7003 33.2472 31.1974 33.2472ZM32.2372 30.7415C31.1207 30.7415 30.3196 30.2216 30.3196 29.2244C30.3196 28.2017 31.1634 27.6989 32.4418 27.5199C33.2344 27.4091 34.5298 27.2216 34.9645 26.9318V28.321C34.9645 29.6932 33.831 30.7415 32.2372 30.7415Z" fill="black"/>
<defs>
<linearGradient id="paint0_linear" x1="24" y1="0" x2="24" y2="48" gradientUnits="userSpaceOnUse">
<stop stop-color="#E5EEEF"/>
<stop offset="1" stop-color="#DAE5E8"/>
</linearGradient>
</defs>
</svg>
