<svg width="24" height="25" viewBox="0 0 24 25" fill="none" xmlns="http://www.w3.org/2000/svg">
<path fill-rule="evenodd" clip-rule="evenodd" d="M13.4143 12.7275L18.7072 7.43454C19.0982 7.04354 19.0982 6.41154 18.7072 6.02054C18.3162 5.62954 17.6842 5.62954 17.2933 6.02054L12.0002 11.3135L6.70725 6.02054C6.31625 5.62954 5.68425 5.62954 5.29325 6.02054C4.90225 6.41154 4.90225 7.04354 5.29325 7.43454L10.5862 12.7275L5.29325 18.0205C4.90225 18.4115 4.90225 19.0435 5.29325 19.4345C5.48825 19.6295 5.74425 19.7275 6.00025 19.7275C6.25625 19.7275 6.51225 19.6295 6.70725 19.4345L12.0002 14.1415L17.2933 19.4345C17.4882 19.6295 17.7443 19.7275 18.0002 19.7275C18.2562 19.7275 18.5122 19.6295 18.7072 19.4345C19.0982 19.0435 19.0982 18.4115 18.7072 18.0205L13.4143 12.7275Z" fill="#3D4B53"/>
</svg>
