<svg width="349" height="54" viewBox="0 0 349 54" fill="none" xmlns="http://www.w3.org/2000/svg">
<path opacity="0.2" d="M32.1428 53L15.1143 30.679H11.7393V53H0.668324V0.636362H11.7393V21.5511H14.3217L33.4979 0.636362H47.7649L24.8814 25.6165L45.9751 53H32.1428ZM68.2706 53.767C64.299 53.767 60.8643 52.9233 57.9666 51.2358C55.0859 49.5312 52.8615 47.1619 51.2933 44.1278C49.7251 41.0767 48.9411 37.5398 48.9411 33.517C48.9411 29.4602 49.7251 25.9148 51.2933 22.8807C52.8615 19.8295 55.0859 17.4602 57.9666 15.7727C60.8643 14.0682 64.299 13.2159 68.2706 13.2159C72.2422 13.2159 75.6683 14.0682 78.549 15.7727C81.4467 17.4602 83.6797 19.8295 85.2479 22.8807C86.8161 25.9148 87.6001 29.4602 87.6001 33.517C87.6001 37.5398 86.8161 41.0767 85.2479 44.1278C83.6797 47.1619 81.4467 49.5312 78.549 51.2358C75.6683 52.9233 72.2422 53.767 68.2706 53.767ZM68.3217 45.3295C71.0149 45.3295 73.0518 44.2045 74.4325 41.9545C75.8303 39.7045 76.5291 36.8665 76.5291 33.4403C76.5291 30.0142 75.8303 27.1761 74.4325 24.9261C73.0518 22.6591 71.0149 21.5256 68.3217 21.5256C65.5774 21.5256 63.5064 22.6591 62.1087 24.9261C60.7109 27.1761 60.0121 30.0142 60.0121 33.4403C60.0121 36.8665 60.7109 39.7045 62.1087 41.9545C63.5064 44.2045 65.5774 45.3295 68.3217 45.3295ZM105.089 13.7273V29.017H118.512V13.7273H128.842V53H118.512V37.5824H105.089V53H94.6825V13.7273H105.089ZM133.418 22.2926V13.7273H169.009V22.2926H156.353V53H145.972V22.2926H133.418ZM185.405 53.7415C181.655 53.7415 178.544 52.7614 176.072 50.8011C173.601 48.8409 172.365 45.9176 172.365 42.0312C172.365 39.0994 173.055 36.7983 174.436 35.1278C175.817 33.4574 177.624 32.2386 179.857 31.4716C182.107 30.6875 184.527 30.1761 187.118 29.9375C190.527 29.5966 192.964 29.2386 194.43 28.8636C195.896 28.4886 196.629 27.6705 196.629 26.4091V26.2557C196.629 24.6364 196.118 23.3835 195.095 22.4972C194.089 21.6108 192.658 21.1676 190.8 21.1676C188.839 21.1676 187.28 21.5937 186.121 22.446C184.962 23.2983 184.195 24.3807 183.82 25.6932L173.746 24.875C174.496 21.2955 176.354 18.4574 179.32 16.3608C182.303 14.2642 186.146 13.2159 190.851 13.2159C193.766 13.2159 196.493 13.6761 199.033 14.5966C201.572 15.517 203.618 16.9574 205.169 18.9176C206.737 20.8608 207.521 23.392 207.521 26.5114V53H197.192V47.554H196.885C195.93 49.3778 194.499 50.8693 192.589 52.0284C190.697 53.1705 188.303 53.7415 185.405 53.7415ZM188.524 46.2244C190.911 46.2244 192.871 45.5341 194.405 44.1534C195.939 42.7557 196.706 41.0256 196.706 38.9631V34.7955C196.28 35.0852 195.615 35.3409 194.712 35.5625C193.825 35.7841 192.871 35.9801 191.848 36.1506C190.842 36.304 189.939 36.4403 189.138 36.5597C187.229 36.8324 185.686 37.3693 184.51 38.1705C183.351 38.9716 182.771 40.1392 182.771 41.6733C182.771 43.1733 183.308 44.3068 184.382 45.0739C185.473 45.8409 186.854 46.2244 188.524 46.2244ZM215.972 53V13.7273H226.864V28.9659H229.932L240.619 13.7273H253.403L239.52 33.2102L253.557 53H240.619L230.929 39.0653H226.864V53H215.972ZM256.114 22.2926V13.7273H291.705V22.2926H279.048V53H268.668V22.2926H256.114ZM308.714 25.7955H316.87C322.069 25.7955 326.117 27.0398 329.015 29.5284C331.93 32.017 333.396 35.3239 333.413 39.4489C333.396 43.5057 331.93 46.7784 329.015 49.267C326.117 51.7557 322.069 53 316.87 53H298.308V13.7273H308.714V25.7955ZM308.714 34.3608V44.4347H316.87C318.694 44.4347 320.194 43.9744 321.37 43.054C322.546 42.1335 323.143 40.9574 323.16 39.5256C323.143 38.0085 322.546 36.7727 321.37 35.8182C320.194 34.8466 318.694 34.3608 316.87 34.3608H308.714ZM337.631 53V13.7273H348.523V53H337.631Z" fill="url(#paint0_linear)"/>
<defs>
<linearGradient id="paint0_linear" x1="-29.6071" y1="26.1064" x2="379.968" y2="26.1064" gradientUnits="userSpaceOnUse">
<stop stop-color="#B9D4E4"/>
<stop offset="1" stop-color="#B9D4E4"/>
</linearGradient>
</defs>
</svg>
