<svg width="879" height="62" viewBox="0 0 879 62" fill="none" xmlns="http://www.w3.org/2000/svg">
<path opacity="0.2" d="M8.49325 50.6662V42.2912H11.1342C13.1011 42.2912 14.5286 41.9264 15.4169 41.1967C16.3052 40.4671 16.9951 39.3806 17.4869 37.9371L18.0817 36.343L0.379972 1.27273H11.0391L22.5071 25.2557L32.0955 1.27273H42.6119L25.8143 40.4354C25.0053 42.2436 24.0457 43.925 22.9354 45.4794C21.8409 47.0339 20.4371 48.2869 18.7241 49.2386C17.011 50.1903 14.8221 50.6662 12.1573 50.6662H8.49325ZM48.1853 50V1.27273H67.6952C73.0724 1.27273 77.1092 2.44649 79.8057 4.79403C82.518 7.12571 83.8742 10.1156 83.8742 13.7638C83.8742 16.6348 83.0415 18.9586 81.376 20.7351C79.7105 22.4957 77.6088 23.6616 75.0709 24.2326V24.7085C76.9268 24.7878 78.6636 25.3112 80.2815 26.2788C81.9153 27.2463 83.2397 28.5946 84.2549 30.3235C85.27 32.0524 85.7776 34.1224 85.7776 36.5334C85.7776 39.1188 85.1352 41.4267 83.8504 43.457C82.5815 45.4873 80.7019 47.0894 78.2116 48.2631C75.7213 49.421 72.652 50 69.0038 50H48.1853ZM58.4875 41.5774H66.8863C69.7731 41.5774 71.8669 41.0223 73.1675 39.9119C74.4841 38.8016 75.1423 37.3344 75.1423 35.5103C75.1423 33.4959 74.4206 31.8462 72.9772 30.5614C71.5496 29.2766 69.5986 28.6342 67.1242 28.6342H58.4875V41.5774ZM58.4875 21.663H66.1249C68.2345 21.663 69.9872 21.1158 71.3831 20.0213C72.7789 18.911 73.4768 17.3962 73.4768 15.4769C73.4768 13.7163 72.8503 12.2966 71.5972 11.218C70.36 10.1394 68.5993 9.60014 66.3153 9.60014H58.4875V21.663ZM100.88 50H89.8402L106.662 1.27273H119.938L136.735 50H125.696L122.079 38.8888H104.496L100.88 50ZM107.114 30.8469H119.486L113.49 12.4077H113.109L107.114 30.8469ZM179.717 1.27273V21.3299H185.142L195.801 1.27273H208.434L194.159 24.2326L209.148 50H196.847L186.545 30.8469H179.717V50H169.724V30.8469H163.062L152.498 50H140.292L155.567 24.304L140.935 1.27273H153.616L164.561 21.3299H169.724V1.27273H179.717ZM223.691 50H212.652L229.473 1.27273H242.749L259.547 50H248.507L244.891 38.8888H227.308L223.691 50ZM229.925 30.8469H242.297L236.302 12.4077H235.921L229.925 30.8469ZM265.412 50V1.27273H298.246V9.76669H275.714V21.3775H296.556V29.8714H275.714V41.506H298.341V50H265.412ZM306.436 1.27273H319.142L332.561 34.0114H333.132L346.551 1.27273H359.256V50H349.263V18.2844H348.858L336.248 49.7621H329.444L316.834 18.1655H316.429V50H306.436V1.27273ZM378.213 19.2837H386.136C389.99 19.2837 393.321 19.9103 396.128 21.1634C398.936 22.4006 401.101 24.1533 402.624 26.4215C404.147 28.6897 404.9 31.3625 404.884 34.4396C404.9 37.5009 404.147 40.2054 402.624 42.5529C401.101 44.8846 398.936 46.7087 396.128 48.0252C393.321 49.3417 389.99 50 386.136 50H367.934V1.27273H378.213V19.2837ZM378.213 27.4208V41.7202H386.136C388.911 41.7202 391.029 40.9905 392.488 39.5312C393.963 38.072 394.693 36.343 394.677 34.3445C394.693 32.4093 393.963 30.7756 392.488 29.4432C391.029 28.0949 388.911 27.4208 386.136 27.4208H378.213ZM419.136 1.27273V50H408.834V1.27273H419.136ZM427.612 50V1.27273H460.446V9.76669H437.914V21.3775H458.757V29.8714H437.914V41.506H460.541V50H427.612ZM484.143 50V1.27273H503.368C507.064 1.27273 510.212 1.97857 512.813 3.39027C515.415 4.7861 517.397 6.72917 518.762 9.21946C520.142 11.6939 520.832 14.549 520.832 17.7848C520.832 21.0206 520.134 23.8757 518.738 26.3501C517.342 28.8087 515.32 30.7359 512.671 32.1317C510.038 33.5117 506.849 34.2017 503.106 34.2017H494.445V50H484.143ZM494.445 25.9457H501.441C504.391 25.9457 506.588 25.1922 508.031 23.6854C509.49 22.1626 510.22 20.1958 510.22 17.7848C510.22 15.358 509.49 13.407 508.031 11.9318C506.588 10.4408 504.375 9.69531 501.393 9.69531H494.445V25.9457ZM572.301 25.6364C572.301 30.95 571.294 35.4706 569.279 39.1982C567.281 42.9257 564.56 45.7728 561.118 47.7397C557.676 49.6907 553.798 50.6662 549.484 50.6662C545.153 50.6662 541.267 49.6828 537.825 47.7159C534.383 45.7491 531.663 42.9019 529.665 39.1744C527.666 35.431 526.667 30.9183 526.667 25.6364C526.667 20.3227 527.666 15.8021 529.665 12.0746C531.663 8.34706 534.383 5.50781 537.825 3.55682C541.267 1.58996 545.153 0.606532 549.484 0.606532C553.798 0.606532 557.676 1.58996 561.118 3.55682C564.56 5.50781 567.281 8.34706 569.279 12.0746C571.294 15.8021 572.301 20.3227 572.301 25.6364ZM561.856 25.6364C561.856 20.4654 560.73 16.5238 558.477 13.8114C556.225 11.0832 553.227 9.71911 549.484 9.71911C545.74 9.71911 542.743 11.0832 540.49 13.8114C538.238 16.5238 537.112 20.4654 537.112 25.6364C537.112 30.7914 538.238 34.7331 540.49 37.4613C542.743 40.1895 545.74 41.5536 549.484 41.5536C553.227 41.5536 556.225 40.1895 558.477 37.4613C560.73 34.7331 561.856 30.7914 561.856 25.6364ZM577.291 61.7536V41.7915H580.599C581.725 40.9826 582.756 39.8406 583.692 38.3654C584.643 36.8744 585.452 34.8203 586.118 32.2031C586.785 29.5701 587.253 26.1281 587.522 21.8771L588.902 1.27273H621.141V41.7915H626.471V61.706H616.573V50H587.189V61.7536H577.291ZM592.495 41.7915H611.243V9.76669H598.181L597.42 21.8771C597.103 26.6991 596.508 30.7201 595.635 33.94C594.763 37.1599 593.716 39.7771 592.495 41.7915ZM632.758 1.27273V50H641.656L662.856 19.3313H663.212V50H673.515V1.27273H664.473L643.441 31.9176H643.013V1.27273H632.758ZM680.147 9.76669V1.27273H720.166V9.76669H705.248V50H695.065V9.76669H680.147ZM726.757 50V1.27273H759.59V9.76669H737.059V21.3775H757.901V29.8714H737.059V41.506H759.686V50H726.757ZM765.14 50V41.7202L766.52 41.6012C768.312 41.4426 769.748 40.7605 770.826 39.555C771.921 38.3495 772.738 36.4144 773.277 33.7496C773.832 31.069 774.189 27.4684 774.348 22.9478L775.157 1.27273H808.228V50H798.212V9.52876H784.721L783.96 26.4929C783.706 31.9335 783.056 36.3906 782.009 39.8643C780.978 43.3222 779.328 45.8759 777.06 47.5256C774.808 49.1752 771.723 50 767.805 50H765.14ZM816.746 1.27273V50H825.645L846.844 19.3313H847.201V50H857.503V1.27273H848.462L827.429 31.9176H827.001V1.27273H816.746ZM877.911 1.27273L876.983 35.3913H868.275L867.323 1.27273H877.911ZM872.629 50.6186C871.059 50.6186 869.711 50.0634 868.584 48.9531C867.458 47.8428 866.903 46.4946 866.919 44.9084C866.903 43.3539 867.458 42.0215 868.584 40.9112C869.711 39.8009 871.059 39.2457 872.629 39.2457C874.152 39.2457 875.476 39.8009 876.602 40.9112C877.744 42.0215 878.323 43.3539 878.339 44.9084C878.323 46.4946 877.744 47.8428 876.602 48.9531C875.476 50.0634 874.152 50.6186 872.629 50.6186Z" fill="url(#paint0_linear)"/>
<defs>
<linearGradient id="paint0_linear" x1="-40.6429" y1="45.617" x2="1152.61" y2="45.617" gradientUnits="userSpaceOnUse">
<stop stop-color="#B9D4E4"/>
<stop offset="1" stop-color="#B9D4E4"/>
</linearGradient>
</defs>
</svg>
