<svg width="114" height="168" viewBox="0 0 114 168" fill="none" xmlns="http://www.w3.org/2000/svg">
<g opacity="0.5">
<circle cx="3" cy="3" r="3" fill="url(#paint0_linear)"/>
<circle cx="3" cy="21" r="3" fill="url(#paint1_linear)"/>
<circle cx="3" cy="39" r="3" fill="url(#paint2_linear)"/>
<circle cx="3" cy="57" r="3" fill="url(#paint3_linear)"/>
<circle cx="3" cy="75" r="3" fill="url(#paint4_linear)"/>
<circle cx="3" cy="93" r="3" fill="url(#paint5_linear)"/>
<circle cx="3" cy="111" r="3" fill="url(#paint6_linear)"/>
<circle cx="3" cy="129" r="3" fill="url(#paint7_linear)"/>
<circle cx="3" cy="147" r="3" fill="url(#paint8_linear)"/>
<circle cx="3" cy="165" r="3" fill="url(#paint9_linear)"/>
<circle cx="21" cy="3" r="3" fill="url(#paint10_linear)"/>
<circle cx="21" cy="21" r="3" fill="url(#paint11_linear)"/>
<circle cx="21" cy="39" r="3" fill="url(#paint12_linear)"/>
<circle cx="21" cy="57" r="3" fill="url(#paint13_linear)"/>
<circle cx="21" cy="75" r="3" fill="url(#paint14_linear)"/>
<circle cx="21" cy="93" r="3" fill="url(#paint15_linear)"/>
<circle cx="21" cy="111" r="3" fill="url(#paint16_linear)"/>
<circle cx="21" cy="129" r="3" fill="url(#paint17_linear)"/>
<circle cx="21" cy="147" r="3" fill="url(#paint18_linear)"/>
<circle cx="21" cy="165" r="3" fill="url(#paint19_linear)"/>
<circle cx="39" cy="3" r="3" fill="url(#paint20_linear)"/>
<circle cx="39" cy="21" r="3" fill="url(#paint21_linear)"/>
<circle cx="39" cy="39" r="3" fill="url(#paint22_linear)"/>
<circle cx="39" cy="57" r="3" fill="url(#paint23_linear)"/>
<circle cx="39" cy="75" r="3" fill="url(#paint24_linear)"/>
<circle cx="39" cy="93" r="3" fill="url(#paint25_linear)"/>
<circle cx="39" cy="111" r="3" fill="url(#paint26_linear)"/>
<circle cx="39" cy="129" r="3" fill="url(#paint27_linear)"/>
<circle cx="39" cy="147" r="3" fill="url(#paint28_linear)"/>
<circle cx="39" cy="165" r="3" fill="url(#paint29_linear)"/>
<circle cx="57" cy="3" r="3" fill="url(#paint30_linear)"/>
<circle cx="57" cy="21" r="3" fill="url(#paint31_linear)"/>
<circle cx="57" cy="39" r="3" fill="url(#paint32_linear)"/>
<circle cx="57" cy="57" r="3" fill="url(#paint33_linear)"/>
<circle cx="57" cy="75" r="3" fill="url(#paint34_linear)"/>
<circle cx="57" cy="93" r="3" fill="url(#paint35_linear)"/>
<circle cx="57" cy="111" r="3" fill="url(#paint36_linear)"/>
<circle cx="57" cy="129" r="3" fill="url(#paint37_linear)"/>
<circle cx="57" cy="147" r="3" fill="url(#paint38_linear)"/>
<circle cx="57" cy="165" r="3" fill="url(#paint39_linear)"/>
<circle cx="75" cy="3" r="3" fill="url(#paint40_linear)"/>
<circle cx="75" cy="21" r="3" fill="url(#paint41_linear)"/>
<circle cx="75" cy="39" r="3" fill="url(#paint42_linear)"/>
<circle cx="75" cy="57" r="3" fill="url(#paint43_linear)"/>
<circle cx="75" cy="75" r="3" fill="url(#paint44_linear)"/>
<circle cx="75" cy="93" r="3" fill="url(#paint45_linear)"/>
<circle cx="75" cy="111" r="3" fill="url(#paint46_linear)"/>
<circle cx="75" cy="129" r="3" fill="url(#paint47_linear)"/>
<circle cx="75" cy="147" r="3" fill="url(#paint48_linear)"/>
<circle cx="75" cy="165" r="3" fill="url(#paint49_linear)"/>
<circle cx="93" cy="3" r="3" fill="url(#paint50_linear)"/>
<circle cx="93" cy="21" r="3" fill="url(#paint51_linear)"/>
<circle cx="93" cy="39" r="3" fill="url(#paint52_linear)"/>
<circle cx="93" cy="57" r="3" fill="url(#paint53_linear)"/>
<circle cx="93" cy="75" r="3" fill="url(#paint54_linear)"/>
<circle cx="93" cy="93" r="3" fill="url(#paint55_linear)"/>
<circle cx="93" cy="111" r="3" fill="url(#paint56_linear)"/>
<circle cx="93" cy="129" r="3" fill="url(#paint57_linear)"/>
<circle cx="93" cy="147" r="3" fill="url(#paint58_linear)"/>
<circle cx="93" cy="165" r="3" fill="url(#paint59_linear)"/>
<circle cx="111" cy="3" r="3" fill="url(#paint60_linear)"/>
<circle cx="111" cy="21" r="3" fill="url(#paint61_linear)"/>
<circle cx="111" cy="39" r="3" fill="url(#paint62_linear)"/>
<circle cx="111" cy="57" r="3" fill="url(#paint63_linear)"/>
<circle cx="111" cy="75" r="3" fill="url(#paint64_linear)"/>
<circle cx="111" cy="93" r="3" fill="url(#paint65_linear)"/>
<circle cx="111" cy="111" r="3" fill="url(#paint66_linear)"/>
<circle cx="111" cy="129" r="3" fill="url(#paint67_linear)"/>
<circle cx="111" cy="147" r="3" fill="url(#paint68_linear)"/>
<circle cx="111" cy="165" r="3" fill="url(#paint69_linear)"/>
</g>
<defs>
<linearGradient id="paint0_linear" x1="-0.214286" y1="3.06383" x2="6.23571" y2="3.06383" gradientUnits="userSpaceOnUse">
<stop stop-color="#B9D4E4"/>
<stop offset="1" stop-color="#B9D4E4"/>
</linearGradient>
<linearGradient id="paint1_linear" x1="-0.214286" y1="21.0638" x2="6.23571" y2="21.0638" gradientUnits="userSpaceOnUse">
<stop stop-color="#B9D4E4"/>
<stop offset="1" stop-color="#B9D4E4"/>
</linearGradient>
<linearGradient id="paint2_linear" x1="-0.214286" y1="39.0638" x2="6.23571" y2="39.0638" gradientUnits="userSpaceOnUse">
<stop stop-color="#B9D4E4"/>
<stop offset="1" stop-color="#B9D4E4"/>
</linearGradient>
<linearGradient id="paint3_linear" x1="-0.214286" y1="57.0638" x2="6.23571" y2="57.0638" gradientUnits="userSpaceOnUse">
<stop stop-color="#B9D4E4"/>
<stop offset="1" stop-color="#B9D4E4"/>
</linearGradient>
<linearGradient id="paint4_linear" x1="-0.214286" y1="75.0638" x2="6.23571" y2="75.0638" gradientUnits="userSpaceOnUse">
<stop stop-color="#B9D4E4"/>
<stop offset="1" stop-color="#B9D4E4"/>
</linearGradient>
<linearGradient id="paint5_linear" x1="-0.214286" y1="93.0638" x2="6.23571" y2="93.0638" gradientUnits="userSpaceOnUse">
<stop stop-color="#B9D4E4"/>
<stop offset="1" stop-color="#B9D4E4"/>
</linearGradient>
<linearGradient id="paint6_linear" x1="-0.214286" y1="111.064" x2="6.23571" y2="111.064" gradientUnits="userSpaceOnUse">
<stop stop-color="#B9D4E4"/>
<stop offset="1" stop-color="#B9D4E4"/>
</linearGradient>
<linearGradient id="paint7_linear" x1="-0.214286" y1="129.064" x2="6.23571" y2="129.064" gradientUnits="userSpaceOnUse">
<stop stop-color="#B9D4E4"/>
<stop offset="1" stop-color="#B9D4E4"/>
</linearGradient>
<linearGradient id="paint8_linear" x1="-0.214286" y1="147.064" x2="6.23571" y2="147.064" gradientUnits="userSpaceOnUse">
<stop stop-color="#B9D4E4"/>
<stop offset="1" stop-color="#B9D4E4"/>
</linearGradient>
<linearGradient id="paint9_linear" x1="-0.214286" y1="165.064" x2="6.23571" y2="165.064" gradientUnits="userSpaceOnUse">
<stop stop-color="#B9D4E4"/>
<stop offset="1" stop-color="#B9D4E4"/>
</linearGradient>
<linearGradient id="paint10_linear" x1="17.7857" y1="3.06383" x2="24.2357" y2="3.06383" gradientUnits="userSpaceOnUse">
<stop stop-color="#B9D4E4"/>
<stop offset="1" stop-color="#B9D4E4"/>
</linearGradient>
<linearGradient id="paint11_linear" x1="17.7857" y1="21.0638" x2="24.2357" y2="21.0638" gradientUnits="userSpaceOnUse">
<stop stop-color="#B9D4E4"/>
<stop offset="1" stop-color="#B9D4E4"/>
</linearGradient>
<linearGradient id="paint12_linear" x1="17.7857" y1="39.0638" x2="24.2357" y2="39.0638" gradientUnits="userSpaceOnUse">
<stop stop-color="#B9D4E4"/>
<stop offset="1" stop-color="#B9D4E4"/>
</linearGradient>
<linearGradient id="paint13_linear" x1="17.7857" y1="57.0638" x2="24.2357" y2="57.0638" gradientUnits="userSpaceOnUse">
<stop stop-color="#B9D4E4"/>
<stop offset="1" stop-color="#B9D4E4"/>
</linearGradient>
<linearGradient id="paint14_linear" x1="17.7857" y1="75.0638" x2="24.2357" y2="75.0638" gradientUnits="userSpaceOnUse">
<stop stop-color="#B9D4E4"/>
<stop offset="1" stop-color="#B9D4E4"/>
</linearGradient>
<linearGradient id="paint15_linear" x1="17.7857" y1="93.0638" x2="24.2357" y2="93.0638" gradientUnits="userSpaceOnUse">
<stop stop-color="#B9D4E4"/>
<stop offset="1" stop-color="#B9D4E4"/>
</linearGradient>
<linearGradient id="paint16_linear" x1="17.7857" y1="111.064" x2="24.2357" y2="111.064" gradientUnits="userSpaceOnUse">
<stop stop-color="#B9D4E4"/>
<stop offset="1" stop-color="#B9D4E4"/>
</linearGradient>
<linearGradient id="paint17_linear" x1="17.7857" y1="129.064" x2="24.2357" y2="129.064" gradientUnits="userSpaceOnUse">
<stop stop-color="#B9D4E4"/>
<stop offset="1" stop-color="#B9D4E4"/>
</linearGradient>
<linearGradient id="paint18_linear" x1="17.7857" y1="147.064" x2="24.2357" y2="147.064" gradientUnits="userSpaceOnUse">
<stop stop-color="#B9D4E4"/>
<stop offset="1" stop-color="#B9D4E4"/>
</linearGradient>
<linearGradient id="paint19_linear" x1="17.7857" y1="165.064" x2="24.2357" y2="165.064" gradientUnits="userSpaceOnUse">
<stop stop-color="#B9D4E4"/>
<stop offset="1" stop-color="#B9D4E4"/>
</linearGradient>
<linearGradient id="paint20_linear" x1="35.7857" y1="3.06383" x2="42.2357" y2="3.06383" gradientUnits="userSpaceOnUse">
<stop stop-color="#B9D4E4"/>
<stop offset="1" stop-color="#B9D4E4"/>
</linearGradient>
<linearGradient id="paint21_linear" x1="35.7857" y1="21.0638" x2="42.2357" y2="21.0638" gradientUnits="userSpaceOnUse">
<stop stop-color="#B9D4E4"/>
<stop offset="1" stop-color="#B9D4E4"/>
</linearGradient>
<linearGradient id="paint22_linear" x1="35.7857" y1="39.0638" x2="42.2357" y2="39.0638" gradientUnits="userSpaceOnUse">
<stop stop-color="#B9D4E4"/>
<stop offset="1" stop-color="#B9D4E4"/>
</linearGradient>
<linearGradient id="paint23_linear" x1="35.7857" y1="57.0638" x2="42.2357" y2="57.0638" gradientUnits="userSpaceOnUse">
<stop stop-color="#B9D4E4"/>
<stop offset="1" stop-color="#B9D4E4"/>
</linearGradient>
<linearGradient id="paint24_linear" x1="35.7857" y1="75.0638" x2="42.2357" y2="75.0638" gradientUnits="userSpaceOnUse">
<stop stop-color="#B9D4E4"/>
<stop offset="1" stop-color="#B9D4E4"/>
</linearGradient>
<linearGradient id="paint25_linear" x1="35.7857" y1="93.0638" x2="42.2357" y2="93.0638" gradientUnits="userSpaceOnUse">
<stop stop-color="#B9D4E4"/>
<stop offset="1" stop-color="#B9D4E4"/>
</linearGradient>
<linearGradient id="paint26_linear" x1="35.7857" y1="111.064" x2="42.2357" y2="111.064" gradientUnits="userSpaceOnUse">
<stop stop-color="#B9D4E4"/>
<stop offset="1" stop-color="#B9D4E4"/>
</linearGradient>
<linearGradient id="paint27_linear" x1="35.7857" y1="129.064" x2="42.2357" y2="129.064" gradientUnits="userSpaceOnUse">
<stop stop-color="#B9D4E4"/>
<stop offset="1" stop-color="#B9D4E4"/>
</linearGradient>
<linearGradient id="paint28_linear" x1="35.7857" y1="147.064" x2="42.2357" y2="147.064" gradientUnits="userSpaceOnUse">
<stop stop-color="#B9D4E4"/>
<stop offset="1" stop-color="#B9D4E4"/>
</linearGradient>
<linearGradient id="paint29_linear" x1="35.7857" y1="165.064" x2="42.2357" y2="165.064" gradientUnits="userSpaceOnUse">
<stop stop-color="#B9D4E4"/>
<stop offset="1" stop-color="#B9D4E4"/>
</linearGradient>
<linearGradient id="paint30_linear" x1="53.7857" y1="3.06383" x2="60.2357" y2="3.06383" gradientUnits="userSpaceOnUse">
<stop stop-color="#B9D4E4"/>
<stop offset="1" stop-color="#B9D4E4"/>
</linearGradient>
<linearGradient id="paint31_linear" x1="53.7857" y1="21.0638" x2="60.2357" y2="21.0638" gradientUnits="userSpaceOnUse">
<stop stop-color="#B9D4E4"/>
<stop offset="1" stop-color="#B9D4E4"/>
</linearGradient>
<linearGradient id="paint32_linear" x1="53.7857" y1="39.0638" x2="60.2357" y2="39.0638" gradientUnits="userSpaceOnUse">
<stop stop-color="#B9D4E4"/>
<stop offset="1" stop-color="#B9D4E4"/>
</linearGradient>
<linearGradient id="paint33_linear" x1="53.7857" y1="57.0638" x2="60.2357" y2="57.0638" gradientUnits="userSpaceOnUse">
<stop stop-color="#B9D4E4"/>
<stop offset="1" stop-color="#B9D4E4"/>
</linearGradient>
<linearGradient id="paint34_linear" x1="53.7857" y1="75.0638" x2="60.2357" y2="75.0638" gradientUnits="userSpaceOnUse">
<stop stop-color="#B9D4E4"/>
<stop offset="1" stop-color="#B9D4E4"/>
</linearGradient>
<linearGradient id="paint35_linear" x1="53.7857" y1="93.0638" x2="60.2357" y2="93.0638" gradientUnits="userSpaceOnUse">
<stop stop-color="#B9D4E4"/>
<stop offset="1" stop-color="#B9D4E4"/>
</linearGradient>
<linearGradient id="paint36_linear" x1="53.7857" y1="111.064" x2="60.2357" y2="111.064" gradientUnits="userSpaceOnUse">
<stop stop-color="#B9D4E4"/>
<stop offset="1" stop-color="#B9D4E4"/>
</linearGradient>
<linearGradient id="paint37_linear" x1="53.7857" y1="129.064" x2="60.2357" y2="129.064" gradientUnits="userSpaceOnUse">
<stop stop-color="#B9D4E4"/>
<stop offset="1" stop-color="#B9D4E4"/>
</linearGradient>
<linearGradient id="paint38_linear" x1="53.7857" y1="147.064" x2="60.2357" y2="147.064" gradientUnits="userSpaceOnUse">
<stop stop-color="#B9D4E4"/>
<stop offset="1" stop-color="#B9D4E4"/>
</linearGradient>
<linearGradient id="paint39_linear" x1="53.7857" y1="165.064" x2="60.2357" y2="165.064" gradientUnits="userSpaceOnUse">
<stop stop-color="#B9D4E4"/>
<stop offset="1" stop-color="#B9D4E4"/>
</linearGradient>
<linearGradient id="paint40_linear" x1="71.7857" y1="3.06383" x2="78.2357" y2="3.06383" gradientUnits="userSpaceOnUse">
<stop stop-color="#B9D4E4"/>
<stop offset="1" stop-color="#B9D4E4"/>
</linearGradient>
<linearGradient id="paint41_linear" x1="71.7857" y1="21.0638" x2="78.2357" y2="21.0638" gradientUnits="userSpaceOnUse">
<stop stop-color="#B9D4E4"/>
<stop offset="1" stop-color="#B9D4E4"/>
</linearGradient>
<linearGradient id="paint42_linear" x1="71.7857" y1="39.0638" x2="78.2357" y2="39.0638" gradientUnits="userSpaceOnUse">
<stop stop-color="#B9D4E4"/>
<stop offset="1" stop-color="#B9D4E4"/>
</linearGradient>
<linearGradient id="paint43_linear" x1="71.7857" y1="57.0638" x2="78.2357" y2="57.0638" gradientUnits="userSpaceOnUse">
<stop stop-color="#B9D4E4"/>
<stop offset="1" stop-color="#B9D4E4"/>
</linearGradient>
<linearGradient id="paint44_linear" x1="71.7857" y1="75.0638" x2="78.2357" y2="75.0638" gradientUnits="userSpaceOnUse">
<stop stop-color="#B9D4E4"/>
<stop offset="1" stop-color="#B9D4E4"/>
</linearGradient>
<linearGradient id="paint45_linear" x1="71.7857" y1="93.0638" x2="78.2357" y2="93.0638" gradientUnits="userSpaceOnUse">
<stop stop-color="#B9D4E4"/>
<stop offset="1" stop-color="#B9D4E4"/>
</linearGradient>
<linearGradient id="paint46_linear" x1="71.7857" y1="111.064" x2="78.2357" y2="111.064" gradientUnits="userSpaceOnUse">
<stop stop-color="#B9D4E4"/>
<stop offset="1" stop-color="#B9D4E4"/>
</linearGradient>
<linearGradient id="paint47_linear" x1="71.7857" y1="129.064" x2="78.2357" y2="129.064" gradientUnits="userSpaceOnUse">
<stop stop-color="#B9D4E4"/>
<stop offset="1" stop-color="#B9D4E4"/>
</linearGradient>
<linearGradient id="paint48_linear" x1="71.7857" y1="147.064" x2="78.2357" y2="147.064" gradientUnits="userSpaceOnUse">
<stop stop-color="#B9D4E4"/>
<stop offset="1" stop-color="#B9D4E4"/>
</linearGradient>
<linearGradient id="paint49_linear" x1="71.7857" y1="165.064" x2="78.2357" y2="165.064" gradientUnits="userSpaceOnUse">
<stop stop-color="#B9D4E4"/>
<stop offset="1" stop-color="#B9D4E4"/>
</linearGradient>
<linearGradient id="paint50_linear" x1="89.7857" y1="3.06383" x2="96.2357" y2="3.06383" gradientUnits="userSpaceOnUse">
<stop stop-color="#B9D4E4"/>
<stop offset="1" stop-color="#B9D4E4"/>
</linearGradient>
<linearGradient id="paint51_linear" x1="89.7857" y1="21.0638" x2="96.2357" y2="21.0638" gradientUnits="userSpaceOnUse">
<stop stop-color="#B9D4E4"/>
<stop offset="1" stop-color="#B9D4E4"/>
</linearGradient>
<linearGradient id="paint52_linear" x1="89.7857" y1="39.0638" x2="96.2357" y2="39.0638" gradientUnits="userSpaceOnUse">
<stop stop-color="#B9D4E4"/>
<stop offset="1" stop-color="#B9D4E4"/>
</linearGradient>
<linearGradient id="paint53_linear" x1="89.7857" y1="57.0638" x2="96.2357" y2="57.0638" gradientUnits="userSpaceOnUse">
<stop stop-color="#B9D4E4"/>
<stop offset="1" stop-color="#B9D4E4"/>
</linearGradient>
<linearGradient id="paint54_linear" x1="89.7857" y1="75.0638" x2="96.2357" y2="75.0638" gradientUnits="userSpaceOnUse">
<stop stop-color="#B9D4E4"/>
<stop offset="1" stop-color="#B9D4E4"/>
</linearGradient>
<linearGradient id="paint55_linear" x1="89.7857" y1="93.0638" x2="96.2357" y2="93.0638" gradientUnits="userSpaceOnUse">
<stop stop-color="#B9D4E4"/>
<stop offset="1" stop-color="#B9D4E4"/>
</linearGradient>
<linearGradient id="paint56_linear" x1="89.7857" y1="111.064" x2="96.2357" y2="111.064" gradientUnits="userSpaceOnUse">
<stop stop-color="#B9D4E4"/>
<stop offset="1" stop-color="#B9D4E4"/>
</linearGradient>
<linearGradient id="paint57_linear" x1="89.7857" y1="129.064" x2="96.2357" y2="129.064" gradientUnits="userSpaceOnUse">
<stop stop-color="#B9D4E4"/>
<stop offset="1" stop-color="#B9D4E4"/>
</linearGradient>
<linearGradient id="paint58_linear" x1="89.7857" y1="147.064" x2="96.2357" y2="147.064" gradientUnits="userSpaceOnUse">
<stop stop-color="#B9D4E4"/>
<stop offset="1" stop-color="#B9D4E4"/>
</linearGradient>
<linearGradient id="paint59_linear" x1="89.7857" y1="165.064" x2="96.2357" y2="165.064" gradientUnits="userSpaceOnUse">
<stop stop-color="#B9D4E4"/>
<stop offset="1" stop-color="#B9D4E4"/>
</linearGradient>
<linearGradient id="paint60_linear" x1="107.786" y1="3.06383" x2="114.236" y2="3.06383" gradientUnits="userSpaceOnUse">
<stop stop-color="#B9D4E4"/>
<stop offset="1" stop-color="#B9D4E4"/>
</linearGradient>
<linearGradient id="paint61_linear" x1="107.786" y1="21.0638" x2="114.236" y2="21.0638" gradientUnits="userSpaceOnUse">
<stop stop-color="#B9D4E4"/>
<stop offset="1" stop-color="#B9D4E4"/>
</linearGradient>
<linearGradient id="paint62_linear" x1="107.786" y1="39.0638" x2="114.236" y2="39.0638" gradientUnits="userSpaceOnUse">
<stop stop-color="#B9D4E4"/>
<stop offset="1" stop-color="#B9D4E4"/>
</linearGradient>
<linearGradient id="paint63_linear" x1="107.786" y1="57.0638" x2="114.236" y2="57.0638" gradientUnits="userSpaceOnUse">
<stop stop-color="#B9D4E4"/>
<stop offset="1" stop-color="#B9D4E4"/>
</linearGradient>
<linearGradient id="paint64_linear" x1="107.786" y1="75.0638" x2="114.236" y2="75.0638" gradientUnits="userSpaceOnUse">
<stop stop-color="#B9D4E4"/>
<stop offset="1" stop-color="#B9D4E4"/>
</linearGradient>
<linearGradient id="paint65_linear" x1="107.786" y1="93.0638" x2="114.236" y2="93.0638" gradientUnits="userSpaceOnUse">
<stop stop-color="#B9D4E4"/>
<stop offset="1" stop-color="#B9D4E4"/>
</linearGradient>
<linearGradient id="paint66_linear" x1="107.786" y1="111.064" x2="114.236" y2="111.064" gradientUnits="userSpaceOnUse">
<stop stop-color="#B9D4E4"/>
<stop offset="1" stop-color="#B9D4E4"/>
</linearGradient>
<linearGradient id="paint67_linear" x1="107.786" y1="129.064" x2="114.236" y2="129.064" gradientUnits="userSpaceOnUse">
<stop stop-color="#B9D4E4"/>
<stop offset="1" stop-color="#B9D4E4"/>
</linearGradient>
<linearGradient id="paint68_linear" x1="107.786" y1="147.064" x2="114.236" y2="147.064" gradientUnits="userSpaceOnUse">
<stop stop-color="#B9D4E4"/>
<stop offset="1" stop-color="#B9D4E4"/>
</linearGradient>
<linearGradient id="paint69_linear" x1="107.786" y1="165.064" x2="114.236" y2="165.064" gradientUnits="userSpaceOnUse">
<stop stop-color="#B9D4E4"/>
<stop offset="1" stop-color="#B9D4E4"/>
</linearGradient>
</defs>
</svg>
