<svg width="1018" height="68" viewBox="0 0 1018 68" fill="none" xmlns="http://www.w3.org/2000/svg">
<path opacity="0.2" d="M0.899858 0.636362V17.5114C0.87429 29.4261 9.03054 34.642 21.6612 34.642C24.2947 34.642 28.897 34.2841 32.0675 33.6449V53H42.8828V0.636362H32.0675V24.875C28.9226 25.4886 24.3203 25.7955 21.6612 25.7955C14.7067 25.7955 11.6641 23.571 11.6641 17.5114V0.636362H0.899858ZM64.8267 53.7415C70.6307 53.7415 74.3892 51.2102 76.3068 47.554H76.6136V53H86.9432V26.5114C86.9432 17.1534 79.017 13.2159 70.2727 13.2159C60.8636 13.2159 54.6761 17.7159 53.1676 24.875L63.2415 25.6932C63.983 23.0852 66.3097 21.1676 70.2216 21.1676C73.929 21.1676 76.0511 23.0341 76.0511 26.2557V26.4091C76.0511 28.9403 73.3665 29.2727 66.5398 29.9375C58.767 30.6534 51.7869 33.2614 51.7869 42.0312C51.7869 49.804 57.3352 53.7415 64.8267 53.7415ZM67.946 46.2244C64.5966 46.2244 62.1932 44.6648 62.1932 41.6733C62.1932 38.6051 64.7244 37.0966 68.5597 36.5597C70.9375 36.2273 74.8239 35.6648 76.1278 34.7955V38.9631C76.1278 43.0795 72.7273 46.2244 67.946 46.2244ZM113.138 53.767C123.595 53.767 130.166 47.6307 130.678 38.6051H120.399C119.76 42.7983 116.999 45.1506 113.266 45.1506C108.178 45.1506 104.879 40.8807 104.879 33.3636C104.879 25.9489 108.203 21.7045 113.266 21.7045C117.254 21.7045 119.811 24.3381 120.399 28.25H130.678C130.217 19.1733 123.339 13.2159 113.087 13.2159C101.172 13.2159 93.8082 21.4744 93.8082 33.517C93.8082 45.4574 101.044 53.767 113.138 53.767ZM135.043 22.2926H147.597V53H157.978V22.2926H170.634V13.7273H135.043V22.2926ZM193.575 53.767C205.49 53.767 212.905 45.6108 212.905 33.517C212.905 21.3466 205.49 13.2159 193.575 13.2159C181.661 13.2159 174.246 21.3466 174.246 33.517C174.246 45.6108 181.661 53.767 193.575 53.767ZM193.626 45.3295C188.129 45.3295 185.317 40.2926 185.317 33.4403C185.317 26.5881 188.129 21.5256 193.626 21.5256C199.021 21.5256 201.834 26.5881 201.834 33.4403C201.834 40.2926 199.021 45.3295 193.626 45.3295ZM234.631 41.8778C234.913 49.5483 241.842 53.767 251.276 53.767C260.941 53.767 267.87 49.4205 267.87 42.108C267.87 36.6364 263.958 33.2102 259.151 32.9034V32.4943C264.035 31.3182 266.924 28.4545 266.924 24.2869C266.924 17.4347 260.992 13.2159 251.379 13.2159C242.583 13.2159 235.756 17.6648 235.68 24.7216H246.188C246.265 22.4205 248.617 20.8097 251.864 20.8097C255.086 20.8097 257.106 22.5994 257.106 25.233C257.106 27.6108 255.214 29.3494 251.839 29.3494H246.188V36.483H251.839C255.239 36.483 257.515 38.4261 257.515 41.2642C257.515 44.3835 254.779 46.071 251.225 46.071C247.722 46.071 245.293 44.4858 245.191 41.8778H234.631ZM285.749 53.7415C291.553 53.7415 295.311 51.2102 297.229 47.554H297.536V53H307.865V26.5114C307.865 17.1534 299.939 13.2159 291.195 13.2159C281.786 13.2159 275.598 17.7159 274.089 24.875L284.163 25.6932C284.905 23.0852 287.232 21.1676 291.143 21.1676C294.851 21.1676 296.973 23.0341 296.973 26.2557V26.4091C296.973 28.9403 294.288 29.2727 287.462 29.9375C279.689 30.6534 272.709 33.2614 272.709 42.0312C272.709 49.804 278.257 53.7415 285.749 53.7415ZM288.868 46.2244C285.518 46.2244 283.115 44.6648 283.115 41.6733C283.115 38.6051 285.646 37.0966 289.482 36.5597C291.859 36.2273 295.746 35.6648 297.05 34.7955V38.9631C297.05 43.0795 293.649 46.2244 288.868 46.2244ZM313.247 64.5057H323.884V53H347.892V64.5057H358.273V44.358H352.188V13.7273H322.068L321.045 26.5625C320.432 34.2841 319.69 42.1847 316.264 44.358H313.247V64.5057ZM327.105 44.358C329.432 40.7017 330.327 34.9489 330.915 26.5625L331.324 22.1136H341.909V44.358H327.105ZM375.819 53.7415C381.623 53.7415 385.381 51.2102 387.299 47.554H387.606V53H397.935V26.5114C397.935 17.1534 390.009 13.2159 381.265 13.2159C371.856 13.2159 365.668 17.7159 364.16 24.875L374.234 25.6932C374.975 23.0852 377.302 21.1676 381.214 21.1676C384.921 21.1676 387.043 23.0341 387.043 26.2557V26.4091C387.043 28.9403 384.359 29.2727 377.532 29.9375C369.759 30.6534 362.779 33.2614 362.779 42.0312C362.779 49.804 368.327 53.7415 375.819 53.7415ZM378.938 46.2244C375.589 46.2244 373.185 44.6648 373.185 41.6733C373.185 38.6051 375.717 37.0966 379.552 36.5597C381.93 36.2273 385.816 35.6648 387.12 34.7955V38.9631C387.12 43.0795 383.719 46.2244 378.938 46.2244ZM406.386 53H425.715C435.533 53 441.005 48.9858 441.005 42.2869C441.005 37.1222 436.914 33.0312 429.857 32.5199C435.482 31.5483 438.832 28.5824 438.832 24.3381C438.832 17.5369 432.823 13.7273 423.133 13.7273H406.386V53ZM416.536 44.8438V36.2784H425.715C428.732 36.2784 430.573 37.9915 430.573 40.7784C430.573 43.3097 428.732 44.8438 425.715 44.8438H416.536ZM416.536 29.8864V22.0625H423.133C426.508 22.0625 428.579 23.5199 428.579 25.9233C428.579 28.4034 426.61 29.8864 423.363 29.8864H416.536ZM459.069 53.7415C464.873 53.7415 468.631 51.2102 470.549 47.554H470.856V53H481.185V26.5114C481.185 17.1534 473.259 13.2159 464.515 13.2159C455.106 13.2159 448.918 17.7159 447.41 24.875L457.484 25.6932C458.225 23.0852 460.552 21.1676 464.464 21.1676C468.171 21.1676 470.293 23.0341 470.293 26.2557V26.4091C470.293 28.9403 467.609 29.2727 460.782 29.9375C453.009 30.6534 446.029 33.2614 446.029 42.0312C446.029 49.804 451.577 53.7415 459.069 53.7415ZM462.188 46.2244C458.839 46.2244 456.435 44.6648 456.435 41.6733C456.435 38.6051 458.967 37.0966 462.802 36.5597C465.18 36.2273 469.066 35.6648 470.37 34.7955V38.9631C470.37 43.0795 466.969 46.2244 462.188 46.2244ZM507.533 53.767C517.249 53.767 523.795 49.0369 525.329 41.75L515.255 41.0852C514.156 44.0767 511.343 45.6364 507.712 45.6364C502.266 45.6364 498.815 42.0312 498.815 36.1761V36.1506H525.559V33.1591C525.559 19.8125 517.479 13.2159 507.099 13.2159C495.542 13.2159 488.05 21.4233 488.05 33.5426C488.05 45.9943 495.44 53.767 507.533 53.767ZM498.815 29.4006C499.045 24.9261 502.445 21.3466 507.278 21.3466C512.008 21.3466 515.281 24.7216 515.306 29.4006H498.815ZM555.883 40.9574L545.553 13.7273H532.667V53H543.073V28.8892L552.252 53H559.488L569.229 28.0199V53H579.508V13.7273H566.519L555.883 40.9574ZM598.339 25.7955V13.7273H587.933V53H606.495C616.901 53 623.012 47.554 623.038 39.4489C623.012 31.1903 616.901 25.7955 606.495 25.7955H598.339ZM627.256 53H638.148V13.7273H627.256V53ZM598.339 34.3608H606.495C610.151 34.3608 612.734 36.5085 612.785 39.5256C612.734 42.3892 610.151 44.4347 606.495 44.4347H598.339V34.3608ZM664.752 53.767C674.468 53.767 681.013 49.0369 682.548 41.75L672.474 41.0852C671.374 44.0767 668.562 45.6364 664.931 45.6364C659.485 45.6364 656.033 42.0312 656.033 36.1761V36.1506H682.778V33.1591C682.778 19.8125 674.698 13.2159 664.317 13.2159C652.761 13.2159 645.269 21.4233 645.269 33.5426C645.269 45.9943 652.658 53.767 664.752 53.767ZM656.033 29.4006C656.263 24.9261 659.664 21.3466 664.496 21.3466C669.227 21.3466 672.499 24.7216 672.525 29.4006H656.033ZM706.55 53H725.879C735.697 53 741.169 48.9858 741.169 42.2869C741.169 37.1222 737.078 33.0312 730.021 32.5199C735.646 31.5483 738.996 28.5824 738.996 24.3381C738.996 17.5369 732.987 13.7273 723.297 13.7273H706.55V53ZM716.7 44.8438V36.2784H725.879C728.896 36.2784 730.737 37.9915 730.737 40.7784C730.737 43.3097 728.896 44.8438 725.879 44.8438H716.7ZM716.7 29.8864V22.0625H723.297C726.672 22.0625 728.743 23.5199 728.743 25.9233C728.743 28.4034 726.774 29.8864 723.527 29.8864H716.7ZM765.778 53.767C777.693 53.767 785.108 45.6108 785.108 33.517C785.108 21.3466 777.693 13.2159 765.778 13.2159C753.864 13.2159 746.449 21.3466 746.449 33.517C746.449 45.6108 753.864 53.767 765.778 53.767ZM765.83 45.3295C760.332 45.3295 757.52 40.2926 757.52 33.4403C757.52 26.5881 760.332 21.5256 765.83 21.5256C771.224 21.5256 774.037 26.5881 774.037 33.4403C774.037 40.2926 771.224 45.3295 765.83 45.3295ZM792.19 53H802.469V22.2926H816.122V53H826.528V13.7273H792.19V53ZM835.222 67.7273H846.114V46.7102H846.446C847.955 49.983 851.253 53.6392 857.594 53.6392C866.543 53.6392 873.523 46.5568 873.523 33.4148C873.523 19.9148 866.236 13.2159 857.619 13.2159C851.048 13.2159 847.903 17.1278 846.446 20.3239H845.96V13.7273H835.222V67.7273ZM845.884 33.3636C845.884 26.358 848.849 21.8835 854.142 21.8835C859.537 21.8835 862.401 26.5625 862.401 33.3636C862.401 40.2159 859.486 44.9716 854.142 44.9716C848.901 44.9716 845.884 40.3693 845.884 33.3636ZM898.528 53.767C910.443 53.767 917.858 45.6108 917.858 33.517C917.858 21.3466 910.443 13.2159 898.528 13.2159C886.614 13.2159 879.199 21.3466 879.199 33.517C879.199 45.6108 886.614 53.767 898.528 53.767ZM898.58 45.3295C893.082 45.3295 890.27 40.2926 890.27 33.4403C890.27 26.5881 893.082 21.5256 898.58 21.5256C903.974 21.5256 906.787 26.5881 906.787 33.4403C906.787 40.2926 903.974 45.3295 898.58 45.3295ZM942.685 53.767C953.142 53.767 959.713 47.6307 960.224 38.6051H949.946C949.307 42.7983 946.545 45.1506 942.812 45.1506C937.724 45.1506 934.426 40.8807 934.426 33.3636C934.426 25.9489 937.75 21.7045 942.812 21.7045C946.801 21.7045 949.358 24.3381 949.946 28.25H960.224C959.764 19.1733 952.886 13.2159 942.634 13.2159C930.719 13.2159 923.355 21.4744 923.355 33.517C923.355 45.4574 930.591 53.767 942.685 53.767ZM977.604 25.7955V13.7273H967.198V53H985.761C996.167 53 1002.28 47.554 1002.3 39.4489C1002.28 31.1903 996.167 25.7955 985.761 25.7955H977.604ZM1006.52 53H1017.41V13.7273H1006.52V53ZM977.604 34.3608H985.761C989.417 34.3608 991.999 36.5085 992.05 39.5256C991.999 42.3892 989.417 44.4347 985.761 44.4347H977.604V34.3608Z" fill="url(#paint0_linear)"/>
<defs>
<linearGradient id="paint0_linear" x1="-78.0714" y1="26.1064" x2="1097.98" y2="26.1063" gradientUnits="userSpaceOnUse">
<stop stop-color="#B9D4E4"/>
<stop offset="1" stop-color="#B9D4E4"/>
</linearGradient>
</defs>
</svg>
