<svg width="54" height="54" viewBox="0 0 54 54" fill="none" xmlns="http://www.w3.org/2000/svg">
<circle cx="27" cy="27" r="27" fill="#6ACEEC"/>
<path fill-rule="evenodd" clip-rule="evenodd" d="M22.7086 36.0834C21.1208 36.0834 19.8336 34.7962 19.8336 33.2084V27.4584H18.8753C18.0215 27.4584 17.5939 26.4262 18.1976 25.8224L26.8226 17.1974C27.1969 16.8232 27.8037 16.8232 28.1779 17.1974L36.8029 25.8224C37.4067 26.4262 36.9791 27.4584 36.1253 27.4584H35.167V33.2084C35.167 34.7962 33.8798 36.0834 32.292 36.0834H22.7086ZM27.5003 19.2304L21.1283 25.6024C21.4916 25.7386 21.7503 26.0891 21.7503 26.5001V33.2084C21.7503 33.7377 22.1794 34.1667 22.7086 34.1667L24.6253 34.1658L24.6253 30.3334C24.6253 29.2749 25.4834 28.4167 26.542 28.4167H28.4586C29.5172 28.4167 30.3753 29.2749 30.3753 30.3334L30.3753 34.1658L32.292 34.1667C32.8212 34.1667 33.2503 33.7377 33.2503 33.2084V26.5001C33.2503 26.0891 33.5089 25.7386 33.8723 25.6024L27.5003 19.2304ZM28.4586 30.3334H26.542L26.542 34.1658H28.4586L28.4586 30.3334Z" fill="white"/>
</svg>
