<svg width="612" height="120" viewBox="0 0 612 120" fill="none" xmlns="http://www.w3.org/2000/svg">
<path opacity="0.2" d="M46.0128 26.1364C46.0128 31.45 45.0056 35.9706 42.9911 39.6982C40.9925 43.4257 38.2723 46.2728 34.8303 48.2397C31.3883 50.1907 27.5101 51.1662 23.1957 51.1662C18.8654 51.1662 14.9793 50.1828 11.5373 48.2159C8.09529 46.2491 5.375 43.4019 3.37642 39.6744C1.37784 35.931 0.378551 31.4183 0.378551 26.1364C0.378551 20.8227 1.37784 16.3021 3.37642 12.5746C5.375 8.84706 8.09529 6.00781 11.5373 4.05682C14.9793 2.08996 18.8654 1.10653 23.1957 1.10653C27.5101 1.10653 31.3883 2.08996 34.8303 4.05682C38.2723 6.00781 40.9925 8.84706 42.9911 12.5746C45.0056 16.3021 46.0128 20.8227 46.0128 26.1364ZM35.5678 26.1364C35.5678 20.9654 34.4416 17.0238 32.1893 14.3114C29.9369 11.5832 26.939 10.2191 23.1957 10.2191C19.4523 10.2191 16.4544 11.5832 14.2021 14.3114C11.9497 17.0238 10.8235 20.9654 10.8235 26.1364C10.8235 31.2914 11.9497 35.2331 14.2021 37.9613C16.4544 40.6895 19.4523 42.0536 23.1957 42.0536C26.939 42.0536 29.9369 40.6895 32.1893 37.9613C34.4416 35.2331 35.5678 31.2914 35.5678 26.1364ZM83.8371 0.535508L86.9301 7.14986C85.8991 8.00639 84.7571 8.64086 83.504 9.05326C82.2509 9.44981 80.7599 9.71153 79.031 9.83842C77.3021 9.96532 75.1845 10.0526 72.6784 10.1001C68.4433 10.1477 65.3661 11.1629 63.4468 13.1456C61.5276 15.1283 60.3538 18.3641 59.9255 22.853H60.2824C61.3769 20.6165 62.9155 18.8875 64.8982 17.6662C66.8968 16.4448 69.3633 15.8342 72.2977 15.8342C75.4066 15.8342 78.1269 16.5162 80.4585 17.8803C82.8061 19.2444 84.6302 21.2034 85.9308 23.7571C87.2315 26.3108 87.8818 29.3722 87.8818 32.9411C87.8818 36.6686 87.1601 39.8964 85.7167 42.6246C84.2733 45.3529 82.2113 47.4704 79.5306 48.9773C76.8659 50.4683 73.6935 51.2138 70.0136 51.2138C64.4778 51.2138 60.1079 49.4769 56.9039 46.0032C53.6998 42.5136 52.0977 37.4537 52.0977 30.8235V27.8256C52.0977 19.0224 53.8108 12.4953 57.2369 8.24432C60.6631 3.99337 65.6992 1.83617 72.3453 1.77273C72.8687 1.77273 73.3763 1.77273 73.868 1.77273C74.3597 1.77273 74.8356 1.77273 75.2955 1.77273C77.2465 1.77273 78.9358 1.72514 80.3634 1.62997C81.7909 1.51894 82.9488 1.15412 83.8371 0.535508ZM70.0612 43.3622C72.377 43.3622 74.209 42.466 75.5573 40.6737C76.9055 38.8654 77.5796 36.3989 77.5796 33.2741C77.5796 30.1494 76.9055 27.7463 75.5573 26.065C74.209 24.3678 72.3611 23.5192 70.0136 23.5192C67.666 23.5192 65.8182 24.3678 64.4699 26.065C63.1217 27.7463 62.4317 30.1494 62.3999 33.2741C62.3999 36.383 63.0741 38.8416 64.4223 40.6499C65.7864 42.4581 67.666 43.3622 70.0612 43.3622ZM94.6092 64.2045V13.9545H104.602V20.093H105.054C105.514 19.0937 106.164 18.0865 107.005 17.0714C107.846 16.0562 108.956 15.2076 110.336 14.5256C111.716 13.8277 113.421 13.4787 115.452 13.4787C118.132 13.4787 120.591 14.1766 122.827 15.5724C125.064 16.9524 126.856 19.0382 128.204 21.8299C129.568 24.6057 130.251 28.0874 130.251 32.2749C130.251 36.3513 129.592 39.7933 128.276 42.6009C126.959 45.3925 125.183 47.5101 122.946 48.9535C120.71 50.381 118.204 51.0948 115.428 51.0948C113.461 51.0948 111.787 50.7696 110.407 50.1193C109.043 49.469 107.925 48.6521 107.053 47.6687C106.196 46.6694 105.53 45.6622 105.054 44.647H104.745V64.2045H94.6092ZM104.531 32.2273C104.531 35.4789 105.197 38.0961 106.529 40.0788C107.878 42.0457 109.773 43.0291 112.216 43.0291C114.706 43.0291 116.609 42.0298 117.926 40.0312C119.242 38.0168 119.901 35.4155 119.901 32.2273C119.901 29.0549 119.242 26.4853 117.926 24.5185C116.625 22.5357 114.722 21.5444 112.216 21.5444C109.757 21.5444 107.862 22.512 106.529 24.4471C105.197 26.3664 104.531 28.9598 104.531 32.2273ZM147.429 51.19C143.939 51.19 141.044 50.2779 138.744 48.4538C136.445 46.6297 135.295 43.9094 135.295 40.293C135.295 37.5647 135.937 35.4234 137.222 33.869C138.507 32.3145 140.188 31.1804 142.266 30.4666C144.36 29.737 146.612 29.2611 149.023 29.0391C152.195 28.7218 154.463 28.3887 155.828 28.0398C157.192 27.6908 157.874 26.9295 157.874 25.7557V25.6129C157.874 24.1061 157.398 22.9402 156.446 22.1154C155.51 21.2906 154.178 20.8782 152.449 20.8782C150.625 20.8782 149.174 21.2747 148.095 22.0678C147.016 22.8609 146.303 23.8681 145.954 25.0895L136.579 24.3281C137.277 20.9972 139.006 18.3562 141.766 16.4052C144.542 14.4542 148.119 13.4787 152.497 13.4787C155.209 13.4787 157.747 13.907 160.11 14.7635C162.474 15.62 164.377 16.9603 165.82 18.7844C167.28 20.5927 168.009 22.9482 168.009 25.8509V50.5H158.397V45.4322H158.112C157.223 47.1294 155.891 48.5173 154.115 49.5959C152.354 50.6586 150.125 51.19 147.429 51.19ZM150.331 44.195C152.552 44.195 154.376 43.5526 155.804 42.2678C157.231 40.9671 157.945 39.3571 157.945 37.4379V33.5597C157.549 33.8293 156.93 34.0672 156.089 34.2734C155.265 34.4796 154.376 34.662 153.425 34.8207C152.489 34.9634 151.648 35.0903 150.903 35.2013C149.126 35.4551 147.691 35.9548 146.596 36.7003C145.517 37.4458 144.978 38.5323 144.978 39.9599C144.978 41.3557 145.478 42.4105 146.477 43.1243C147.492 43.8381 148.777 44.195 150.331 44.195ZM173.993 40.1502H183.82C183.867 41.3557 184.406 42.3074 185.438 43.0053C186.469 43.7032 187.801 44.0522 189.435 44.0522C191.084 44.0522 192.472 43.6715 193.598 42.9102C194.725 42.1329 195.288 41.0226 195.288 39.5792C195.288 38.2627 194.804 37.192 193.836 36.3672C192.869 35.5424 191.592 35.13 190.006 35.13H184.748V28.4918H190.006C191.576 28.4918 192.781 28.1349 193.622 27.4212C194.479 26.6915 194.907 25.7715 194.907 24.6612C194.907 23.4399 194.471 22.4485 193.598 21.6871C192.726 20.9258 191.536 20.5451 190.029 20.5451C188.523 20.5451 187.27 20.8861 186.27 21.5682C185.287 22.2344 184.779 23.1068 184.748 24.1854H174.969C175 21.9964 175.659 20.101 176.944 18.4989C178.244 16.8969 179.989 15.6597 182.178 14.7873C184.383 13.9149 186.849 13.4787 189.577 13.4787C194.05 13.4787 197.58 14.3987 200.165 16.2386C202.751 18.0786 204.043 20.5927 204.043 23.7809C204.043 25.716 203.401 27.3339 202.116 28.6346C200.847 29.9353 199.079 30.8632 196.81 31.4183V31.799C199.047 31.9418 200.958 32.7666 202.544 34.2734C204.131 35.7803 204.924 37.8106 204.924 40.3643C204.924 42.6326 204.257 44.5756 202.925 46.1935C201.609 47.8114 199.784 49.0566 197.453 49.929C195.137 50.7855 192.48 51.2138 189.482 51.2138C186.564 51.2138 183.946 50.7855 181.631 49.929C179.331 49.0724 177.507 47.8273 176.158 46.1935C174.81 44.5439 174.088 42.5295 173.993 40.1502ZM227.652 51.2138C223.956 51.2138 220.76 50.4286 218.063 48.8583C215.382 47.2721 213.313 45.0674 211.853 42.244C210.394 39.4047 209.664 36.1134 209.664 32.37C209.664 28.5949 210.394 25.2957 211.853 22.4723C213.313 19.633 215.382 17.4283 218.063 15.858C220.76 14.2718 223.956 13.4787 227.652 13.4787C231.347 13.4787 234.536 14.2718 237.216 15.858C239.913 17.4283 241.991 19.633 243.45 22.4723C244.909 25.2957 245.639 28.5949 245.639 32.37C245.639 36.1134 244.909 39.4047 243.45 42.244C241.991 45.0674 239.913 47.2721 237.216 48.8583C234.536 50.4286 231.347 51.2138 227.652 51.2138ZM227.699 43.3622C230.205 43.3622 232.101 42.3153 233.386 40.2216C234.686 38.1278 235.337 35.4869 235.337 32.2987C235.337 29.1104 234.686 26.4695 233.386 24.3757C232.101 22.2661 230.205 21.2113 227.699 21.2113C225.145 21.2113 223.218 22.2661 221.918 24.3757C220.617 26.4695 219.967 29.1104 219.967 32.2987C219.967 35.4869 220.617 38.1278 221.918 40.2216C223.218 42.3153 225.145 43.3622 227.699 43.3622ZM252.229 50.5V13.9545H267.813C272.318 13.9545 275.879 14.8111 278.496 16.5241C281.114 18.2214 282.422 20.6561 282.422 23.8285C282.422 25.7953 281.685 27.445 280.209 28.7773C278.734 30.0939 276.688 30.9821 274.071 31.4421C277.354 31.68 279.9 32.6555 281.708 34.3686C283.532 36.0658 284.445 38.1199 284.445 40.5309C284.445 43.6398 283.215 46.0825 280.757 47.859C278.298 49.6197 274.785 50.5 270.217 50.5H252.229ZM261.675 42.9102H270.217C271.628 42.9102 272.731 42.5771 273.524 41.9109C274.333 41.2288 274.737 40.3009 274.737 39.1271C274.737 37.8265 274.333 36.8034 273.524 36.0579C272.731 35.3124 271.628 34.9396 270.217 34.9396H261.675V42.9102ZM261.675 28.9915H268.028C269.534 28.9915 270.716 28.6663 271.573 28.016C272.445 27.3656 272.881 26.4615 272.881 25.3036C272.881 24.1774 272.429 23.2971 271.525 22.6626C270.621 22.0282 269.384 21.7109 267.813 21.7109H261.675V28.9915ZM301.254 51.19C297.764 51.19 294.87 50.2779 292.57 48.4538C290.27 46.6297 289.12 43.9094 289.12 40.293C289.12 37.5647 289.762 35.4234 291.047 33.869C292.332 32.3145 294.013 31.1804 296.091 30.4666C298.185 29.737 300.437 29.2611 302.848 29.0391C306.02 28.7218 308.289 28.3887 309.653 28.0398C311.017 27.6908 311.699 26.9295 311.699 25.7557V25.6129C311.699 24.1061 311.223 22.9402 310.271 22.1154C309.336 21.2906 308.003 20.8782 306.274 20.8782C304.45 20.8782 302.999 21.2747 301.92 22.0678C300.842 22.8609 300.128 23.8681 299.779 25.0895L290.405 24.3281C291.102 20.9972 292.831 18.3562 295.591 16.4052C298.367 14.4542 301.944 13.4787 306.322 13.4787C309.034 13.4787 311.572 13.907 313.935 14.7635C316.299 15.62 318.202 16.9603 319.646 18.7844C321.105 20.5927 321.835 22.9482 321.835 25.8509V50.5H312.222V45.4322H311.937C311.049 47.1294 309.716 48.5173 307.94 49.5959C306.179 50.6586 303.95 51.19 301.254 51.19ZM304.157 44.195C306.377 44.195 308.201 43.5526 309.629 42.2678C311.057 40.9671 311.77 39.3571 311.77 37.4379V33.5597C311.374 33.8293 310.755 34.0672 309.915 34.2734C309.09 34.4796 308.201 34.662 307.25 34.8207C306.314 34.9634 305.473 35.0903 304.728 35.2013C302.951 35.4551 301.516 35.9548 300.421 36.7003C299.343 37.4458 298.803 38.5323 298.803 39.9599C298.803 41.3557 299.303 42.4105 300.302 43.1243C301.317 43.8381 302.602 44.195 304.157 44.195ZM326.093 21.9251V13.9545H359.213V21.9251H347.435V50.5H337.776V21.9251H326.093ZM380.703 51.2138C376.96 51.2138 373.732 50.4524 371.02 48.9297C368.308 47.3911 366.222 45.218 364.762 42.4105C363.303 39.5871 362.574 36.2482 362.574 32.3938C362.574 28.6346 363.303 25.3353 364.762 22.4961C366.222 19.6568 368.276 17.4441 370.925 15.858C373.589 14.2718 376.714 13.4787 380.299 13.4787C383.519 13.4787 386.422 14.1607 389.007 15.5249C391.608 16.889 393.67 18.951 395.193 21.7109C396.716 24.455 397.477 27.897 397.477 32.0369V34.8207H372.59V34.8445C372.59 37.5727 373.336 39.7219 374.827 41.2923C376.318 42.8626 378.332 43.6477 380.87 43.6477C382.567 43.6477 384.034 43.2908 385.272 42.5771C386.509 41.8633 387.381 40.8085 387.889 39.4126L397.263 40.0312C396.549 43.4257 394.741 46.138 391.838 48.1683C388.936 50.1986 385.224 51.2138 380.703 51.2138ZM372.59 28.5394H387.936C387.921 26.3664 387.223 24.574 385.843 23.1623C384.463 21.7506 382.67 21.0447 380.466 21.0447C378.213 21.0447 376.365 21.7744 374.922 23.2337C373.478 24.6929 372.701 26.4615 372.59 28.5394ZM401.95 50.5L401.903 42.4581H403.116C404.845 42.4581 406.106 41.5619 406.899 39.7695C407.692 37.9772 408.176 34.7652 408.35 30.1335L408.945 13.9545H436.735V50.5H427.075V21.9251H418.058L417.487 33.0838C417.185 39.2223 415.996 43.6636 413.918 46.4077C411.856 49.1359 408.882 50.5 404.996 50.5H401.95ZM454.276 25.1847H461.866C466.704 25.1847 470.471 26.3426 473.168 28.6584C475.88 30.9742 477.244 34.0514 477.26 37.8899C477.244 41.665 475.88 44.7105 473.168 47.0263C470.471 49.3421 466.704 50.5 461.866 50.5H444.593V13.9545H454.276V25.1847ZM454.276 33.1552V42.5295H461.866C463.563 42.5295 464.959 42.1012 466.054 41.2447C467.148 40.3881 467.703 39.2937 467.719 37.9613C467.703 36.5496 467.148 35.3996 466.054 34.5114C464.959 33.6072 463.563 33.1552 461.866 33.1552H454.276ZM493.665 13.9545V28.1825H506.156V13.9545H515.768V50.5H506.156V36.1531H493.665V50.5H483.981V13.9545H493.665ZM533.315 25.1847H540.905C545.743 25.1847 549.51 26.3426 552.207 28.6584C554.919 30.9742 556.283 34.0514 556.299 37.8899C556.283 41.665 554.919 44.7105 552.207 47.0263C549.51 49.3421 545.743 50.5 540.905 50.5H523.632V13.9545H533.315V25.1847ZM533.315 33.1552V42.5295H540.905C542.602 42.5295 543.998 42.1012 545.093 41.2447C546.187 40.3881 546.742 39.2937 546.758 37.9613C546.742 36.5496 546.187 35.3996 545.093 34.5114C543.998 33.6072 542.602 33.1552 540.905 33.1552H533.315ZM560.225 50.5V13.9545H570.36V50.5H560.225ZM588.145 37.1286L601.303 13.9545H611.296V50.5H601.636V27.2546L588.526 50.5H578.462V13.9545H588.145V37.1286ZM599.566 1.2017H606.632C606.616 4.07268 605.546 6.39642 603.42 8.17294C601.311 9.93359 598.455 10.8139 594.855 10.8139C591.254 10.8139 588.391 9.93359 586.266 8.17294C584.156 6.39642 583.101 4.07268 583.101 1.2017H590.12C590.104 2.29616 590.453 3.27959 591.167 4.15199C591.897 5.02438 593.126 5.46058 594.855 5.46058C596.552 5.46058 597.758 5.03231 598.471 4.17578C599.201 3.30339 599.566 2.31203 599.566 1.2017ZM1.04474 118.5V81.9545H11.1804V96.1349H14.0355L23.9808 81.9545H35.8771L22.9577 100.085L36.0199 118.5H23.9808L14.9634 105.533H11.1804V118.5H1.04474ZM55.3097 119.214C51.614 119.214 48.4178 118.429 45.7213 116.858C43.0407 115.272 40.9707 113.067 39.5115 110.244C38.0522 107.405 37.3225 104.113 37.3225 100.37C37.3225 96.5949 38.0522 93.2957 39.5115 90.4723C40.9707 87.633 43.0407 85.4283 45.7213 83.858C48.4178 82.2718 51.614 81.4787 55.3097 81.4787C59.0055 81.4787 62.1937 82.2718 64.8744 83.858C67.5709 85.4283 69.6488 87.633 71.108 90.4723C72.5673 93.2957 73.297 96.5949 73.297 100.37C73.297 104.113 72.5673 107.405 71.108 110.244C69.6488 113.067 67.5709 115.272 64.8744 116.858C62.1937 118.429 59.0055 119.214 55.3097 119.214ZM55.3573 111.362C57.8635 111.362 59.759 110.315 61.0438 108.222C62.3444 106.128 62.9948 103.487 62.9948 100.299C62.9948 97.1104 62.3444 94.4695 61.0438 92.3757C59.759 90.2661 57.8635 89.2113 55.3573 89.2113C52.8036 89.2113 50.8764 90.2661 49.5757 92.3757C48.2751 94.4695 47.6247 97.1104 47.6247 100.299C47.6247 103.487 48.2751 106.128 49.5757 108.222C50.8764 110.315 52.8036 111.362 55.3573 111.362ZM101.491 107.294L111.389 81.9545H123.476V118.5H113.911V95.2546L104.846 118.5H98.1127L89.5711 96.0636V118.5H79.8875V81.9545H91.879L101.491 107.294ZM131.315 118.5V81.9545H163.269V118.5H153.585V89.9251H140.88V118.5H131.315ZM169.217 118.5L169.169 110.458H170.383C172.112 110.458 173.373 109.562 174.166 107.77C174.959 105.977 175.443 102.765 175.617 98.1335L176.212 81.9545H204.002V118.5H194.342V89.9251H185.324L184.753 101.084C184.452 107.222 183.262 111.664 181.185 114.408C179.123 117.136 176.148 118.5 172.262 118.5H169.217ZM228.514 119.214C224.771 119.214 221.543 118.452 218.83 116.93C216.118 115.391 214.032 113.218 212.573 110.411C211.114 107.587 210.384 104.248 210.384 100.394C210.384 96.6346 211.114 93.3353 212.573 90.4961C214.032 87.6568 216.086 85.4441 218.735 83.858C221.4 82.2718 224.525 81.4787 228.11 81.4787C231.329 81.4787 234.232 82.1607 236.818 83.5249C239.419 84.889 241.481 86.951 243.004 89.7109C244.526 92.455 245.288 95.897 245.288 100.037V102.821H220.401V102.844C220.401 105.573 221.146 107.722 222.637 109.292C224.128 110.863 226.143 111.648 228.681 111.648C230.378 111.648 231.845 111.291 233.082 110.577C234.319 109.863 235.192 108.808 235.699 107.413L245.074 108.031C244.36 111.426 242.552 114.138 239.649 116.168C236.746 118.199 233.035 119.214 228.514 119.214ZM220.401 96.5394H235.747C235.731 94.3664 235.033 92.574 233.653 91.1623C232.273 89.7506 230.481 89.0447 228.276 89.0447C226.024 89.0447 224.176 89.7744 222.732 91.2337C221.289 92.6929 220.512 94.4615 220.401 96.5394ZM251.902 118.5V81.9545H262.038V96.1349H264.893L274.838 81.9545H286.735L273.815 100.085L286.877 118.5H274.838L265.821 105.533H262.038V118.5H251.902ZM306.167 119.214C302.424 119.214 299.204 118.421 296.507 116.835C293.827 115.232 291.765 113.012 290.321 110.173C288.894 107.333 288.18 104.066 288.18 100.37C288.18 96.6267 288.902 93.3433 290.345 90.5199C291.804 87.6806 293.874 85.4679 296.555 83.8817C299.236 82.2797 302.424 81.4787 306.12 81.4787C309.308 81.4787 312.099 82.0576 314.495 83.2156C316.906 84.3735 318.801 85.9993 320.181 88.093C321.577 90.1868 322.346 92.6454 322.489 95.4688H312.924C312.655 93.6446 311.941 92.1774 310.783 91.0671C309.641 89.9409 308.142 89.3778 306.286 89.3778C303.939 89.3778 302.051 90.3216 300.623 92.2092C299.196 94.0967 298.482 96.7694 298.482 100.227C298.482 103.717 299.188 106.421 300.6 108.341C302.027 110.244 303.923 111.196 306.286 111.196C308.031 111.196 309.498 110.672 310.688 109.625C311.877 108.563 312.623 107.056 312.924 105.105H322.489C322.33 107.896 321.569 110.355 320.205 112.48C318.857 114.606 316.993 116.263 314.614 117.453C312.234 118.627 309.419 119.214 306.167 119.214Z" fill="url(#paint0_linear)"/>
<defs>
<linearGradient id="paint0_linear" x1="-25.6429" y1="46.117" x2="655.907" y2="46.117" gradientUnits="userSpaceOnUse">
<stop stop-color="#B9D4E4"/>
<stop offset="1" stop-color="#B9D4E4"/>
</linearGradient>
</defs>
</svg>
