<svg width="324" height="51" viewBox="0 0 324 51" fill="none" xmlns="http://www.w3.org/2000/svg">
<path opacity="0.2" d="M0.258878 1.27273V50H9.15732L30.3565 19.3313H30.7134V50H41.0156V1.27273H31.9744L10.9418 31.9176H10.5135V1.27273H0.258878ZM92.4969 18.332C91.1407 7.07812 82.623 0.606532 71.3453 0.606532C58.4735 0.606532 48.6471 9.69531 48.6471 25.6364C48.6471 41.5298 58.3069 50.6662 71.3453 50.6662C83.8364 50.6662 91.3786 42.3626 92.4969 33.3928L82.0757 33.3452C81.1002 38.5558 77.0079 41.5536 71.5118 41.5536C64.1123 41.5536 59.0921 36.0575 59.0921 25.6364C59.0921 15.5007 64.0409 9.71911 71.5832 9.71911C77.222 9.71911 81.2906 12.9787 82.0757 18.332H92.4969ZM98.0287 9.76669H112.947V50H123.13V9.76669H138.048V1.27273H98.0287V9.76669ZM187.257 25.6364C187.257 9.69531 177.359 0.606532 164.44 0.606532C151.449 0.606532 141.623 9.69531 141.623 25.6364C141.623 41.506 151.449 50.6662 164.44 50.6662C177.359 50.6662 187.257 41.5774 187.257 25.6364ZM176.812 25.6364C176.812 35.9624 171.911 41.5536 164.44 41.5536C156.945 41.5536 152.068 35.9624 152.068 25.6364C152.068 15.3104 156.945 9.71911 164.44 9.71911C171.911 9.71911 176.812 15.3104 176.812 25.6364ZM194.888 50H205.191V34.2017H213.851C225.057 34.2017 231.577 27.516 231.577 17.7848C231.577 8.10121 225.176 1.27273 214.113 1.27273H194.888V50ZM205.191 25.9457V9.69531H212.138C218.086 9.69531 220.965 12.9311 220.965 17.7848C220.965 22.6147 218.086 25.9457 212.186 25.9457H205.191ZM238.292 1.27273V50H247.191L268.39 19.3313H268.747V50H279.049V1.27273H270.008L248.975 31.9176H248.547V1.27273H238.292ZM323.035 50V1.27273H303.811C292.747 1.27273 286.347 7.50639 286.347 17.19C286.347 23.8519 289.416 28.6818 294.96 31.0611L284.61 50H295.983L305.215 32.7266H312.733V50H323.035ZM312.733 24.4467H305.738C299.838 24.4467 296.959 22.0199 296.959 17.19C296.959 12.3363 299.838 9.69531 305.786 9.69531H312.733V24.4467Z" fill="url(#paint0_linear)"/>
<defs>
<linearGradient id="paint0_linear" x1="-26.6429" y1="45.617" x2="654.907" y2="45.617" gradientUnits="userSpaceOnUse">
<stop stop-color="#B9D4E4"/>
<stop offset="1" stop-color="#B9D4E4"/>
</linearGradient>
</defs>
</svg>
