<svg width="28" height="20" viewBox="0 0 28 20" fill="none" xmlns="http://www.w3.org/2000/svg">
<path d="M14 0.133301C20.9329 0.133301 27.8666 5.78299 27.8666 9.99997C27.8666 14.2169 20.9329 19.8666 14 19.8666C7.06701 19.8666 0.133301 14.2169 0.133301 9.99997C0.133301 5.78299 7.06701 0.133301 14 0.133301ZM14 2.5333C8.29656 2.5333 2.5333 7.22929 2.5333 9.99997C2.5333 12.7706 8.29656 17.4666 14 17.4666C19.7034 17.4666 25.4666 12.7706 25.4666 9.99997C25.4666 7.22929 19.7034 2.5333 14 2.5333ZM14 5.46663C16.5037 5.46663 18.5333 7.49628 18.5333 9.99997C18.5333 12.5037 16.5037 14.5333 14 14.5333C11.4963 14.5333 9.46664 12.5037 9.46664 9.99997C9.46664 7.49628 11.4963 5.46663 14 5.46663ZM14 7.86663C12.8218 7.86663 11.8666 8.82176 11.8666 9.99997C11.8666 11.1782 12.8218 12.1333 14 12.1333C15.1782 12.1333 16.1333 11.1782 16.1333 9.99997C16.1333 8.82176 15.1782 7.86663 14 7.86663Z" fill="white"/>
</svg>
