<svg width="437" height="233" viewBox="0 0 437 233" fill="none" xmlns="http://www.w3.org/2000/svg">
<path opacity="0.2" d="M1.95922 35V0.952394H15.5916C19.3488 0.952394 22.1694 1.77255 24.0536 3.41287C25.9488 5.0421 26.8964 7.13128 26.8964 9.68042C26.8964 11.6865 26.3146 13.3102 25.1508 14.5515C23.9871 15.7817 22.5186 16.5963 20.7452 16.9953V17.3278C22.042 17.3832 23.2556 17.749 24.3861 18.4251C25.5277 19.1011 26.4531 20.0432 27.1624 21.2513C27.8717 22.4594 28.2264 23.9057 28.2264 25.5904C28.2264 27.3969 27.7775 29.0095 26.8798 30.4282C25.9931 31.8468 24.6798 32.9662 22.9397 33.7864C21.1997 34.5955 19.0551 35 16.5059 35H1.95922ZM9.15776 29.1148H15.0263C17.0435 29.1148 18.5064 28.7269 19.4153 27.9511C20.3352 27.1753 20.7951 26.1501 20.7951 24.8755C20.7951 23.4679 20.2908 22.3153 19.2823 21.4175C18.2848 20.5198 16.9215 20.0709 15.1926 20.0709H9.15776V29.1148ZM9.15776 15.1999H14.4943C15.9684 15.1999 17.1931 14.8175 18.1684 14.0527C19.1437 13.2769 19.6314 12.2185 19.6314 10.8774C19.6314 9.64717 19.1936 8.65522 18.318 7.90156C17.4535 7.14791 16.2233 6.77108 14.6273 6.77108H9.15776V15.1999ZM50.379 25.6569L59.5725 9.4643H66.5549V35H59.8052V18.7576L50.645 35H43.6127V9.4643H50.379V25.6569ZM78.9986 9.4643V19.4059H87.7266V9.4643H94.443V35H87.7266V24.9752H78.9986V35H72.2323V9.4643H78.9986ZM112.157 43.6781V35.4987C109.552 35.4987 107.252 34.9446 105.257 33.8363C103.274 32.7169 101.716 31.1708 100.586 29.1979C99.4665 27.214 98.9068 24.9254 98.9068 22.3319C98.9068 19.7163 99.4665 17.422 100.586 15.4492C101.716 13.4653 103.274 11.9192 105.257 10.8109C107.252 9.6915 109.552 9.1318 112.157 9.1318V0.952394H119.222V9.1318C121.827 9.1318 124.121 9.6915 126.105 10.8109C128.1 11.9192 129.657 13.4653 130.777 15.4492C131.907 17.422 132.472 19.7163 132.472 22.3319C132.472 24.9254 131.907 27.214 130.777 29.1979C129.657 31.1708 128.1 32.7169 126.105 33.8363C124.121 34.9446 121.827 35.4987 119.222 35.4987V43.6781H112.157ZM119.222 29.9793C120.497 29.9793 121.577 29.6413 122.464 28.9652C123.351 28.278 124.027 27.3581 124.492 26.2055C124.969 25.0417 125.207 23.7505 125.207 22.3319C125.207 20.9022 124.969 19.611 124.492 18.4583C124.027 17.2946 123.351 16.3691 122.464 15.682C121.577 14.9948 120.497 14.6512 119.222 14.6512V29.9793ZM112.157 29.9793V14.6512C110.893 14.6512 109.813 14.9948 108.915 15.682C108.028 16.3691 107.352 17.2946 106.887 18.4583C106.421 19.611 106.188 20.9022 106.188 22.3319C106.188 23.7505 106.421 25.0417 106.887 26.2055C107.363 27.3581 108.045 28.278 108.932 28.9652C109.829 29.6413 110.904 29.9793 112.157 29.9793ZM137.106 44.5759V9.4643H144.089V13.7535H144.405C144.726 13.0553 145.181 12.3515 145.768 11.6421C146.355 10.9328 147.131 10.3399 148.095 9.86329C149.06 9.37563 150.251 9.1318 151.67 9.1318C153.543 9.1318 155.261 9.61946 156.823 10.5948C158.386 11.559 159.639 13.0165 160.581 14.9671C161.534 16.9067 162.01 19.3394 162.01 22.2654C162.01 25.1138 161.55 27.5188 160.631 29.4806C159.711 31.4312 158.469 32.9108 156.907 33.9194C155.344 34.9169 153.593 35.4156 151.653 35.4156C150.279 35.4156 149.11 35.1884 148.145 34.734C147.192 34.2796 146.411 33.7088 145.801 33.0216C145.203 32.3234 144.737 31.6196 144.405 30.9103H144.189V44.5759H137.106ZM144.039 22.2321C144.039 24.5042 144.504 26.3329 145.435 27.7183C146.378 29.0927 147.702 29.7798 149.409 29.7798C151.149 29.7798 152.479 29.0816 153.399 27.6851C154.319 26.2775 154.779 24.4599 154.779 22.2321C154.779 20.0155 154.319 18.22 153.399 16.8457C152.49 15.4603 151.16 14.7676 149.409 14.7676C147.691 14.7676 146.366 15.4437 145.435 16.7958C144.504 18.1369 144.039 19.949 144.039 22.2321ZM174.013 35.4821C171.575 35.4821 169.553 34.8448 167.945 33.5703C166.338 32.2957 165.535 30.3949 165.535 27.868C165.535 25.9616 165.984 24.4654 166.881 23.3793C167.779 22.2931 168.954 21.5007 170.406 21.0019C171.869 20.4921 173.443 20.1596 175.127 20.0044C177.344 19.7828 178.929 19.55 179.882 19.3062C180.835 19.0624 181.312 18.5304 181.312 17.7102V17.6105C181.312 16.5575 180.979 15.7429 180.314 15.1666C179.66 14.5903 178.729 14.3021 177.521 14.3021C176.247 14.3021 175.233 14.5792 174.479 15.1334C173.725 15.6875 173.227 16.3913 172.983 17.2447L166.433 16.7127C166.92 14.3852 168.128 12.5399 170.057 11.1767C171.996 9.81342 174.496 9.1318 177.555 9.1318C179.45 9.1318 181.223 9.43105 182.875 10.0295C184.526 10.628 185.856 11.5646 186.864 12.8391C187.884 14.1026 188.394 15.7485 188.394 17.7767V35H181.678V31.4589H181.478C180.857 32.6448 179.926 33.6146 178.685 34.3683C177.455 35.1108 175.898 35.4821 174.013 35.4821ZM176.042 30.5944C177.593 30.5944 178.868 30.1456 179.865 29.2478C180.863 28.339 181.362 27.214 181.362 25.873V23.1631C181.085 23.3516 180.652 23.5178 180.065 23.6619C179.489 23.806 178.868 23.9334 178.203 24.0443C177.549 24.144 176.962 24.2327 176.441 24.3102C175.199 24.4876 174.196 24.8367 173.432 25.3576C172.678 25.8785 172.301 26.6377 172.301 27.6352C172.301 28.6105 172.65 29.3476 173.348 29.8463C174.058 30.3451 174.956 30.5944 176.042 30.5944ZM205.426 35.4987C202.81 35.4987 200.561 34.9446 198.676 33.8363C196.803 32.7169 195.363 31.1652 194.354 29.1813C193.356 27.1974 192.858 24.9143 192.858 22.3319C192.858 19.7163 193.362 17.422 194.371 15.4492C195.39 13.4653 196.837 11.9192 198.71 10.8109C200.583 9.6915 202.81 9.1318 205.393 9.1318C207.621 9.1318 209.571 9.53634 211.245 10.3454C212.929 11.1545 214.254 12.2905 215.218 13.7535C216.193 15.2165 216.731 16.9344 216.831 18.9072H210.148C209.959 17.6326 209.46 16.6074 208.651 15.8316C207.853 15.0447 206.806 14.6512 205.509 14.6512C203.869 14.6512 202.55 15.3107 201.552 16.6296C200.555 17.9485 200.056 19.816 200.056 22.2321C200.056 24.6705 200.549 26.5601 201.536 27.9012C202.533 29.2312 203.858 29.8962 205.509 29.8962C206.728 29.8962 207.754 29.5304 208.585 28.7989C209.416 28.0564 209.937 27.0035 210.148 25.6402H216.831C216.72 27.5909 216.188 29.3088 215.235 30.7939C214.293 32.2791 212.99 33.4373 211.328 34.2685C209.665 35.0887 207.698 35.4987 205.426 35.4987ZM219.669 15.0336V9.4643H242.811V15.0336H234.582V35H227.832V15.0336H219.669ZM247.104 44.5759V9.4643H254.087V13.7535H254.403C254.724 13.0553 255.179 12.3515 255.766 11.6421C256.353 10.9328 257.129 10.3399 258.093 9.86329C259.058 9.37563 260.249 9.1318 261.668 9.1318C263.541 9.1318 265.259 9.61946 266.821 10.5948C268.384 11.559 269.637 13.0165 270.579 14.9671C271.532 16.9067 272.008 19.3394 272.008 22.2654C272.008 25.1138 271.548 27.5188 270.629 29.4806C269.709 31.4312 268.467 32.9108 266.905 33.9194C265.342 34.9169 263.591 35.4156 261.651 35.4156C260.277 35.4156 259.108 35.1884 258.143 34.734C257.19 34.2796 256.409 33.7088 255.799 33.0216C255.201 32.3234 254.735 31.6196 254.403 30.9103H254.187V44.5759H247.104ZM254.037 22.2321C254.037 24.5042 254.503 26.3329 255.433 27.7183C256.376 29.0927 257.7 29.7798 259.407 29.7798C261.147 29.7798 262.477 29.0816 263.397 27.6851C264.317 26.2775 264.777 24.4599 264.777 22.2321C264.777 20.0155 264.317 18.22 263.397 16.8457C262.488 15.4603 261.158 14.7676 259.407 14.7676C257.689 14.7676 256.364 15.4437 255.433 16.7958C254.503 18.1369 254.037 19.949 254.037 22.2321ZM280.234 44.526C279.336 44.526 278.493 44.4595 277.707 44.3265C276.931 44.1935 276.288 44.0217 275.778 43.8111L277.374 38.5078C278.626 38.8957 279.679 38.9955 280.533 38.8071C281.397 38.6297 282.079 37.9648 282.578 36.8121L282.993 35.7315L273.833 9.4643H281.281L286.568 28.2171H286.834L292.17 9.4643L299.668 9.49755L289.743 37.7597C289.034 39.799 287.931 41.4338 286.435 42.664C284.938 43.9054 282.871 44.526 280.234 44.526ZM303.292 35V9.4643H310.374V19.3727H312.369L319.318 9.4643H327.631L318.604 22.1324L327.731 35H319.318L313.018 25.9395H310.374V35H303.292ZM329.393 15.0336V9.4643H352.535V15.0336H344.306V35H337.556V15.0336H329.393ZM361.201 44.526C360.303 44.526 359.46 44.4595 358.674 44.3265C357.898 44.1935 357.255 44.0217 356.745 43.8111L358.341 38.5078C359.593 38.8957 360.646 38.9955 361.5 38.8071C362.364 38.6297 363.046 37.9648 363.545 36.8121L363.96 35.7315L354.8 9.4643H362.248L367.535 28.2171H367.801L373.137 9.4643L380.635 9.49755L370.71 37.7597C370.001 39.799 368.898 41.4338 367.402 42.664C365.905 43.9054 363.838 44.526 361.201 44.526ZM384.259 44.5759V9.4643H391.242V13.7535H391.557C391.879 13.0553 392.333 12.3515 392.921 11.6421C393.508 10.9328 394.284 10.3399 395.248 9.86329C396.212 9.37563 397.404 9.1318 398.822 9.1318C400.696 9.1318 402.413 9.61946 403.976 10.5948C405.539 11.559 406.791 13.0165 407.733 14.9671C408.686 16.9067 409.163 19.3394 409.163 22.2654C409.163 25.1138 408.703 27.5188 407.783 29.4806C406.863 31.4312 405.622 32.9108 404.059 33.9194C402.497 34.9169 400.745 35.4156 398.806 35.4156C397.431 35.4156 396.262 35.1884 395.298 34.734C394.345 34.2796 393.563 33.7088 392.954 33.0216C392.355 32.3234 391.89 31.6196 391.557 30.9103H391.341V44.5759H384.259ZM391.192 22.2321C391.192 24.5042 391.657 26.3329 392.588 27.7183C393.53 29.0927 394.855 29.7798 396.561 29.7798C398.302 29.7798 399.632 29.0816 400.551 27.6851C401.471 26.2775 401.931 24.4599 401.931 22.2321C401.931 20.0155 401.471 18.22 400.551 16.8457C399.643 15.4603 398.313 14.7676 396.561 14.7676C394.844 14.7676 393.519 15.4437 392.588 16.7958C391.657 18.1369 391.192 19.949 391.192 22.2321ZM417.388 44.526C416.49 44.526 415.648 44.4595 414.861 44.3265C414.085 44.1935 413.443 44.0217 412.933 43.8111L414.529 38.5078C415.781 38.8957 416.834 38.9955 417.687 38.8071C418.552 38.6297 419.234 37.9648 419.732 36.8121L420.148 35.7315L410.988 9.4643H418.436L423.722 28.2171H423.988L429.325 9.4643L436.823 9.49755L426.898 37.7597C426.188 39.799 425.085 41.4338 423.589 42.664C422.093 43.9054 420.026 44.526 417.388 44.526ZM33.2471 64.9762C33.2471 68.6891 32.5433 71.8478 31.1358 74.4523C29.7393 77.0569 27.8385 79.0463 25.4334 80.4206C23.0284 81.7839 20.3185 82.4655 17.3039 82.4655C14.2782 82.4655 11.5628 81.7783 9.15776 80.404C6.7527 79.0297 4.85193 77.0403 3.45545 74.4357C2.05896 71.8201 1.36072 68.6669 1.36072 64.9762C1.36072 61.2633 2.05896 58.1046 3.45545 55.5001C4.85193 52.8955 6.7527 50.9116 9.15776 49.5484C11.5628 48.1741 14.2782 47.4869 17.3039 47.4869C20.3185 47.4869 23.0284 48.1741 25.4334 49.5484C27.8385 50.9116 29.7393 52.8955 31.1358 55.5001C32.5433 58.1046 33.2471 61.2633 33.2471 64.9762ZM25.9488 64.9762C25.9488 61.3631 25.1619 58.6089 23.5881 56.7137C22.0143 54.8074 19.9195 53.8542 17.3039 53.8542C14.6883 53.8542 12.5936 54.8074 11.0197 56.7137C9.44592 58.6089 8.65901 61.3631 8.65901 64.9762C8.65901 68.5782 9.44592 71.3324 11.0197 73.2387C12.5936 75.145 14.6883 76.0982 17.3039 76.0982C19.9195 76.0982 22.0143 75.145 23.5881 73.2387C25.1619 71.3324 25.9488 68.5782 25.9488 64.9762ZM59.6764 47.0879L61.8376 51.7096C61.1172 52.3081 60.3192 52.7514 59.4436 53.0396C58.5681 53.3167 57.5262 53.4995 56.3182 53.5882C55.1101 53.6769 53.6305 53.7378 51.8794 53.7711C48.9201 53.8043 46.77 54.5137 45.4289 55.8991C44.0879 57.2845 43.2677 59.5454 42.9685 62.682H43.2178C43.9826 61.1192 45.0576 59.9112 46.443 59.0578C47.8395 58.2044 49.563 57.7777 51.6134 57.7777C53.7857 57.7777 55.6864 58.2542 57.3157 59.2074C58.956 60.1605 60.2305 61.5293 61.1394 63.3137C62.0482 65.0981 62.5026 67.2372 62.5026 69.7309C62.5026 72.3354 61.9983 74.5909 60.9897 76.4972C59.9812 78.4035 58.5404 79.8831 56.6673 80.936C54.8053 81.9778 52.5887 82.4987 50.0174 82.4987C46.1493 82.4987 43.0959 81.2851 40.8571 78.8579C38.6183 76.4196 37.4989 72.8841 37.4989 68.2513V66.1566C37.4989 60.0054 38.6959 55.4446 41.0899 52.4743C43.4838 49.504 47.0027 47.9967 51.6466 47.9524C52.0124 47.9524 52.367 47.9524 52.7106 47.9524C53.0542 47.9524 53.3867 47.9524 53.7081 47.9524C55.0713 47.9524 56.2517 47.9191 57.2492 47.8526C58.2467 47.7751 59.0557 47.5201 59.6764 47.0879ZM50.0506 77.0126C51.6688 77.0126 52.9489 76.3864 53.891 75.134C54.833 73.8705 55.3041 72.147 55.3041 69.9636C55.3041 67.7802 54.833 66.1011 53.891 64.9263C52.9489 63.7404 51.6577 63.1475 50.0174 63.1475C48.3771 63.1475 47.0859 63.7404 46.1438 64.9263C45.2017 66.1011 44.7196 67.7802 44.6974 69.9636C44.6974 72.1359 45.1685 73.8538 46.1105 75.1173C47.0637 76.3808 48.3771 77.0126 50.0506 77.0126ZM67.2033 91.5759V56.4643H74.1857V60.7535H74.5016C74.823 60.0553 75.2774 59.3515 75.8648 58.6421C76.4522 57.9328 77.228 57.3399 78.1923 56.8633C79.1565 56.3756 80.348 56.1318 81.7666 56.1318C83.6397 56.1318 85.3576 56.6195 86.9203 57.5948C88.483 58.559 89.7354 60.0165 90.6775 61.9671C91.6307 63.9067 92.1072 66.3394 92.1072 69.2654C92.1072 72.1138 91.6473 74.5188 90.7274 76.4806C89.8075 78.4312 88.5661 79.9108 87.0034 80.9194C85.4407 81.9169 83.6895 82.4156 81.75 82.4156C80.3757 82.4156 79.2064 82.1884 78.2421 81.734C77.289 81.2796 76.5076 80.7088 75.898 80.0216C75.2996 79.3234 74.8341 78.6196 74.5016 77.9103H74.2854V91.5759H67.2033ZM74.1358 69.2321C74.1358 71.5042 74.6013 73.3329 75.5323 74.7183C76.4744 76.0927 77.7988 76.7798 79.5056 76.7798C81.2457 76.7798 82.5757 76.0816 83.4956 74.6851C84.4155 73.2775 84.8754 71.4599 84.8754 69.2321C84.8754 67.0155 84.4155 65.22 83.4956 63.8457C82.5868 62.4603 81.2568 61.7676 79.5056 61.7676C77.7877 61.7676 76.4633 62.4437 75.5323 63.7958C74.6013 65.1369 74.1358 66.949 74.1358 69.2321ZM104.11 82.4821C101.672 82.4821 99.6493 81.8448 98.0423 80.5703C96.4352 79.2957 95.6317 77.3949 95.6317 74.868C95.6317 72.9616 96.0806 71.4654 96.9783 70.3793C97.876 69.2931 99.0509 68.5007 100.503 68.0019C101.966 67.4921 103.54 67.1596 105.224 67.0044C107.441 66.7828 109.026 66.55 109.979 66.3062C110.932 66.0624 111.409 65.5304 111.409 64.7102V64.6105C111.409 63.5575 111.076 62.7429 110.411 62.1666C109.757 61.5903 108.826 61.3021 107.618 61.3021C106.344 61.3021 105.329 61.5792 104.576 62.1334C103.822 62.6875 103.323 63.3913 103.08 64.2447L96.5294 63.7127C97.0171 61.3852 98.2252 59.5399 100.154 58.1767C102.093 56.8134 104.592 56.1318 107.651 56.1318C109.547 56.1318 111.32 56.431 112.971 57.0295C114.623 57.628 115.953 58.5646 116.961 59.8391C117.981 61.1026 118.491 62.7485 118.491 64.7767V82H111.774V78.4589H111.575C110.954 79.6448 110.023 80.6146 108.782 81.3683C107.552 82.1108 105.994 82.4821 104.11 82.4821ZM106.139 77.5944C107.69 77.5944 108.965 77.1456 109.962 76.2478C110.96 75.339 111.459 74.214 111.459 72.873V70.1631C111.181 70.3516 110.749 70.5178 110.162 70.6619C109.585 70.806 108.965 70.9334 108.3 71.0443C107.646 71.144 107.058 71.2327 106.538 71.3102C105.296 71.4876 104.293 71.8367 103.528 72.3576C102.775 72.8785 102.398 73.6377 102.398 74.6352C102.398 75.6105 102.747 76.3476 103.445 76.8463C104.155 77.3451 105.052 77.5944 106.139 77.5944ZM122.672 74.7682H129.538C129.571 75.6105 129.948 76.2755 130.668 76.7632C131.389 77.2508 132.32 77.4947 133.461 77.4947C134.614 77.4947 135.584 77.2287 136.371 76.6967C137.158 76.1536 137.551 75.3778 137.551 74.3692C137.551 73.4493 137.213 72.7012 136.537 72.1249C135.861 71.5485 134.969 71.2604 133.86 71.2604H130.186V66.6221H133.86C134.958 66.6221 135.8 66.3727 136.387 65.8739C136.986 65.3641 137.285 64.7213 137.285 63.9455C137.285 63.0921 136.98 62.3994 136.371 61.8674C135.761 61.3354 134.93 61.0694 133.877 61.0694C132.824 61.0694 131.949 61.3077 131.25 61.7842C130.563 62.2497 130.209 62.8593 130.186 63.613H123.354C123.376 62.0835 123.836 60.759 124.733 59.6396C125.642 58.5202 126.861 57.6557 128.391 57.0462C129.931 56.4366 131.655 56.1318 133.561 56.1318C136.687 56.1318 139.153 56.7746 140.959 58.0603C142.766 59.3459 143.669 61.1026 143.669 63.3303C143.669 64.6825 143.22 65.813 142.322 66.7218C141.436 67.6306 140.2 68.279 138.615 68.6669V68.9329C140.178 69.0327 141.513 69.609 142.622 70.6619C143.73 71.7148 144.284 73.1334 144.284 74.9178C144.284 76.5027 143.819 77.8604 142.888 78.9909C141.968 80.1214 140.693 80.9914 139.064 81.601C137.446 82.1995 135.589 82.4987 133.495 82.4987C131.455 82.4987 129.627 82.1995 128.009 81.601C126.401 81.0025 125.127 80.1325 124.185 78.9909C123.243 77.8383 122.738 76.4307 122.672 74.7682ZM160.165 82.4987C157.583 82.4987 155.349 81.9501 153.465 80.8529C151.592 79.7446 150.146 78.204 149.126 76.2312C148.107 74.2473 147.597 71.9475 147.597 69.3319C147.597 66.6941 148.107 64.3888 149.126 62.416C150.146 60.4321 151.592 58.8915 153.465 57.7943C155.349 56.686 157.583 56.1318 160.165 56.1318C162.747 56.1318 164.975 56.686 166.848 57.7943C168.732 58.8915 170.184 60.4321 171.204 62.416C172.224 64.3888 172.733 66.6941 172.733 69.3319C172.733 71.9475 172.224 74.2473 171.204 76.2312C170.184 78.204 168.732 79.7446 166.848 80.8529C164.975 81.9501 162.747 82.4987 160.165 82.4987ZM160.198 77.0126C161.949 77.0126 163.274 76.2811 164.172 74.8181C165.08 73.3551 165.535 71.5097 165.535 69.282C165.535 67.0543 165.08 65.2089 164.172 63.746C163.274 62.2719 161.949 61.5349 160.198 61.5349C158.414 61.5349 157.067 62.2719 156.158 63.746C155.25 65.2089 154.795 67.0543 154.795 69.282C154.795 71.5097 155.25 73.3551 156.158 74.8181C157.067 76.2811 158.414 77.0126 160.198 77.0126ZM177.338 82V56.4643H188.228C191.375 56.4643 193.864 57.0628 195.692 58.2598C197.521 59.4457 198.435 61.1469 198.435 63.3636C198.435 64.7379 197.92 65.8906 196.889 66.8216C195.858 67.7415 194.429 68.3621 192.6 68.6835C194.894 68.8498 196.673 69.5314 197.937 70.7284C199.211 71.9143 199.848 73.3496 199.848 75.0342C199.848 77.2065 198.989 78.9133 197.272 80.1546C195.554 81.3849 193.099 82 189.907 82H177.338ZM183.939 76.6967H189.907C190.893 76.6967 191.663 76.4639 192.218 75.9984C192.783 75.5219 193.066 74.8735 193.066 74.0533C193.066 73.1445 192.783 72.4297 192.218 71.9087C191.663 71.3878 190.893 71.1274 189.907 71.1274H183.939V76.6967ZM183.939 66.9712H188.377C189.43 66.9712 190.256 66.744 190.854 66.2896C191.464 65.8351 191.769 65.2034 191.769 64.3943C191.769 63.6074 191.453 62.9923 190.821 62.549C190.189 62.1056 189.325 61.884 188.228 61.884H183.939V66.9712ZM211.594 82.4821C209.156 82.4821 207.133 81.8448 205.526 80.5703C203.919 79.2957 203.115 77.3949 203.115 74.868C203.115 72.9616 203.564 71.4654 204.462 70.3793C205.36 69.2931 206.534 68.5007 207.986 68.0019C209.449 67.4921 211.023 67.1596 212.708 67.0044C214.924 66.7828 216.509 66.55 217.462 66.3062C218.416 66.0624 218.892 65.5304 218.892 64.7102V64.6105C218.892 63.5575 218.56 62.7429 217.895 62.1666C217.241 61.5903 216.31 61.3021 215.102 61.3021C213.827 61.3021 212.813 61.5792 212.059 62.1334C211.306 62.6875 210.807 63.3913 210.563 64.2447L204.013 63.7127C204.501 61.3852 205.709 59.5399 207.637 58.1767C209.577 56.8134 212.076 56.1318 215.135 56.1318C217.03 56.1318 218.804 56.431 220.455 57.0295C222.106 57.628 223.436 58.5646 224.445 59.8391C225.465 61.1026 225.974 62.7485 225.974 64.7767V82H219.258V78.4589H219.058C218.438 79.6448 217.507 80.6146 216.265 81.3683C215.035 82.1108 213.478 82.4821 211.594 82.4821ZM213.622 77.5944C215.174 77.5944 216.448 77.1456 217.446 76.2478C218.443 75.339 218.942 74.214 218.942 72.873V70.1631C218.665 70.3516 218.233 70.5178 217.645 70.6619C217.069 70.806 216.448 70.9334 215.783 71.0443C215.129 71.144 214.542 71.2327 214.021 71.3102C212.78 71.4876 211.777 71.8367 211.012 72.3576C210.258 72.8785 209.882 73.6377 209.882 74.6352C209.882 75.6105 210.231 76.3476 210.929 76.8463C211.638 77.3451 212.536 77.5944 213.622 77.5944ZM228.95 62.0336V56.4643H252.092V62.0336H243.863V82H237.113V62.0336H228.95ZM267.108 82.4987C264.493 82.4987 262.237 81.9668 260.342 80.9028C258.447 79.8277 256.989 78.3093 255.97 76.3476C254.95 74.3748 254.44 72.0417 254.44 69.3485C254.44 66.7218 254.95 64.4165 255.97 62.4326C256.989 60.4487 258.425 58.9026 260.275 57.7943C262.137 56.686 264.321 56.1318 266.826 56.1318C269.076 56.1318 271.104 56.6084 272.91 57.5615C274.728 58.5147 276.169 59.9555 277.233 61.884C278.297 63.8014 278.829 66.2064 278.829 69.0991V71.0443H261.439V71.0609C261.439 72.9672 261.96 74.469 263.002 75.5662C264.044 76.6634 265.451 77.2121 267.225 77.2121C268.411 77.2121 269.436 76.9627 270.3 76.4639C271.165 75.9652 271.774 75.2282 272.129 74.2528L278.679 74.6851C278.18 77.0569 276.917 78.9521 274.889 80.3708C272.86 81.7894 270.267 82.4987 267.108 82.4987ZM261.439 66.6553H272.162C272.151 65.1369 271.663 63.8845 270.699 62.8981C269.735 61.9117 268.483 61.4185 266.942 61.4185C265.368 61.4185 264.077 61.9283 263.068 62.948C262.06 63.9676 261.517 65.2034 261.439 66.6553ZM281.954 82L281.921 76.3808H282.769C283.977 76.3808 284.858 75.7546 285.412 74.5022C285.966 73.2498 286.304 71.0055 286.426 67.7692L286.842 56.4643H306.26V82H299.51V62.0336H293.209L292.81 69.8306C292.6 74.1198 291.768 77.2231 290.316 79.1405C288.876 81.0468 286.798 82 284.082 82H281.954ZM318.516 64.3112H323.82C327.2 64.3112 329.832 65.1203 331.716 66.7384C333.612 68.3566 334.565 70.5067 334.576 73.1889C334.565 75.8267 333.612 77.9546 331.716 79.5728C329.832 81.1909 327.2 82 323.82 82H311.75V56.4643H318.516V64.3112ZM318.516 69.8805V76.4307H323.82C325.006 76.4307 325.981 76.1314 326.746 75.533C327.51 74.9345 327.898 74.1697 327.909 73.2387C327.898 72.2523 327.51 71.4488 326.746 70.8281C325.981 70.1964 325.006 69.8805 323.82 69.8805H318.516ZM346.039 56.4643V66.4059H354.767V56.4643H361.483V82H354.767V71.9752H346.039V82H339.272V56.4643H346.039ZM378.515 82.4987C375.933 82.4987 373.7 81.9501 371.815 80.8529C369.942 79.7446 368.496 78.204 367.476 76.2312C366.457 74.2473 365.947 71.9475 365.947 69.3319C365.947 66.6941 366.457 64.3888 367.476 62.416C368.496 60.4321 369.942 58.8915 371.815 57.7943C373.7 56.686 375.933 56.1318 378.515 56.1318C381.098 56.1318 383.325 56.686 385.198 57.7943C387.083 58.8915 388.534 60.4321 389.554 62.416C390.574 64.3888 391.084 66.6941 391.084 69.3319C391.084 71.9475 390.574 74.2473 389.554 76.2312C388.534 78.204 387.083 79.7446 385.198 80.8529C383.325 81.9501 381.098 82.4987 378.515 82.4987ZM378.549 77.0126C380.3 77.0126 381.624 76.2811 382.522 74.8181C383.431 73.3551 383.885 71.5097 383.885 69.282C383.885 67.0543 383.431 65.2089 382.522 63.746C381.624 62.2719 380.3 61.5349 378.549 61.5349C376.764 61.5349 375.418 62.2719 374.509 63.746C373.6 65.2089 373.145 67.0543 373.145 69.282C373.145 71.5097 373.6 73.3551 374.509 74.8181C375.418 76.2811 376.764 77.0126 378.549 77.0126ZM413.178 56.4643V62.0336H402.571V82H395.689V56.4643H413.178ZM13.3638 130.499C10.7814 130.499 8.54818 129.95 6.66404 128.853C4.79097 127.745 3.34462 126.204 2.32496 124.231C1.30531 122.247 0.795479 119.948 0.795479 117.332C0.795479 114.694 1.30531 112.389 2.32496 110.416C3.34462 108.432 4.79097 106.892 6.66404 105.794C8.54818 104.686 10.7814 104.132 13.3638 104.132C15.9462 104.132 18.1739 104.686 20.047 105.794C21.9312 106.892 23.3831 108.432 24.4027 110.416C25.4224 112.389 25.9322 114.694 25.9322 117.332C25.9322 119.948 25.4224 122.247 24.4027 124.231C23.3831 126.204 21.9312 127.745 20.047 128.853C18.1739 129.95 15.9462 130.499 13.3638 130.499ZM13.3971 125.013C15.1482 125.013 16.4727 124.281 17.3704 122.818C18.2792 121.355 18.7336 119.51 18.7336 117.282C18.7336 115.054 18.2792 113.209 17.3704 111.746C16.4727 110.272 15.1482 109.535 13.3971 109.535C11.6127 109.535 10.2661 110.272 9.35725 111.746C8.44843 113.209 7.99402 115.054 7.99402 117.282C7.99402 119.51 8.44843 121.355 9.35725 122.818C10.2661 124.281 11.6127 125.013 13.3971 125.013ZM41.3725 130V104.464H48.4546V114.373H50.4496L57.3988 104.464H65.7112L56.6839 117.132L65.8109 130H57.3988L51.098 120.939H48.4546V130H41.3725ZM79.2895 130.499C76.7071 130.499 74.4739 129.95 72.5897 128.853C70.7166 127.745 69.2703 126.204 68.2506 124.231C67.231 122.247 66.7212 119.948 66.7212 117.332C66.7212 114.694 67.231 112.389 68.2506 110.416C69.2703 108.432 70.7166 106.892 72.5897 105.794C74.4739 104.686 76.7071 104.132 79.2895 104.132C81.8719 104.132 84.0996 104.686 85.9727 105.794C87.8568 106.892 89.3087 108.432 90.3284 110.416C91.348 112.389 91.8579 114.694 91.8579 117.332C91.8579 119.948 91.348 122.247 90.3284 124.231C89.3087 126.204 87.8568 127.745 85.9727 128.853C84.0996 129.95 81.8719 130.499 79.2895 130.499ZM79.3228 125.013C81.0739 125.013 82.3983 124.281 83.2961 122.818C84.2049 121.355 84.6593 119.51 84.6593 117.282C84.6593 115.054 84.2049 113.209 83.2961 111.746C82.3983 110.272 81.0739 109.535 79.3228 109.535C77.5384 109.535 76.1918 110.272 75.2829 111.746C74.3741 113.209 73.9197 115.054 73.9197 117.282C73.9197 119.51 74.3741 121.355 75.2829 122.818C76.1918 124.281 77.5384 125.013 79.3228 125.013ZM111.558 122.17L118.474 104.464H126.92V130H120.236V113.758L113.902 130H109.198L103.229 114.323V130H96.4629V104.464H104.842L111.558 122.17ZM132.397 130V104.464H154.725V130H147.958V110.034H139.081V130H132.397ZM158.881 130L158.848 124.381H159.695C160.903 124.381 161.785 123.755 162.339 122.502C162.893 121.25 163.231 119.005 163.353 115.769L163.768 104.464H183.186V130H176.437V110.034H170.136L169.737 117.831C169.526 122.12 168.695 125.223 167.243 127.141C165.802 129.047 163.724 130 161.009 130H158.881ZM200.314 130.499C197.698 130.499 195.443 129.967 193.548 128.903C191.652 127.828 190.195 126.309 189.175 124.348C188.156 122.375 187.646 120.042 187.646 117.349C187.646 114.722 188.156 112.416 189.175 110.433C190.195 108.449 191.63 106.903 193.481 105.794C195.343 104.686 197.527 104.132 200.031 104.132C202.281 104.132 204.309 104.608 206.116 105.562C207.934 106.515 209.374 107.956 210.438 109.884C211.502 111.801 212.034 114.206 212.034 117.099V119.044H194.645V119.061C194.645 120.967 195.166 122.469 196.208 123.566C197.249 124.663 198.657 125.212 200.43 125.212C201.616 125.212 202.641 124.963 203.506 124.464C204.37 123.965 204.98 123.228 205.335 122.253L211.885 122.685C211.386 125.057 210.123 126.952 208.094 128.371C206.066 129.789 203.473 130.499 200.314 130.499ZM194.645 114.655H205.368C205.357 113.137 204.869 111.885 203.905 110.898C202.941 109.912 201.688 109.418 200.148 109.418C198.574 109.418 197.283 109.928 196.274 110.948C195.266 111.968 194.722 113.203 194.645 114.655ZM216.656 130V104.464H223.738V114.373H225.733L232.682 104.464H240.995L231.968 117.132L241.095 130H232.682L226.382 120.939H223.738V130H216.656ZM254.573 130.499C251.958 130.499 249.708 129.945 247.823 128.836C245.95 127.717 244.51 126.165 243.501 124.181C242.504 122.197 242.005 119.914 242.005 117.332C242.005 114.716 242.509 112.422 243.518 110.449C244.537 108.465 245.984 106.919 247.857 105.811C249.73 104.692 251.958 104.132 254.54 104.132C256.768 104.132 258.718 104.536 260.392 105.345C262.076 106.154 263.401 107.291 264.365 108.753C265.34 110.216 265.878 111.934 265.978 113.907H259.295C259.106 112.633 258.607 111.607 257.798 110.832C257 110.045 255.953 109.651 254.656 109.651C253.016 109.651 251.697 110.311 250.7 111.63C249.702 112.948 249.203 114.816 249.203 117.232C249.203 119.67 249.697 121.56 250.683 122.901C251.68 124.231 253.005 124.896 254.656 124.896C255.875 124.896 256.901 124.53 257.732 123.799C258.563 123.056 259.084 122.003 259.295 120.64H265.978C265.867 122.591 265.335 124.309 264.382 125.794C263.44 127.279 262.137 128.437 260.475 129.269C258.812 130.089 256.845 130.499 254.573 130.499ZM277.794 130.482C275.356 130.482 273.333 129.845 271.726 128.57C270.119 127.296 269.315 125.395 269.315 122.868C269.315 120.962 269.764 119.465 270.662 118.379C271.56 117.293 272.734 116.501 274.186 116.002C275.649 115.492 277.223 115.16 278.908 115.004C281.124 114.783 282.709 114.55 283.662 114.306C284.616 114.062 285.092 113.53 285.092 112.71V112.61C285.092 111.558 284.76 110.743 284.095 110.167C283.441 109.59 282.51 109.302 281.302 109.302C280.027 109.302 279.013 109.579 278.259 110.133C277.506 110.688 277.007 111.391 276.763 112.245L270.213 111.713C270.701 109.385 271.909 107.54 273.837 106.177C275.777 104.813 278.276 104.132 281.335 104.132C283.23 104.132 285.003 104.431 286.655 105.03C288.306 105.628 289.636 106.565 290.645 107.839C291.664 109.103 292.174 110.748 292.174 112.777V130H285.458V126.459H285.258C284.638 127.645 283.707 128.615 282.465 129.368C281.235 130.111 279.678 130.482 277.794 130.482ZM279.822 125.594C281.374 125.594 282.648 125.146 283.646 124.248C284.643 123.339 285.142 122.214 285.142 120.873V118.163C284.865 118.352 284.433 118.518 283.845 118.662C283.269 118.806 282.648 118.933 281.983 119.044C281.329 119.144 280.742 119.233 280.221 119.31C278.98 119.488 277.977 119.837 277.212 120.358C276.458 120.879 276.082 121.638 276.082 122.635C276.082 123.611 276.431 124.348 277.129 124.846C277.838 125.345 278.736 125.594 279.822 125.594ZM14.8601 173.343H8.44289L1.72647 163.368V162.902L8.44289 152.927H14.8601L8.54264 163.135L14.8601 173.343ZM25.7992 173.343H19.382L12.6656 163.368V162.902L19.382 152.927H25.7992L19.4818 163.135L25.7992 173.343ZM27.5905 148.887V142.952H55.5534V148.887H45.1297V177H38.0143V148.887H27.5905ZM67.86 177.499C65.2776 177.499 63.0443 176.95 61.1602 175.853C59.2871 174.745 57.8407 173.204 56.8211 171.231C55.8014 169.247 55.2916 166.948 55.2916 164.332C55.2916 161.694 55.8014 159.389 56.8211 157.416C57.8407 155.432 59.2871 153.892 61.1602 152.794C63.0443 151.686 65.2776 151.132 67.86 151.132C70.4423 151.132 72.6701 151.686 74.5431 152.794C76.4273 153.892 77.8792 155.432 78.8988 157.416C79.9185 159.389 80.4283 161.694 80.4283 164.332C80.4283 166.948 79.9185 169.247 78.8988 171.231C77.8792 173.204 76.4273 174.745 74.5431 175.853C72.6701 176.95 70.4423 177.499 67.86 177.499ZM67.8932 172.013C69.6443 172.013 70.9688 171.281 71.8665 169.818C72.7754 168.355 73.2298 166.51 73.2298 164.282C73.2298 162.054 72.7754 160.209 71.8665 158.746C70.9688 157.272 69.6443 156.535 67.8932 156.535C66.1088 156.535 64.7622 157.272 63.8534 158.746C62.9445 160.209 62.4901 162.054 62.4901 164.282C62.4901 166.51 62.9445 168.355 63.8534 169.818C64.7622 171.281 66.1088 172.013 67.8932 172.013ZM107.194 151.464V177H100.478V169.286C99.8682 169.397 99.2476 169.491 98.6158 169.569C97.9952 169.635 97.4078 169.668 96.8536 169.668C93.1851 169.668 90.2979 168.915 88.1921 167.407C86.0863 165.889 85.0334 163.467 85.0334 160.142V151.431H91.7166V160.142C91.7166 161.617 92.1045 162.647 92.8803 163.235C93.6561 163.811 94.9806 164.099 96.8536 164.099C98.0395 164.099 99.2476 163.961 100.478 163.684V151.464H107.194ZM112.693 177V151.464H119.775V161.373H121.77L128.719 151.464H137.032L128.004 164.132L137.131 177H128.719L122.418 167.939H119.775V177H112.693ZM147.405 177.482C144.967 177.482 142.945 176.845 141.337 175.57C139.73 174.296 138.927 172.395 138.927 169.868C138.927 167.962 139.376 166.465 140.273 165.379C141.171 164.293 142.346 163.501 143.798 163.002C145.261 162.492 146.835 162.16 148.519 162.004C150.736 161.783 152.321 161.55 153.274 161.306C154.227 161.062 154.704 160.53 154.704 159.71V159.61C154.704 158.558 154.371 157.743 153.706 157.167C153.052 156.59 152.121 156.302 150.913 156.302C149.639 156.302 148.625 156.579 147.871 157.133C147.117 157.688 146.619 158.391 146.375 159.245L139.825 158.713C140.312 156.385 141.52 154.54 143.449 153.177C145.388 151.813 147.888 151.132 150.947 151.132C152.842 151.132 154.615 151.431 156.267 152.03C157.918 152.628 159.248 153.565 160.256 154.839C161.276 156.103 161.786 157.748 161.786 159.777V177H155.07V173.459H154.87C154.249 174.645 153.318 175.615 152.077 176.368C150.847 177.111 149.29 177.482 147.405 177.482ZM149.434 172.594C150.985 172.594 152.26 172.146 153.257 171.248C154.255 170.339 154.754 169.214 154.754 167.873V165.163C154.477 165.352 154.044 165.518 153.457 165.662C152.881 165.806 152.26 165.933 151.595 166.044C150.941 166.144 150.354 166.233 149.833 166.31C148.591 166.488 147.588 166.837 146.824 167.358C146.07 167.879 145.693 168.638 145.693 169.635C145.693 170.611 146.042 171.348 146.74 171.846C147.45 172.345 148.348 172.594 149.434 172.594ZM199.346 142.088L201.507 146.71C200.786 147.308 199.988 147.751 199.113 148.04C198.237 148.317 197.195 148.5 195.987 148.588C194.779 148.677 193.3 148.738 191.549 148.771C188.589 148.804 186.439 149.514 185.098 150.899C183.757 152.284 182.937 154.545 182.638 157.682H182.887C183.652 156.119 184.727 154.911 186.112 154.058C187.509 153.204 189.232 152.778 191.283 152.778C193.455 152.778 195.356 153.254 196.985 154.207C198.625 155.161 199.9 156.529 200.809 158.314C201.717 160.098 202.172 162.237 202.172 164.731C202.172 167.335 201.667 169.591 200.659 171.497C199.65 173.403 198.21 174.883 196.336 175.936C194.474 176.978 192.258 177.499 189.687 177.499C185.819 177.499 182.765 176.285 180.526 173.858C178.287 171.42 177.168 167.884 177.168 163.251V161.157C177.168 155.005 178.365 150.445 180.759 147.474C183.153 144.504 186.672 142.997 191.316 142.952C191.682 142.952 192.036 142.952 192.38 142.952C192.723 142.952 193.056 142.952 193.377 142.952C194.74 142.952 195.921 142.919 196.918 142.853C197.916 142.775 198.725 142.52 199.346 142.088ZM189.72 172.013C191.338 172.013 192.618 171.386 193.56 170.134C194.502 168.87 194.973 167.147 194.973 164.964C194.973 162.78 194.502 161.101 193.56 159.926C192.618 158.74 191.327 158.147 189.687 158.147C188.046 158.147 186.755 158.74 185.813 159.926C184.871 161.101 184.389 162.78 184.367 164.964C184.367 167.136 184.838 168.854 185.78 170.117C186.733 171.381 188.046 172.013 189.72 172.013ZM211.245 186.526C210.347 186.526 209.505 186.46 208.718 186.327C207.942 186.194 207.299 186.022 206.789 185.811L208.385 180.508C209.638 180.896 210.691 180.995 211.544 180.807C212.408 180.63 213.09 179.965 213.589 178.812L214.004 177.731L204.844 151.464H212.292L217.579 170.217H217.845L223.181 151.464L230.679 151.498L220.754 179.76C220.045 181.799 218.942 183.434 217.446 184.664C215.95 185.905 213.883 186.526 211.245 186.526ZM230.251 184.481V171.381H232.213C232.955 170.904 233.526 170.073 233.925 168.887C234.324 167.69 234.623 166.299 234.823 164.714C235.022 163.118 235.189 161.484 235.322 159.81L235.987 151.464H255.571V171.381H259.527V184.481H252.778V177H237.167V184.481H230.251ZM239.262 171.381H248.887V156.917H242.005L241.739 159.81C241.55 162.536 241.279 164.853 240.924 166.759C240.57 168.654 240.015 170.195 239.262 171.381ZM268.027 186.526C267.129 186.526 266.287 186.46 265.5 186.327C264.724 186.194 264.081 186.022 263.571 185.811L265.167 180.508C266.42 180.896 267.473 180.995 268.326 180.807C269.191 180.63 269.872 179.965 270.371 178.812L270.787 177.731L261.626 151.464H269.074L274.361 170.217H274.627L279.963 151.464L287.461 151.498L277.536 179.76C276.827 181.799 275.724 183.434 274.228 184.664C272.732 185.905 270.665 186.526 268.027 186.526ZM331.201 171.431L330.702 184.315H324.202V177H291.085V151.464H297.852V171.381H305.05V151.464H311.817V171.381H319.015V151.464H325.781V171.431H331.201ZM346.795 177.499C344.179 177.499 341.924 176.967 340.029 175.903C338.134 174.828 336.676 173.309 335.657 171.348C334.637 169.375 334.127 167.042 334.127 164.349C334.127 161.722 334.637 159.416 335.657 157.433C336.676 155.449 338.111 153.903 339.962 152.794C341.824 151.686 344.008 151.132 346.513 151.132C348.762 151.132 350.791 151.608 352.597 152.562C354.415 153.515 355.856 154.956 356.92 156.884C357.984 158.801 358.516 161.206 358.516 164.099V166.044H341.126V166.061C341.126 167.967 341.647 169.469 342.689 170.566C343.731 171.663 345.138 172.212 346.911 172.212C348.097 172.212 349.123 171.963 349.987 171.464C350.852 170.965 351.461 170.228 351.816 169.253L358.366 169.685C357.867 172.057 356.604 173.952 354.576 175.371C352.547 176.789 349.954 177.499 346.795 177.499ZM341.126 161.655H351.849C351.838 160.137 351.35 158.885 350.386 157.898C349.422 156.912 348.169 156.418 346.629 156.418C345.055 156.418 343.764 156.928 342.755 157.948C341.747 158.968 341.204 160.203 341.126 161.655ZM380.627 151.464V157.034H370.02V177H363.137V151.464H380.627ZM395.568 177.499C392.986 177.499 390.752 176.95 388.868 175.853C386.995 174.745 385.549 173.204 384.529 171.231C383.51 169.247 383 166.948 383 164.332C383 161.694 383.51 159.389 384.529 157.416C385.549 155.432 386.995 153.892 388.868 152.794C390.752 151.686 392.986 151.132 395.568 151.132C398.151 151.132 400.378 151.686 402.251 152.794C404.135 153.892 405.587 155.432 406.607 157.416C407.627 159.389 408.137 161.694 408.137 164.332C408.137 166.948 407.627 169.247 406.607 171.231C405.587 173.204 404.135 174.745 402.251 175.853C400.378 176.95 398.151 177.499 395.568 177.499ZM395.601 172.013C397.353 172.013 398.677 171.281 399.575 169.818C400.484 168.355 400.938 166.51 400.938 164.282C400.938 162.054 400.484 160.209 399.575 158.746C398.677 157.272 397.353 156.535 395.601 156.535C393.817 156.535 392.47 157.272 391.562 158.746C390.653 160.209 390.198 162.054 390.198 164.282C390.198 166.51 390.653 168.355 391.562 169.818C392.47 171.281 393.817 172.013 395.601 172.013ZM412.276 173.343L418.593 163.135L412.276 152.927H418.693L425.41 162.902V163.368L418.693 173.343H412.276ZM423.381 173.343L429.699 163.135L423.381 152.927H429.799L436.515 162.902V163.368L429.799 173.343H423.381ZM1.82622 225V199.464H12.7155C15.8631 199.464 18.3513 200.063 20.18 201.26C22.0087 202.446 22.9231 204.147 22.9231 206.364C22.9231 207.738 22.4077 208.891 21.377 209.822C20.3463 210.741 18.9165 211.362 17.0878 211.684C19.382 211.85 21.1609 212.531 22.4244 213.728C23.6989 214.914 24.3362 216.35 24.3362 218.034C24.3362 220.207 23.4773 221.913 21.7594 223.155C20.0415 224.385 17.5865 225 14.3946 225H1.82622ZM8.42627 219.697H14.3946C15.381 219.697 16.1513 219.464 16.7054 218.998C17.2707 218.522 17.5533 217.873 17.5533 217.053C17.5533 216.145 17.2707 215.43 16.7054 214.909C16.1513 214.388 15.381 214.127 14.3946 214.127H8.42627V219.697ZM8.42627 209.971H12.8651C13.918 209.971 14.7437 209.744 15.3422 209.29C15.9518 208.835 16.2566 208.203 16.2566 207.394C16.2566 206.607 15.9407 205.992 15.3089 205.549C14.6772 205.106 13.8127 204.884 12.7155 204.884H8.42627V209.971ZM34.7184 199.464L39.4066 208.392L44.2112 199.464H51.4762L44.0782 212.232L51.6757 225H44.4439L39.4066 216.172L34.4524 225H27.1375L34.7184 212.232L27.4035 199.464H34.7184ZM66.2598 225.499C63.6774 225.499 61.4442 224.95 59.56 223.853C57.687 222.745 56.2406 221.204 55.2209 219.231C54.2013 217.247 53.6915 214.948 53.6915 212.332C53.6915 209.694 54.2013 207.389 55.2209 205.416C56.2406 203.432 57.687 201.892 59.56 200.794C61.4442 199.686 63.6774 199.132 66.2598 199.132C68.8422 199.132 71.0699 199.686 72.943 200.794C74.8271 201.892 76.279 203.432 77.2987 205.416C78.3183 207.389 78.8282 209.694 78.8282 212.332C78.8282 214.948 78.3183 217.247 77.2987 219.231C76.279 221.204 74.8271 222.745 72.943 223.853C71.0699 224.95 68.8422 225.499 66.2598 225.499ZM66.2931 220.013C68.0442 220.013 69.3687 219.281 70.2664 217.818C71.1752 216.355 71.6296 214.51 71.6296 212.282C71.6296 210.054 71.1752 208.209 70.2664 206.746C69.3687 205.272 68.0442 204.535 66.2931 204.535C64.5087 204.535 63.1621 205.272 62.2532 206.746C61.3444 208.209 60.89 210.054 60.89 212.282C60.89 214.51 61.3444 216.355 62.2532 217.818C63.1621 219.281 64.5087 220.013 66.2931 220.013ZM81.4383 232.481V219.381H83.4C84.1426 218.904 84.7134 218.073 85.1123 216.887C85.5113 215.69 85.8106 214.299 86.0101 212.714C86.2096 211.118 86.3758 209.484 86.5088 207.81L87.1738 199.464H106.758V219.381H110.715V232.481H103.965V225H88.3542V232.481H81.4383ZM90.4489 219.381H100.075V204.917H93.192L92.926 207.81C92.7376 210.536 92.4661 212.853 92.1114 214.759C91.7567 216.654 91.2026 218.195 90.4489 219.381ZM129.804 225V215.79H125.265L120.361 225H113.578L119.081 214.709C117.552 214.044 116.371 213.124 115.54 211.95C114.709 210.764 114.299 209.395 114.31 207.843C114.299 205.349 115.252 203.332 117.169 201.792C119.098 200.24 121.713 199.464 125.016 199.464H136.404V225H129.804ZM129.804 211.002V205.017H125.016C123.708 205.017 122.716 205.316 122.04 205.915C121.375 206.513 121.048 207.223 121.059 208.043C121.048 208.874 121.37 209.578 122.024 210.154C122.689 210.719 123.664 211.002 124.95 211.002H129.804ZM139.388 205.034V199.464H162.53V205.034H154.301V225H147.551V205.034H139.388ZM170.963 225.432C169.866 225.432 168.924 225.044 168.137 224.269C167.35 223.493 166.962 222.551 166.973 221.442C166.962 220.356 167.35 219.425 168.137 218.649C168.924 217.873 169.866 217.486 170.963 217.486C172.027 217.486 172.952 217.873 173.739 218.649C174.537 219.425 174.942 220.356 174.953 221.442C174.942 222.551 174.537 223.493 173.739 224.269C172.952 225.044 172.027 225.432 170.963 225.432ZM170.963 207.561C169.866 207.561 168.924 207.173 168.137 206.397C167.35 205.621 166.962 204.679 166.973 203.571C166.962 202.484 167.35 201.553 168.137 200.778C168.924 200.002 169.866 199.614 170.963 199.614C172.027 199.614 172.952 200.002 173.739 200.778C174.537 201.553 174.942 202.484 174.953 203.571C174.942 204.679 174.537 205.621 173.739 206.397C172.952 207.173 172.027 207.561 170.963 207.561Z" fill="url(#paint0_linear)"/>
<defs>
<linearGradient id="paint0_linear" x1="-16.8214" y1="31.4643" x2="459.404" y2="31.4642" gradientUnits="userSpaceOnUse">
<stop stop-color="#B9D4E4"/>
<stop offset="1" stop-color="#B9D4E4"/>
</linearGradient>
</defs>
</svg>
