<svg width="24" height="24" viewBox="0 0 24 24" fill="none" xmlns="http://www.w3.org/2000/svg">
<path d="M14.5903 2.09998C16.7582 2.09998 17.7923 2.29968 18.8665 2.87418C19.8382 3.39382 20.6061 4.16177 21.1258 5.13342C21.7003 6.20764 21.9 7.24178 21.9 9.40969V14.5903C21.9 16.7582 21.7003 17.7923 21.1258 18.8665C20.6061 19.8382 19.8382 20.6061 18.8665 21.1258C17.7923 21.7003 16.7582 21.9 14.5903 21.9H9.40969C7.24178 21.9 6.20764 21.7003 5.13342 21.1258C4.16177 20.6061 3.39382 19.8382 2.87418 18.8665C2.29968 17.7923 2.09998 16.7582 2.09998 14.5903V9.40969C2.09998 7.24178 2.29968 6.20764 2.87418 5.13342C3.39382 4.16177 4.16177 3.39382 5.13342 2.87418C6.20764 2.29968 7.24178 2.09998 9.40969 2.09998H14.5903ZM14.5903 3.89998H9.40969C7.51351 3.89998 6.7601 4.04547 5.9823 4.46144C5.32433 4.81333 4.81333 5.32433 4.46144 5.9823C4.04547 6.7601 3.89998 7.51351 3.89998 9.40969V14.5903C3.89998 16.4864 4.04547 17.2398 4.46144 18.0177C4.81333 18.6756 5.32433 19.1866 5.9823 19.5385C6.7601 19.9545 7.51351 20.1 9.40969 20.1H14.5903C16.4864 20.1 17.2398 19.9545 18.0177 19.5385C18.6756 19.1866 19.1866 18.6756 19.5385 18.0177C19.9545 17.2398 20.1 16.4864 20.1 14.5903V9.40969C20.1 7.51351 19.9545 6.7601 19.5385 5.9823C19.1866 5.32433 18.6756 4.81333 18.0177 4.46144C17.2398 4.04547 16.4864 3.89998 14.5903 3.89998ZM12.3089 8.2213C12.6837 7.89485 13.2522 7.93405 13.5786 8.30887L16.2786 11.4089C16.5738 11.7477 16.5738 12.2523 16.2786 12.5911L13.5786 15.6911C13.2522 16.0659 12.6837 16.1051 12.3089 15.7786C11.9341 15.4522 11.8948 14.8837 12.2213 14.5089L13.622 12.9H8.39998C7.94115 12.9 7.56252 12.5566 7.50699 12.1129L7.49998 12C7.49998 11.5029 7.90292 11.1 8.39998 11.1H13.622L12.2213 9.49108C11.922 9.14749 11.9301 8.64116 12.2222 8.30771L12.3089 8.2213Z" fill="#3D4B53"/>
</svg>
