<svg width="186" height="49" viewBox="0 0 186 49" fill="none" xmlns="http://www.w3.org/2000/svg">
<path fill-rule="evenodd" clip-rule="evenodd" d="M18.0593 12.7024C12.4158 12.7027 6.83798 15.3261 3.36074 20.4899V20.4899C0.540619 24.5459 -0.359647 29.3561 0.464069 33.8537V33.8537L0.999275 36.2246L3.24753 41.0592L6.51859 37.3747L10.7681 35.4378L9.68801 32.1811C9.29465 30.0333 9.725 27.7347 11.0723 25.7965V25.7965C12.4203 23.8586 14.4296 22.647 16.5891 22.255V22.255C16.6425 22.2458 16.6965 22.2362 16.7512 22.2275V22.2275L17.3006 22.1597L17.738 22.128L18.1815 22.119L18.6228 22.1322L19.0702 22.169L19.5076 22.2278L19.9415 22.3088L20.3754 22.4134L20.3847 22.416L20.7736 22.5315L20.8498 22.5565L21.1322 22.6563C21.2017 22.6826 21.2712 22.7091 21.3403 22.737V22.737L21.4593 22.7862C21.9926 23.0106 22.5108 23.2922 23.0058 23.6326V23.6326C23.7661 24.1562 24.4152 24.7798 24.9475 25.4733V25.4733L24.953 25.4688L25.0408 25.5808L25.2997 25.9491L25.5342 26.3226L25.7503 26.7098L25.9455 27.1085L26.1154 27.5027L34.8212 23.7936L34.6446 23.3827L26.849 26.7043L34.4625 22.9872L34.2271 22.5066L28.1771 25.4602L34.0663 22.2L33.7607 21.6534L29.3987 24.0678L33.6308 21.4326L33.2506 20.8269L30.4823 22.5507L33.158 20.6867L32.6955 20.0294L31.4481 20.8986L32.6501 19.9661C28.9098 15.0995 23.4554 12.7024 18.0599 12.7024V12.7024H18.0593ZM26.1282 27.5386L26.252 27.8739L35.1386 24.6157L35.0147 24.2803L26.1282 27.5386ZM26.2926 27.9949L26.3721 28.2509L35.4156 25.4525L35.3361 25.1965L26.2926 27.9949Z" fill="url(#paint0_linear)"/>
<path fill-rule="evenodd" clip-rule="evenodd" d="M12.0823 48.0255L18.1879 44.4805L13.9725 42.6373L12.0823 48.0255Z" fill="#B4E2EF"/>
<path fill-rule="evenodd" clip-rule="evenodd" d="M6.79932 45.0682L12.1784 47.9882L10.375 43.1158L6.79932 45.0682Z" fill="#7FD1E3"/>
<path fill-rule="evenodd" clip-rule="evenodd" d="M10.3716 39.3549L14.9141 39.3456L10.7141 35.5175L10.3716 39.3549Z" fill="#8BD4E5"/>
<path fill-rule="evenodd" clip-rule="evenodd" d="M10.2858 39.3057L10.3588 43.187L14.8511 39.2551L10.2858 39.3057Z" fill="#99D8E8"/>
<path fill-rule="evenodd" clip-rule="evenodd" d="M0.502925 28.6783L1.54375 30.8056L0.351112 31.6687L0.502925 28.6783ZM2.49412 32.5865L2.49446 32.5535L0.976942 35.9487L0.182495 31.8185L2.49463 32.5364L2.51921 30.1088L5.00226 30.8064L2.49412 32.5865ZM4.00988 35.7989L3.19356 40.9813L0.849136 36.2613L4.00988 35.7989Z" fill="#39B9D5"/>
<path fill-rule="evenodd" clip-rule="evenodd" d="M9.63604 32.4103L9.637 29.4174L8.69074 30.1265L9.63604 32.4103ZM6.86587 33.3137L5.07563 30.8222L6.96397 29.6549L7.06368 33.2405L6.86587 33.3137ZM2.56164 32.5747L1.54302 30.8057L0.107544 31.8419L2.56164 32.5747ZM10.6077 35.5001L6.45566 37.3798L7.00598 33.5625L10.6077 35.5001ZM10.2998 39.3629L10.3662 43.1181L10.404 43.1449L6.88435 45.0774L7.26003 40.9254L7.295 40.95L10.2998 39.3629ZM2.59657 32.5666L4.01049 35.7125L4.96929 30.8546L2.59657 32.5666Z" fill="#4DC6E1"/>
<path fill-rule="evenodd" clip-rule="evenodd" d="M4.16261 28.6237L2.51904 30.1088L5.07349 30.8086L4.16261 28.6237ZM1.5429 30.8057L0.502075 28.734L2.51907 30.1087L1.5429 30.8057ZM6.5314 37.3748L4.01008 35.8269L3.1825 40.945L6.46474 37.4458L7.26017 41.0394L10.3225 39.3239L6.51229 37.3951L6.5314 37.3748ZM7.14916 33.5688L6.9922 29.6267L8.69077 30.1266L7.14916 33.5688ZM7.12143 33.6351L5.00955 30.8418L4.00764 35.7439L7.12143 33.6351ZM0.842476 36.2464L2.53236 32.416L4.03313 35.8048L0.842476 36.2464Z" fill="#65CAE2"/>
<path fill-rule="evenodd" clip-rule="evenodd" d="M7.16119 33.6349L9.6362 32.4455L10.713 35.4849L7.16119 33.6349ZM6.46632 37.3977L3.87842 35.8255L7.00989 33.6572L6.46632 37.3977Z" fill="#79CFE5"/>
<path fill-rule="evenodd" clip-rule="evenodd" d="M10.3211 39.3526L6.51839 37.3747L10.6354 35.5338L10.3211 39.3526ZM3.38818 41.1032L7.28966 40.9688L6.9127 45.0136L3.38818 41.1032Z" fill="#75CEE6"/>
<path fill-rule="evenodd" clip-rule="evenodd" d="M65.9852 1L48.0217 13.0032L47.958 12.9779L47.9201 13.0714L47.7683 13.1725L47.8374 13.2746L42.0415 27.512L26.4272 35.7926L26.4794 35.8902L26.4195 35.7971L20.8153 39.3469L14.9013 39.1968L10.7676 35.4378L9.74161 32.3757L9.63579 32.4102L9.58465 32.3117L7.19713 33.5347L7.23605 33.6102L7.19713 33.6851L7.12315 33.6726L7.11125 33.6563L7.18555 33.6038L7.18394 33.6013H7.18491L7.07555 29.6515L6.85298 29.6576L6.95397 33.2803L5.15666 30.7699L5.08622 30.8195L5.07078 30.8166L5.09619 30.7277L2.54978 30.0019L2.48867 30.2154L4.73885 30.8566L2.51408 32.4448L0.254566 31.7565L0.248776 31.7213L0.176408 31.7325L0.158074 31.727L0.15518 31.736L0.0294189 31.7558L0.746029 36.1744L0.735094 36.1984L0.750854 36.2054L0.751176 36.207L0.753427 36.2067L0.756643 36.208L0.776907 36.3626L0.844451 36.3536L3.11168 41.0134L3.12455 41.0077L3.12808 41.1718L3.24484 41.1686L6.74652 45.0806L6.70792 45.152L12.0941 48.0506L12.1471 47.953V47.9533L12.1378 48.0637L20.5953 48.7885L20.6043 48.6781L20.6471 48.7805L30.4365 44.703L30.3934 44.6006L30.4686 44.6822L38.47 37.3744L38.4546 37.361L66.1297 1.1664V1.16608L66.1354 1.15872L66.0473 1.09184L65.9852 1ZM48.102 13.2164L65.3669 1.68003L42.4721 27.0455L48.102 13.2164ZM42.2261 27.6499L64.3047 3.18877L38.6926 36.6845L42.2261 27.6499ZM41.7555 27.9139L36.1156 35.6365L26.9312 35.7757L41.7555 27.9139ZM36.3725 35.6611L41.7143 28.3485L38.2551 37.1923L36.4459 35.6595L36.3735 35.7433L36.3725 35.6611ZM5.07139 31.033L6.9028 33.591L4.1515 35.5632L5.07139 31.033ZM2.63466 32.6323L4.83981 31.0576L3.94341 35.4707L2.63466 32.6323ZM0.294739 31.9997L2.32267 32.6176L0.911641 35.8019L0.294739 31.9997ZM7.40324 33.6784L9.57141 32.5677L10.4788 35.2752L7.40324 33.6784ZM2.47609 32.8186L3.82086 35.7357L1.01907 36.1075L2.47609 32.8186ZM7.18256 33.8134L10.4163 35.4922L6.59975 37.1891L7.18256 33.8134ZM4.17879 35.8163L6.95421 33.8266L6.373 37.1926L4.17879 35.8163ZM6.71139 37.3818L10.5434 35.6781L10.2253 39.1786L6.71139 37.3818ZM10.7618 35.7318L14.5414 39.1689L10.4431 39.239L10.7618 35.7318ZM35.9898 35.8595L25.8174 42.4422L26.5835 35.9603L26.6781 35.9101L26.6794 36.0006L35.9898 35.8595ZM36.3966 35.9078L38.1345 37.3798L31.0076 43.8889L36.3966 35.9078ZM1.07662 36.3229L3.85268 35.9546L3.15505 40.5942L1.07662 36.3229ZM4.06949 36.0096L6.28365 37.3987L3.377 40.6169L4.06949 36.0096ZM21.0507 39.4602L26.3413 36.1088L25.5896 42.4711L21.0507 39.4602ZM25.9171 42.6419L35.9776 36.1315L30.3522 44.4637L25.9171 42.6419ZM7.32763 40.8663L6.61359 37.5805L10.0847 39.3555L7.33471 40.8707L7.32763 40.8663ZM6.3924 37.6102L7.09614 40.848L3.38154 40.944L6.3924 37.6102ZM10.4337 39.4605L14.589 39.3894L10.4823 42.9062L10.4337 39.4605ZM14.9006 39.4182L20.3678 39.5568L14.1335 42.43L14.9006 39.4182ZM7.53609 41.0125L10.2128 39.5382L10.2604 42.9286L7.53609 41.0125ZM20.8876 39.6195L25.4066 42.6163L18.4216 44.3257L20.8876 39.6195ZM14.6077 39.6666L13.883 42.5117L10.7403 42.9786L14.6077 39.6666ZM14.2348 42.6275L20.5962 39.6957L18.164 44.3376L14.2348 42.6275ZM3.53653 41.1613L6.96841 41.0723L7.12248 41.2403L6.79698 44.8039L3.53653 41.1613ZM7.35343 41.1552L10.1658 43.1335L7.01443 44.8701L7.35343 41.1552ZM10.5264 43.2342L13.8068 42.7472L12.1426 47.6202L10.5264 43.2342ZM14.0306 42.7802L17.9688 44.4941L12.3472 47.711L14.0306 42.7802ZM25.7121 42.7971L30.1035 44.6013L20.9847 48.3994L25.7121 42.7971ZM18.3892 44.5619L25.3748 42.8525L20.6226 48.4845L18.3892 44.5619ZM7.06745 45.0935L10.3147 43.3043L11.9409 47.7162L7.06745 45.0935ZM12.5099 47.8733L18.1733 44.6317L20.4032 48.5494L12.5099 47.8733Z" fill="#33C2DF"/>
<path fill-rule="evenodd" clip-rule="evenodd" d="M77.7695 26.4688C78.9823 26.4688 80.1346 26.0457 80.9591 25.2374C81.8322 24.3912 82.2327 23.2351 82.2327 22.1406C82.2327 21.0337 81.8322 19.877 80.9591 19.0314C80.1346 18.2225 78.9823 17.8 77.7695 17.8C76.5566 17.8 75.405 18.2225 74.5798 19.0314C73.7067 19.877 73.3068 21.0337 73.3068 22.1406C73.3068 23.2351 73.7067 24.3912 74.5798 25.2374C75.405 26.0457 76.5566 26.4688 77.7695 26.4688ZM70.0777 26.2821V19.8147H71.7996V17.9867H66.2576V19.8147H67.9795V26.2821H70.0777ZM88.3682 23.0235C87.7978 23.1107 87.2639 23.148 86.682 23.148C86.088 23.148 85.0935 23.1231 84.4747 22.5258C83.8928 21.9664 83.8321 21.1706 83.8321 20.5608V17.9867H85.9424V20.2379C85.9424 20.4737 85.9545 20.8595 86.1845 21.0959C86.415 21.3323 86.9004 21.3566 87.1796 21.3566C87.6037 21.3566 87.9799 21.3323 88.3682 21.2701V17.9867H90.4778V26.2821H88.3682V23.0235ZM97.8201 17.9867L95.2493 21.4064V17.9867H93.1512V26.2821H95.2493V22.6875L97.99 26.2821H100.706L97.2018 21.9166L100.415 17.9867H97.8201ZM107.109 24.889H104.174L103.628 26.2821H101.409L104.513 17.9867H106.805L109.85 26.2821H107.606L107.109 24.889ZM76.1324 20.5484C75.6956 20.9839 75.4893 21.5931 75.4893 22.178C75.4893 22.924 75.8291 23.4218 76.1324 23.7198C76.5201 24.1056 77.0541 24.3794 77.7694 24.3794C78.4969 24.3794 79.0187 24.118 79.3943 23.7323C79.7705 23.3471 80.0496 22.7747 80.0496 22.1406C80.0496 21.4935 79.7705 20.9341 79.3943 20.5484C78.9459 20.1134 78.3392 19.8894 77.7694 19.8894C77.1876 19.8894 76.5687 20.101 76.1324 20.5484ZM106.551 23.2475L105.642 20.5608L104.756 23.2475H106.551Z" fill="#414C53"/>
<path fill-rule="evenodd" clip-rule="evenodd" d="M184.279 25.2368C183.455 26.0457 182.303 26.4682 181.09 26.4682C179.877 26.4682 178.725 26.0457 177.9 25.2368C177.027 24.3912 176.626 23.2345 176.626 22.1406C176.626 21.0337 177.027 19.877 177.9 19.0314C178.725 18.2225 179.877 17.8 181.09 17.8C182.303 17.8 183.455 18.2225 184.279 19.0314C185.153 19.877 185.552 21.0337 185.552 22.1406C185.552 23.2345 185.153 24.3912 184.279 25.2368ZM115.617 17.9867H120.881V19.8147H117.727V21.2452H118.552C119.583 21.2452 120.493 21.4064 121.111 22.0535C121.487 22.4642 121.73 23.0733 121.73 23.7696C121.73 24.4534 121.5 25.0881 121.063 25.5355C120.42 26.195 119.438 26.2821 118.48 26.2821H115.617V17.9867ZM125.387 17.9867L126.927 21.6802L128.273 17.9867H130.517L126.879 26.2821H124.659L125.787 23.9563L123.034 17.9867H125.387ZM138.689 24.6152V17.9867H132.577V21.3946C132.577 22.5755 132.468 23.4709 131.874 24.118C131.57 24.4534 131.28 24.5654 130.952 24.6152V28.1475H132.844V26.2821H137.768V28.1475H139.66V24.6152H138.689ZM143.145 17.9867L144.686 21.6802L146.032 17.9867H148.276L144.637 26.2821H142.418L143.546 23.9563L140.793 17.9867H143.145ZM149.802 17.9867V26.2821H159.456V28.1475H161.348V24.4659H160.208V17.9867H158.098V24.4659H156.06V17.9867H153.95V24.4659H151.912V17.9867H149.802ZM168.042 19.8147H165.544V21.1955H167.909V23.0235H165.544V24.4534H168.042V26.2821H163.445V17.9867H168.042V19.8147ZM172.808 19.8147H175.439V17.9867H170.709V26.2821H172.808V19.8147ZM134.42 23.3471C134.602 22.7124 134.615 22.0037 134.615 21.6055V19.653H136.579V24.6152H133.717C134.057 24.2549 134.275 23.8816 134.42 23.3471ZM119.389 24.3171C119.135 24.6027 118.686 24.6027 118.456 24.6027H117.727V22.8866H118.456C118.734 22.8866 119.11 22.8991 119.353 23.1106C119.486 23.2475 119.595 23.446 119.595 23.7322C119.595 23.9811 119.523 24.1802 119.389 24.3171ZM179.453 20.5484C179.016 20.9839 178.81 21.5931 178.81 22.178C178.81 22.924 179.149 23.4212 179.453 23.7198C179.84 24.1056 180.374 24.3794 181.09 24.3794C181.817 24.3794 182.339 24.118 182.715 23.7323C183.091 23.3471 183.37 22.7747 183.37 22.1406C183.37 21.4935 183.091 20.9341 182.715 20.5484C182.266 20.1134 181.659 19.8894 181.09 19.8894C180.507 19.8894 179.889 20.101 179.453 20.5484Z" fill="#414C53"/>
<path fill-rule="evenodd" clip-rule="evenodd" d="M76.19 42.1757C76.7936 42.1757 77.2981 41.9774 77.7037 41.5806C78.1092 41.1839 78.312 40.6794 78.312 40.0671C78.312 39.4611 78.1202 38.9613 77.7367 38.5676C77.372 38.1928 76.9099 38.0053 76.3503 38.0053C75.7278 38.0053 75.2783 38.1897 75.0017 38.5583H74.9922C75.0048 38.1209 75.1148 37.7648 75.3223 37.4899C75.4103 37.3712 75.5188 37.2697 75.6477 37.1853C75.7766 37.101 75.885 37.0432 75.9731 37.012C76.0611 36.9807 76.1868 36.9432 76.3503 36.8995L76.9728 36.7308C77.2934 36.6433 77.5638 36.4809 77.7838 36.2435C78.0039 36.0061 78.1485 35.7249 78.2177 35.4H77.2746C77.2054 35.6374 76.9539 35.8093 76.5201 35.9155L75.8599 36.0748C75.3695 36.1935 74.9734 36.4746 74.6716 36.9182C74.2692 37.4993 74.068 38.4021 74.068 39.6266C74.068 39.8828 74.0758 40.0999 74.0915 40.278C74.1073 40.456 74.1686 40.6825 74.2755 40.9574C74.3823 41.2323 74.5364 41.4635 74.7376 41.6509C75.1022 42.0008 75.5864 42.1757 76.19 42.1757ZM71.8691 41.2479C71.2466 41.8665 70.467 42.1757 69.5302 42.1757C68.5933 42.1757 67.8137 41.8665 67.1913 41.2479C66.5688 40.6294 66.2576 39.8578 66.2576 38.9331C66.2576 38.0085 66.5688 37.2369 67.1913 36.6183C67.8137 35.9998 68.5933 35.6905 69.5302 35.6905C70.467 35.6905 71.2466 35.9998 71.8691 36.6183C72.4915 37.2369 72.8028 38.0085 72.8028 38.9331C72.8028 39.8578 72.4915 40.6294 71.8691 41.2479ZM67.8703 40.6388C68.3041 41.0762 68.8574 41.2948 69.5302 41.2948C70.2029 41.2948 70.7562 41.0746 71.1901 40.6341C71.6239 40.1937 71.8408 39.6267 71.8408 38.9332C71.8408 38.2397 71.6239 37.6727 71.1901 37.2322C70.7562 36.7917 70.2029 36.5715 69.5302 36.5715C68.8574 36.5715 68.3041 36.7917 67.8703 37.2322C67.4365 37.6727 67.2195 38.2397 67.2195 38.9332C67.2195 39.6267 67.4365 40.1952 67.8703 40.6388ZM75.3318 41.0137C75.5455 41.2386 75.8316 41.351 76.19 41.351C76.5484 41.351 76.8345 41.237 77.0482 41.009C77.262 40.7809 77.3689 40.4763 77.3689 40.0952C77.3689 39.6766 77.2541 39.3611 77.0247 39.1487C76.7952 38.9363 76.5169 38.8301 76.19 38.8301C75.8631 38.8301 75.5848 38.9363 75.3553 39.1487C75.1259 39.3611 75.0111 39.6766 75.0111 40.0952C75.0111 40.4763 75.118 40.7825 75.3318 41.0137ZM80.6335 44.2V41.5947C80.9542 41.9821 81.3503 42.1757 81.8218 42.1757C82.3248 42.1757 82.7712 41.9805 83.161 41.59C83.5509 41.1995 83.7458 40.6888 83.7458 40.0577C83.7458 39.4455 83.5587 38.9503 83.1846 38.5723C82.8105 38.1943 82.3531 38.0053 81.8124 38.0053C81.3283 38.0053 80.9353 38.1834 80.6335 38.5395V38.1084H79.7093V44.2H80.6335ZM80.9023 41.023C81.1192 41.2417 81.3849 41.351 81.6992 41.351C82.0262 41.351 82.2918 41.2292 82.4962 40.9855C82.7005 40.7419 82.8027 40.4451 82.8027 40.0952C82.8027 39.7391 82.7005 39.4392 82.4962 39.1955C82.2918 38.9519 82.0262 38.8301 81.6992 38.8301C81.3849 38.8301 81.1192 38.941 80.9023 39.1627C80.6854 39.3845 80.5769 39.6985 80.5769 40.1046C80.5769 40.4982 80.6854 40.8044 80.9023 41.023ZM86.8595 42.1757C87.3436 42.1757 87.7397 41.9977 88.0478 41.6416V42.0539H88.972V38.1084H88.0478V38.5676C87.7586 38.1928 87.3656 38.0053 86.8689 38.0053C86.3282 38.0053 85.8708 38.1943 85.4967 38.5723C85.1226 38.9503 84.9355 39.4517 84.9355 40.0765C84.9355 40.6513 85.11 41.1449 85.4589 41.5572C85.8079 41.9696 86.2747 42.1757 86.8595 42.1757ZM86.1852 40.9855C86.3895 41.2292 86.6551 41.351 86.9821 41.351C87.2965 41.351 87.5621 41.2417 87.779 41.023C87.9959 40.8044 88.1044 40.4982 88.1044 40.1046C88.1044 39.6985 87.9959 39.3845 87.779 39.1627C87.5621 38.941 87.2965 38.8301 86.9821 38.8301C86.6551 38.8301 86.3895 38.9519 86.1852 39.1955C85.9808 39.4392 85.8787 39.7391 85.8787 40.0952C85.8787 40.4451 85.9808 40.7419 86.1852 40.9855ZM92.0386 42.1757C92.5101 42.1757 92.9 42.0727 93.2081 41.8665C93.3778 41.754 93.513 41.6041 93.6136 41.4166C93.7142 41.2292 93.7645 41.0293 93.7645 40.8168C93.7645 40.5482 93.6607 40.317 93.4533 40.1233C93.2961 39.9859 93.1232 39.9015 92.9345 39.8703C93.2992 39.7079 93.4816 39.4298 93.4816 39.0362C93.4816 38.7426 93.3464 38.4927 93.076 38.2865C92.8245 38.0991 92.4819 38.0053 92.048 38.0053C91.7022 38.0053 91.3878 38.0772 91.1049 38.2209C90.91 38.3209 90.7402 38.4521 90.5956 38.6145L91.1898 39.1299C91.2778 39.0175 91.3784 38.9331 91.4916 38.8769C91.6362 38.7957 91.806 38.7551 92.0009 38.7551C92.1895 38.7551 92.331 38.7894 92.4253 38.8582C92.5384 38.9394 92.595 39.0519 92.595 39.1955C92.595 39.333 92.5416 39.4392 92.4347 39.5142C92.3467 39.5767 92.2146 39.6079 92.0386 39.6079H91.6236V40.3576H92.1046C92.3498 40.3576 92.5259 40.392 92.6328 40.4607C92.7585 40.5419 92.8214 40.67 92.8214 40.845C92.8214 41.0386 92.7428 41.1886 92.5856 41.2948C92.4473 41.3823 92.2492 41.426 91.9914 41.426C91.7651 41.426 91.5733 41.3698 91.4161 41.2573C91.2778 41.1574 91.1741 41.0261 91.1049 40.8637L90.3693 41.2386C90.5139 41.501 90.6899 41.704 90.8974 41.8477C91.2118 42.0664 91.5922 42.1757 92.0386 42.1757ZM98.59 41.5806C98.1844 41.9774 97.6799 42.1757 97.0763 42.1757C96.4727 42.1757 95.9681 41.9774 95.5626 41.5806C95.157 41.1839 94.9543 40.6856 94.9543 40.0859C94.9543 39.4798 95.1555 38.9831 95.5579 38.5958C95.9665 38.2022 96.4727 38.0053 97.0763 38.0053C97.6799 38.0053 98.1844 38.2006 98.59 38.5911C98.9955 38.9816 99.1983 39.4798 99.1983 40.0859C99.1983 40.6856 98.9955 41.1839 98.59 41.5806ZM97.0763 41.351C96.7179 41.351 96.4318 41.2386 96.2181 41.0137C96.0043 40.7825 95.8974 40.4763 95.8974 40.0952C95.8974 39.6766 96.0122 39.3611 96.2416 39.1487C96.4711 38.9363 96.7493 38.8301 97.0763 38.8301C97.4032 38.8301 97.6815 38.9363 97.9109 39.1487C98.1404 39.3611 98.2552 39.6766 98.2552 40.0952C98.2552 40.4763 98.1483 40.7809 97.9345 41.009C97.7208 41.237 97.4347 41.351 97.0763 41.351ZM103.368 41.7915C103.129 41.9664 102.824 42.0539 102.453 42.0539H100.595V38.1084H102.152C102.548 38.1084 102.85 38.1865 103.057 38.3427C103.302 38.5364 103.425 38.7895 103.425 39.1018C103.425 39.458 103.268 39.7141 102.953 39.8703C103.154 39.9078 103.334 39.9953 103.491 40.1327C103.698 40.3202 103.802 40.5732 103.802 40.8918C103.802 41.2729 103.657 41.5728 103.368 41.7915ZM101.991 39.6454H101.52V38.8582H101.972C102.167 38.8582 102.303 38.8832 102.378 38.9331C102.485 39.0081 102.538 39.1112 102.538 39.2424C102.538 39.3799 102.479 39.4861 102.359 39.561C102.277 39.6173 102.155 39.6454 101.991 39.6454ZM101.52 41.3042H102.208C102.416 41.3042 102.576 41.2667 102.689 41.1917C102.815 41.1105 102.878 40.9949 102.878 40.845C102.878 40.6825 102.818 40.5669 102.699 40.4982C102.592 40.4295 102.438 40.3951 102.237 40.3951H101.52V41.3042ZM106.916 42.1757C107.4 42.1757 107.796 41.9977 108.104 41.6416V42.0539H109.028V38.1084H108.104V38.5676C107.815 38.1928 107.422 38.0053 106.925 38.0053C106.385 38.0053 105.927 38.1943 105.553 38.5723C105.179 38.9503 104.992 39.4517 104.992 40.0765C104.992 40.6513 105.166 41.1449 105.515 41.5572C105.864 41.9696 106.331 42.1757 106.916 42.1757ZM106.241 40.9855C106.446 41.2292 106.711 41.351 107.038 41.351C107.353 41.351 107.618 41.2417 107.835 41.023C108.052 40.8044 108.161 40.4982 108.161 40.1046C108.161 39.6985 108.052 39.3845 107.835 39.1627C107.618 38.941 107.353 38.8301 107.038 38.8301C106.711 38.8301 106.446 38.9519 106.241 39.1955C106.037 39.4392 105.935 39.7391 105.935 40.0952C105.935 40.4451 106.037 40.7419 106.241 40.9855ZM112.208 42.0539V38.9519H113.368V38.1084H110.124V38.9519H111.284V42.0539H112.208ZM117.566 41.6978C117.202 42.0164 116.759 42.1757 116.237 42.1757C115.696 42.1757 115.231 41.9977 114.841 41.6416C114.451 41.2854 114.256 40.7731 114.256 40.1046C114.256 39.4798 114.432 38.9738 114.784 38.5864C115.136 38.199 115.605 38.0053 116.19 38.0053C116.843 38.0053 117.34 38.2459 117.68 38.727C117.925 39.0768 118.047 39.5548 118.047 40.1608V40.3014H115.199C115.212 40.6388 115.327 40.8981 115.544 41.0793C115.76 41.2604 116.004 41.351 116.274 41.351C116.52 41.351 116.73 41.2792 116.906 41.1355C117.082 41.0043 117.218 40.8231 117.312 40.5919L118.085 41.023C117.941 41.2979 117.768 41.5228 117.566 41.6978ZM117.104 39.5517H115.265C115.328 39.333 115.441 39.1581 115.605 39.0269C115.768 38.8957 115.963 38.8301 116.19 38.8301C116.416 38.8301 116.612 38.8957 116.779 39.0269C116.946 39.1581 117.054 39.333 117.104 39.5517ZM120.275 41.6509C119.954 42.0071 119.52 42.1414 118.973 42.0539V41.2105C119.244 41.2729 119.46 41.2136 119.624 41.0324C119.718 40.9199 119.765 40.7481 119.765 40.517V38.1084H122.746V42.0539H121.821V38.9519H120.652V40.517C120.652 41.0043 120.526 41.3823 120.275 41.6509ZM125.894 42.0535C126.022 42.0525 126.126 42.0495 126.204 42.0445C126.301 42.0383 126.424 42.0086 126.571 41.9555C126.719 41.9024 126.846 41.8227 126.953 41.7165C127.192 41.4791 127.312 41.1636 127.312 40.77C127.312 40.4264 127.208 40.139 127 39.9078C126.887 39.7828 126.755 39.6891 126.604 39.6267C126.453 39.5642 126.325 39.5283 126.218 39.5189C126.111 39.5095 125.972 39.5048 125.803 39.5048H125.275V38.1084H124.35V42.0539L125.894 42.0535ZM125.275 41.2667H125.699C125.925 41.2667 126.086 41.2386 126.18 41.1824C126.318 41.0824 126.387 40.9481 126.387 40.7794C126.387 40.6044 126.321 40.4732 126.189 40.3858C126.089 40.3233 125.928 40.2921 125.708 40.2921H125.275V41.2667ZM129.482 42.0539V40.4139H131.123V42.0539H132.048V38.1084H131.123V39.5704H129.482V38.1084H128.558V42.0539H129.482ZM135.506 42.0445C135.428 42.0495 135.324 42.0525 135.196 42.0535L133.652 42.0539V38.1084H134.577V39.5048H135.105C135.274 39.5048 135.413 39.5095 135.52 39.5189C135.627 39.5283 135.755 39.5642 135.906 39.6267C136.057 39.6891 136.189 39.7828 136.302 39.9078C136.51 40.139 136.614 40.4264 136.614 40.77C136.614 41.1636 136.494 41.4791 136.255 41.7165C136.148 41.8227 136.021 41.9024 135.873 41.9555C135.726 42.0086 135.603 42.0383 135.506 42.0445ZM137.953 42.0539V38.1084H137.029V42.0539H137.953ZM134.577 41.2667H135.001C135.227 41.2667 135.388 41.2386 135.482 41.1824C135.62 41.0824 135.689 40.9481 135.689 40.7794C135.689 40.6044 135.623 40.4732 135.491 40.3858C135.391 40.3233 135.23 40.2921 135.01 40.2921H134.577V41.2667ZM141.387 37.5087C141.695 37.5087 142.002 37.4134 142.307 37.2228C142.612 37.0323 142.814 36.7589 142.915 36.4028L142.161 36.1873C142.035 36.5934 141.777 36.7964 141.387 36.7964C140.991 36.7964 140.733 36.5934 140.614 36.1873L139.859 36.4028C139.96 36.7589 140.163 37.0323 140.468 37.2228C140.773 37.4134 141.079 37.5087 141.387 37.5087ZM142.274 39.7578L139.558 42.3538V38.1084H140.482V40.3483L143.198 37.7523V42.0539H142.274V39.7578ZM148.36 42.0539V40.5826L148.511 40.4326L149.831 42.0539H151L149.171 39.8328L150.906 38.1084H149.68L148.36 39.5142V38.1084H147.435V42.0539H148.36ZM155.468 41.5806C155.062 41.9774 154.557 42.1757 153.954 42.1757C153.35 42.1757 152.846 41.9774 152.44 41.5806C152.035 41.1839 151.832 40.6856 151.832 40.0859C151.832 39.4798 152.033 38.9831 152.435 38.5958C152.844 38.2022 153.35 38.0053 153.954 38.0053C154.557 38.0053 155.062 38.2006 155.468 38.5911C155.873 38.9816 156.076 39.4798 156.076 40.0859C156.076 40.6856 155.873 41.1839 155.468 41.5806ZM153.954 41.351C153.596 41.351 153.309 41.2386 153.096 41.0137C152.882 40.7825 152.775 40.4763 152.775 40.0952C152.775 39.6766 152.89 39.3611 153.119 39.1487C153.349 38.9363 153.627 38.8301 153.954 38.8301C154.281 38.8301 154.559 38.9363 154.789 39.1487C155.018 39.3611 155.133 39.6766 155.133 40.0952C155.133 40.4763 155.026 40.7809 154.812 41.009C154.598 41.237 154.312 41.351 153.954 41.351ZM160.887 40.0765L159.623 42.3538L158.36 40.0765L157.964 42.0539H157.02L157.982 37.7523L159.623 40.7606L161.264 37.7523L162.226 42.0539H161.283L160.887 40.0765ZM164.303 42.0539V38.9519H165.906V42.0539H166.83V38.1084H163.378V42.0539H164.303ZM169.227 41.6509C168.907 42.0071 168.473 42.1414 167.926 42.0539V41.2105C168.196 41.2729 168.413 41.2136 168.576 41.0324C168.671 40.9199 168.718 40.7481 168.718 40.517V38.1084H171.698V42.0539H170.774V38.9519H169.604V40.517C169.604 41.0043 169.479 41.3823 169.227 41.6509ZM175.076 42.1757C175.598 42.1757 176.041 42.0164 176.406 41.6978C176.607 41.5228 176.78 41.2979 176.924 41.023L176.151 40.5919C176.057 40.8231 175.922 41.0043 175.746 41.1355C175.569 41.2792 175.359 41.351 175.114 41.351C174.843 41.351 174.6 41.2604 174.383 41.0793C174.166 40.8981 174.051 40.6388 174.039 40.3014H176.887V40.1608C176.887 39.5548 176.764 39.0768 176.519 38.727C176.179 38.2459 175.683 38.0053 175.029 38.0053C174.444 38.0053 173.976 38.199 173.624 38.5864C173.271 38.9738 173.095 39.4798 173.095 40.1046C173.095 40.7731 173.29 41.2854 173.68 41.6416C174.07 41.9977 174.535 42.1757 175.076 42.1757ZM174.105 39.5517H175.944C175.893 39.333 175.785 39.1581 175.618 39.0269C175.452 38.8957 175.255 38.8301 175.029 38.8301C174.802 38.8301 174.608 38.8957 174.444 39.0269C174.281 39.1581 174.167 39.333 174.105 39.5517ZM179.246 42.0539V40.5826L179.397 40.4326L180.717 42.0539H181.887L180.057 39.8328L181.792 38.1084H180.566L179.246 39.5142V38.1084H178.322V42.0539H179.246ZM186 41.8852C185.661 42.0789 185.296 42.1757 184.906 42.1757C184.221 42.1757 183.68 41.9758 183.284 41.576C182.907 41.1886 182.718 40.695 182.718 40.0952C182.718 39.4642 182.932 38.9456 183.359 38.5395C183.737 38.1834 184.243 38.0053 184.878 38.0053C185.312 38.0053 185.686 38.0991 186 38.2865V39.4954C185.742 39.0519 185.359 38.8301 184.849 38.8301C184.529 38.8301 184.251 38.9425 184.015 39.1674C183.779 39.3924 183.661 39.6985 183.661 40.0859C183.661 40.442 183.77 40.7419 183.986 40.9855C184.203 41.2292 184.488 41.351 184.84 41.351C185.073 41.351 185.293 41.2917 185.5 41.173C185.708 41.0543 185.874 40.8887 186 40.6763V41.8852Z" fill="#414C53"/>
<defs>
<linearGradient id="paint0_linear" x1="6.02137" y1="31.8306" x2="33.7604" y2="29.7466" gradientUnits="userSpaceOnUse">
<stop stop-color="#45BFE0"/>
<stop offset="0.502899" stop-color="#71BB73"/>
<stop offset="1" stop-color="#66B42F"/>
</linearGradient>
</defs>
</svg>
