<svg width="24" height="24" viewBox="0 0 24 24" fill="none" xmlns="http://www.w3.org/2000/svg">
<path d="M21.4615 6.72618C21.553 6.26081 21.3515 6 20.8749 6H18.4745C17.9248 6 17.7231 6.242 17.5582 6.59577C17.5582 6.59577 16.286 9.54276 14.7067 11.3133C14.1998 11.8858 14.1108 12.0579 13.831 12.0579C13.6052 12.0579 13.5011 11.8668 13.5011 11.3504V6.82624C13.5011 6.19321 13.4287 6 12.9147 6H9.09372C8.79894 6 8.60205 6.16315 8.60205 6.3995C8.60205 6.99565 9.49994 7.13019 9.49994 8.74551V12.0781C9.49994 12.7484 9.46327 13.009 9.15175 13.009C8.3272 13.009 6.18583 10.1404 5.08643 6.8635C4.8664 6.19321 4.62929 6 4.00424 6H1.6099C1.26171 6 1 6.24891 1 6.60268C1 7.25434 1.7512 10.2706 4.70157 14.3108C6.68052 17.029 9.45134 18.5 11.7968 18.5C13.2262 18.5 13.5011 18.2479 13.5011 17.6333V15.5481C13.5011 15.0268 13.7026 14.8033 13.9958 14.8033C14.3256 14.8033 14.8124 14.9212 16.1728 16.2844C17.7852 17.8483 17.8952 18.5 18.775 18.5H21.4685C21.7435 18.5 22 18.3696 22 17.9042C22 17.2896 21.2119 16.1913 20.0025 14.8879C19.5078 14.2177 18.7014 13.4917 18.4449 13.1565C18.0784 12.7655 18.1884 12.5419 18.4449 12.1325C18.4449 12.1325 21.1865 8.02949 21.4615 6.72618Z" fill="#272B2D"/>
</svg>
