<svg width="48" height="48" viewBox="0 0 48 48" fill="none" xmlns="http://www.w3.org/2000/svg">
<circle cx="24" cy="24" r="24" fill="url(#paint0_linear)"/>
<path d="M14.4901 31L15.5696 27.6832H20.8182L21.8977 31H25.1932L20.179 16.4545H16.2159L11.1946 31H14.4901ZM16.3509 25.2827L18.1406 19.7784H18.2543L20.044 25.2827H16.3509ZM29.9979 31.206C31.6101 31.206 32.6541 30.5028 33.1868 29.4872H33.272V31H36.1413V23.642C36.1413 21.0426 33.9396 19.9489 31.5107 19.9489C28.897 19.9489 27.1783 21.1989 26.7592 23.1875L29.5575 23.4148C29.7635 22.6903 30.4098 22.1577 31.4964 22.1577C32.5263 22.1577 33.1158 22.6761 33.1158 23.571V23.6136C33.1158 24.3168 32.37 24.4091 30.4737 24.5938C28.3146 24.7926 26.3757 25.517 26.3757 27.9531C26.3757 30.1122 27.9169 31.206 29.9979 31.206ZM30.8643 29.1179C29.9339 29.1179 29.2663 28.6847 29.2663 27.8537C29.2663 27.0014 29.9695 26.5824 31.0348 26.4332C31.6953 26.3409 32.7749 26.1847 33.1371 25.9432V27.1009C33.1371 28.2443 32.1925 29.1179 30.8643 29.1179Z" fill="black"/>
<defs>
<linearGradient id="paint0_linear" x1="24" y1="0" x2="24" y2="48" gradientUnits="userSpaceOnUse">
<stop stop-color="#E5EEEF"/>
<stop offset="1" stop-color="#DAE5E8"/>
</linearGradient>
</defs>
</svg>
