<svg width="26" height="16" viewBox="0 0 26 16" fill="none" xmlns="http://www.w3.org/2000/svg">
<path d="M3.49006 15L4.5696 11.6832H9.81818L10.8977 15H14.1932L9.17898 0.454545H5.21591L0.194602 15H3.49006ZM5.35085 9.28267L7.14062 3.77841H7.25426L9.04403 9.28267H5.35085ZM18.9979 15.206C20.6101 15.206 21.6541 14.5028 22.1868 13.4872H22.272V15H25.1413V7.64205C25.1413 5.04261 22.9396 3.94886 20.5107 3.94886C17.897 3.94886 16.1783 5.19886 15.7592 7.1875L18.5575 7.41477C18.7635 6.69034 19.4098 6.15767 20.4964 6.15767C21.5263 6.15767 22.1158 6.67614 22.1158 7.57102V7.61364C22.1158 8.31676 21.37 8.40909 19.4737 8.59375C17.3146 8.79261 15.3757 9.51705 15.3757 11.9531C15.3757 14.1122 16.9169 15.206 18.9979 15.206ZM19.8643 13.1179C18.9339 13.1179 18.2663 12.6847 18.2663 11.8537C18.2663 11.0014 18.9695 10.5824 20.0348 10.4332C20.6953 10.3409 21.7749 10.1847 22.1371 9.94318V11.1009C22.1371 12.2443 21.1925 13.1179 19.8643 13.1179Z" fill="black"/>
</svg>
