<svg width="301" height="54" viewBox="0 0 301 54" fill="none" xmlns="http://www.w3.org/2000/svg">
<path opacity="0.2" d="M0.363636 53V0.636362H11.4347V22.2415H33.9091V0.636362H44.9545V53H33.9091V31.3693H11.4347V53H0.363636ZM71.6222 53.767C67.6506 53.767 64.2159 52.9233 61.3182 51.2358C58.4375 49.5312 56.2131 47.1619 54.6449 44.1278C53.0767 41.0767 52.2926 37.5398 52.2926 33.517C52.2926 29.4602 53.0767 25.9148 54.6449 22.8807C56.2131 19.8295 58.4375 17.4602 61.3182 15.7727C64.2159 14.0682 67.6506 13.2159 71.6222 13.2159C75.5938 13.2159 79.0199 14.0682 81.9006 15.7727C84.7983 17.4602 87.0312 19.8295 88.5994 22.8807C90.1676 25.9148 90.9517 29.4602 90.9517 33.517C90.9517 37.5398 90.1676 41.0767 88.5994 44.1278C87.0312 47.1619 84.7983 49.5312 81.9006 51.2358C79.0199 52.9233 75.5938 53.767 71.6222 53.767ZM71.6733 45.3295C74.3665 45.3295 76.4034 44.2045 77.7841 41.9545C79.1818 39.7045 79.8807 36.8665 79.8807 33.4403C79.8807 30.0142 79.1818 27.1761 77.7841 24.9261C76.4034 22.6591 74.3665 21.5256 71.6733 21.5256C68.929 21.5256 66.858 22.6591 65.4602 24.9261C64.0625 27.1761 63.3636 30.0142 63.3636 33.4403C63.3636 36.8665 64.0625 39.7045 65.4602 41.9545C66.858 44.2045 68.929 45.3295 71.6733 45.3295ZM98.0341 53V13.7273H114.781C119.622 13.7273 123.449 14.6477 126.261 16.4886C129.074 18.3125 130.48 20.929 130.48 24.3381C130.48 26.4517 129.688 28.2244 128.102 29.6562C126.517 31.071 124.318 32.0256 121.506 32.5199C125.034 32.7756 127.77 33.8239 129.713 35.6648C131.673 37.4886 132.653 39.696 132.653 42.2869C132.653 45.6278 131.332 48.2528 128.69 50.1619C126.048 52.054 122.273 53 117.364 53H98.0341ZM108.185 44.8438H117.364C118.881 44.8438 120.065 44.4858 120.918 43.7699C121.787 43.0369 122.222 42.0398 122.222 40.7784C122.222 39.3807 121.787 38.2812 120.918 37.4801C120.065 36.679 118.881 36.2784 117.364 36.2784H108.185V44.8438ZM108.185 29.8864H115.011C116.631 29.8864 117.901 29.5369 118.821 28.8381C119.759 28.1392 120.227 27.1676 120.227 25.9233C120.227 24.7131 119.741 23.767 118.77 23.0852C117.798 22.4034 116.469 22.0625 114.781 22.0625H108.185V29.8864ZM157.263 53.767C153.291 53.767 149.857 52.9233 146.959 51.2358C144.078 49.5312 141.854 47.1619 140.286 44.1278C138.717 41.0767 137.933 37.5398 137.933 33.517C137.933 29.4602 138.717 25.9148 140.286 22.8807C141.854 19.8295 144.078 17.4602 146.959 15.7727C149.857 14.0682 153.291 13.2159 157.263 13.2159C161.234 13.2159 164.661 14.0682 167.541 15.7727C170.439 17.4602 172.672 19.8295 174.24 22.8807C175.808 25.9148 176.592 29.4602 176.592 33.517C176.592 37.5398 175.808 41.0767 174.24 44.1278C172.672 47.1619 170.439 49.5312 167.541 51.2358C164.661 52.9233 161.234 53.767 157.263 53.767ZM157.314 45.3295C160.007 45.3295 162.044 44.2045 163.425 41.9545C164.822 39.7045 165.521 36.8665 165.521 33.4403C165.521 30.0142 164.822 27.1761 163.425 24.9261C162.044 22.6591 160.007 21.5256 157.314 21.5256C154.57 21.5256 152.499 22.6591 151.101 24.9261C149.703 27.1761 149.004 30.0142 149.004 33.4403C149.004 36.8665 149.703 39.7045 151.101 41.9545C152.499 44.2045 154.57 45.3295 157.314 45.3295ZM201.419 53.767C197.396 53.767 193.936 52.9148 191.038 51.2102C188.158 49.4886 185.942 47.1023 184.391 44.0511C182.857 41 182.089 37.4886 182.089 33.517C182.089 29.4943 182.865 25.9659 184.416 22.9318C185.984 19.8807 188.209 17.5028 191.089 15.7983C193.97 14.0767 197.396 13.2159 201.368 13.2159C204.794 13.2159 207.794 13.8381 210.368 15.0824C212.959 16.3267 214.996 18.0739 216.479 20.3239C217.979 22.5739 218.805 25.2159 218.959 28.25H208.68C208.391 26.2898 207.624 24.7131 206.379 23.5199C205.152 22.3097 203.541 21.7045 201.547 21.7045C199.024 21.7045 196.996 22.7187 195.462 24.7472C193.928 26.7756 193.161 29.6477 193.161 33.3636C193.161 37.1136 193.919 40.0199 195.436 42.0824C196.97 44.1278 199.007 45.1506 201.547 45.1506C203.422 45.1506 204.999 44.5881 206.277 43.4631C207.555 42.321 208.357 40.7017 208.68 38.6051H218.959C218.788 41.6051 217.97 44.2472 216.504 46.5312C215.055 48.8153 213.053 50.5966 210.496 51.875C207.939 53.1364 204.913 53.767 201.419 53.767ZM223.325 22.2926V13.7273H258.915V22.2926H246.259V53H235.879V22.2926H223.325ZM275.925 38.6307L290.064 13.7273H300.803V53H290.422V28.0199L276.334 53H265.518V13.7273H275.925V38.6307Z" fill="url(#paint0_linear)"/>
<defs>
<linearGradient id="paint0_linear" x1="-16.1071" y1="26.1064" x2="318.218" y2="26.1064" gradientUnits="userSpaceOnUse">
<stop stop-color="#B9D4E4"/>
<stop offset="1" stop-color="#B9D4E4"/>
</linearGradient>
</defs>
</svg>
