<svg width="48" height="48" viewBox="0 0 48 48" fill="none" xmlns="http://www.w3.org/2000/svg">
<circle opacity="0.9" cx="24" cy="24" r="24" fill="#3D4B53"/>
<path fill-rule="evenodd" clip-rule="evenodd" d="M12 24C12 23.1716 12.6716 22.5 13.5 22.5H30.8775L27.4393 19.0607C26.8986 18.5199 26.857 17.6691 27.3146 17.0807L27.4393 16.9393C27.9801 16.3986 28.8309 16.357 29.4193 16.8146L29.5607 16.9393L35.5607 22.9393L35.6228 23.0053L35.7055 23.107L35.813 23.2739L35.8932 23.443L35.9462 23.601L35.9897 23.8238L36 24L35.9958 24.1129L35.9696 24.3011L35.9254 24.4682L35.8595 24.6348L35.781 24.7811L35.6808 24.9251C35.6435 24.9727 35.6034 25.018 35.5607 25.0607L29.5607 31.0607C28.9749 31.6464 28.0251 31.6464 27.4393 31.0607C26.8986 30.5199 26.857 29.6691 27.3146 29.0807L27.4393 28.9393L30.8775 25.5H13.5C12.6716 25.5 12 24.8284 12 24Z" fill="white"/>
</svg>
