<svg width="32" height="32" viewBox="0 0 32 32" fill="none" xmlns="http://www.w3.org/2000/svg">
<path d="M24.5 30.5H7.5C6.70435 30.5 5.94129 30.1839 5.37868 29.6213C4.81607 29.0587 4.5 28.2956 4.5 27.5V4.5C4.5 3.70435 4.81607 2.94129 5.37868 2.37868C5.94129 1.81607 6.70435 1.5 7.5 1.5H21.5L27.5 7.5V27.5C27.5 28.2956 27.1839 29.0587 26.6213 29.6213C26.0587 30.1839 25.2956 30.5 24.5 30.5Z" fill="#EEFFEF"/>
<path d="M8.5 8.5H13.5V14.5H8.5V8.5Z" fill="#55BA60"/>
<path d="M4.5 22.5H27.5V27.5C27.5 28.2956 27.1839 29.0587 26.6213 29.6213C26.0587 30.1839 25.2956 30.5 24.5 30.5H7.5C6.70435 30.5 5.94129 30.1839 5.37868 29.6213C4.81607 29.0587 4.5 28.2956 4.5 27.5V22.5Z" fill="#55BA60"/>
<path d="M27.5 7.5H24.5C23.7044 7.5 22.9413 7.18393 22.3787 6.62132C21.8161 6.05871 21.5 5.29565 21.5 4.5V1.5L27.5 7.5Z" fill="#55BA60"/>
<path d="M23.5 11H15.5C15.3674 11 15.2402 10.9473 15.1464 10.8536C15.0527 10.7598 15 10.6326 15 10.5C15 10.3674 15.0527 10.2402 15.1464 10.1464C15.2402 10.0527 15.3674 10 15.5 10H23.5C23.6326 10 23.7598 10.0527 23.8536 10.1464C23.9473 10.2402 24 10.3674 24 10.5C24 10.6326 23.9473 10.7598 23.8536 10.8536C23.7598 10.9473 23.6326 11 23.5 11Z" fill="#55BA60"/>
<path d="M17.5 13H15.5C15.3674 13 15.2402 12.9473 15.1464 12.8536C15.0527 12.7598 15 12.6326 15 12.5C15 12.3674 15.0527 12.2402 15.1464 12.1464C15.2402 12.0527 15.3674 12 15.5 12H17.5C17.6326 12 17.7598 12.0527 17.8536 12.1464C17.9473 12.2402 18 12.3674 18 12.5C18 12.6326 17.9473 12.7598 17.8536 12.8536C17.7598 12.9473 17.6326 13 17.5 13Z" fill="#55BA60"/>
<path d="M23.5 15H15.5C15.3674 15 15.2402 14.9473 15.1464 14.8536C15.0527 14.7598 15 14.6326 15 14.5C15 14.3674 15.0527 14.2402 15.1464 14.1464C15.2402 14.0527 15.3674 14 15.5 14H23.5C23.6326 14 23.7598 14.0527 23.8536 14.1464C23.9473 14.2402 24 14.3674 24 14.5C24 14.6326 23.9473 14.7598 23.8536 14.8536C23.7598 14.9473 23.6326 15 23.5 15Z" fill="#55BA60"/>
<path d="M20 17H8.5C8.36739 17 8.24021 16.9473 8.14645 16.8536C8.05268 16.7598 8 16.6326 8 16.5C8 16.3674 8.05268 16.2402 8.14645 16.1464C8.24021 16.0527 8.36739 16 8.5 16H20C20.1326 16 20.2598 16.0527 20.3536 16.1464C20.4473 16.2402 20.5 16.3674 20.5 16.5C20.5 16.6326 20.4473 16.7598 20.3536 16.8536C20.2598 16.9473 20.1326 17 20 17Z" fill="#55BA60"/>
<path d="M23.5 13H19.5C19.3674 13 19.2402 12.9473 19.1464 12.8536C19.0527 12.7598 19 12.6326 19 12.5C19 12.3674 19.0527 12.2402 19.1464 12.1464C19.2402 12.0527 19.3674 12 19.5 12H23.5C23.6326 12 23.7598 12.0527 23.8536 12.1464C23.9473 12.2402 24 12.3674 24 12.5C24 12.6326 23.9473 12.7598 23.8536 12.8536C23.7598 12.9473 23.6326 13 23.5 13Z" fill="#55BA60"/>
<path d="M23.5 17H22C21.8674 17 21.7402 16.9473 21.6464 16.8536C21.5527 16.7598 21.5 16.6326 21.5 16.5C21.5 16.3674 21.5527 16.2402 21.6464 16.1464C21.7402 16.0527 21.8674 16 22 16H23.5C23.6326 16 23.7598 16.0527 23.8536 16.1464C23.9473 16.2402 24 16.3674 24 16.5C24 16.6326 23.9473 16.7598 23.8536 16.8536C23.7598 16.9473 23.6326 17 23.5 17Z" fill="#55BA60"/>
<path d="M11.5 19H8.5C8.36739 19 8.24021 18.9473 8.14645 18.8536C8.05268 18.7598 8 18.6326 8 18.5C8 18.3674 8.05268 18.2402 8.14645 18.1464C8.24021 18.0527 8.36739 18 8.5 18H11.5C11.6326 18 11.7598 18.0527 11.8536 18.1464C11.9473 18.2402 12 18.3674 12 18.5C12 18.6326 11.9473 18.7598 11.8536 18.8536C11.7598 18.9473 11.6326 19 11.5 19Z" fill="#55BA60"/>
<path d="M18.5 19H13.5C13.3674 19 13.2402 18.9473 13.1464 18.8536C13.0527 18.7598 13 18.6326 13 18.5C13 18.3674 13.0527 18.2402 13.1464 18.1464C13.2402 18.0527 13.3674 18 13.5 18H18.5C18.6326 18 18.7598 18.0527 18.8536 18.1464C18.9473 18.2402 19 18.3674 19 18.5C19 18.6326 18.9473 18.7598 18.8536 18.8536C18.7598 18.9473 18.6326 19 18.5 19Z" fill="#55BA60"/>
<path d="M23.5 19H20.5C20.3674 19 20.2402 18.9473 20.1464 18.8536C20.0527 18.7598 20 18.6326 20 18.5C20 18.3674 20.0527 18.2402 20.1464 18.1464C20.2402 18.0527 20.3674 18 20.5 18H23.5C23.6326 18 23.7598 18.0527 23.8536 18.1464C23.9473 18.2402 24 18.3674 24 18.5C24 18.6326 23.9473 18.7598 23.8536 18.8536C23.7598 18.9473 23.6326 19 23.5 19Z" fill="#55BA60"/>
<path d="M19.5 9H15.5C15.3674 9 15.2402 8.94732 15.1464 8.85355C15.0527 8.75979 15 8.63261 15 8.5C15 8.36739 15.0527 8.24021 15.1464 8.14645C15.2402 8.05268 15.3674 8 15.5 8H19.5C19.6326 8 19.7598 8.05268 19.8536 8.14645C19.9473 8.24021 20 8.36739 20 8.5C20 8.63261 19.9473 8.75979 19.8536 8.85355C19.7598 8.94732 19.6326 9 19.5 9Z" fill="#55BA60"/>
<path d="M21 24H19C18.8674 24 18.7402 24.0527 18.6464 24.1464C18.5527 24.2402 18.5 24.3674 18.5 24.5V28.5C18.5 28.6326 18.5527 28.7598 18.6464 28.8536C18.7402 28.9473 18.8674 29 19 29C19.1326 29 19.2598 28.9473 19.3536 28.8536C19.4473 28.7598 19.5 28.6326 19.5 28.5V27H20C20.1326 27 20.2598 26.9473 20.3536 26.8536C20.4473 26.7598 20.5 26.6326 20.5 26.5C20.5 26.3674 20.4473 26.2402 20.3536 26.1464C20.2598 26.0527 20.1326 26 20 26H19.5V25H21C21.1326 25 21.2598 24.9473 21.3536 24.8536C21.4473 24.7598 21.5 24.6326 21.5 24.5C21.5 24.3674 21.4473 24.2402 21.3536 24.1464C21.2598 24.0527 21.1326 24 21 24Z" fill="white"/>
<path d="M12 24H11C10.8674 24 10.7402 24.0527 10.6464 24.1464C10.5527 24.2402 10.5 24.3674 10.5 24.5V28.5C10.5 28.6326 10.5527 28.7598 10.6464 28.8536C10.7402 28.9473 10.8674 29 11 29C11.1326 29 11.2598 28.9473 11.3536 28.8536C11.4473 28.7598 11.5 28.6326 11.5 28.5V27H12C12.3978 27 12.7794 26.842 13.0607 26.5607C13.342 26.2794 13.5 25.8978 13.5 25.5C13.5 25.1022 13.342 24.7206 13.0607 24.4393C12.7794 24.158 12.3978 24 12 24ZM12 26H11.5V25H12C12.1326 25 12.2598 25.0527 12.3536 25.1464C12.4473 25.2402 12.5 25.3674 12.5 25.5C12.5 25.6326 12.4473 25.7598 12.3536 25.8536C12.2598 25.9473 12.1326 26 12 26Z" fill="white"/>
<path d="M15 24C14.8674 24 14.7402 24.0527 14.6464 24.1464C14.5527 24.2402 14.5 24.3674 14.5 24.5V28.5C14.5 28.6326 14.5527 28.7598 14.6464 28.8536C14.7402 28.9473 14.8674 29 15 29C15.663 29 16.2989 28.7366 16.7678 28.2678C17.2366 27.7989 17.5 27.163 17.5 26.5C17.5 25.837 17.2366 25.2011 16.7678 24.7322C16.2989 24.2634 15.663 24 15 24ZM15.5 27.9143V25.0857C15.7925 25.189 16.0458 25.3806 16.2249 25.6339C16.4041 25.8871 16.5003 26.1898 16.5003 26.5C16.5003 26.8102 16.4041 27.1129 16.2249 27.3661C16.0458 27.6194 15.7925 27.811 15.5 27.9143Z" fill="white"/>
</svg>
