<svg width="609" height="57" viewBox="0 0 609 57" fill="none" xmlns="http://www.w3.org/2000/svg">
<path opacity="0.2" d="M18.0511 5.55114H18.5412V0.0965912H27.2983V5.55114H27.8097C31.304 5.55114 34.4006 6.28977 37.0994 7.76704C39.8125 9.23011 41.9361 11.304 43.4702 13.9886C45.0185 16.6591 45.7926 19.8054 45.7926 23.4276C45.7926 26.9219 45.0185 29.9759 43.4702 32.5895C41.9361 35.1889 39.8125 37.206 37.0994 38.6406C34.4006 40.0753 31.304 40.7926 27.8097 40.7926H27.2983V46.2898H18.5412V40.7926H18.0511C14.5426 40.7926 11.4318 40.0824 8.71875 38.6619C6.00568 37.2273 3.875 35.2102 2.3267 32.6108C0.792614 29.9972 0.0255682 26.929 0.0255682 23.4062C0.0255682 19.7983 0.799716 16.6591 2.34801 13.9886C3.91051 11.304 6.0483 9.23011 8.76136 7.76704C11.4744 6.28977 14.571 5.55114 18.0511 5.55114ZM18.0511 13.2642C15.2386 13.2642 12.9517 14.1094 11.1903 15.7997C9.44318 17.4759 8.5696 20.0114 8.5696 23.4062C8.5696 26.6449 9.45739 29.0668 11.233 30.6719C13.0227 32.277 15.2955 33.0795 18.0511 33.0795H18.5412V13.2642H18.0511ZM27.2983 13.2642V33.0795H27.8736C30.6577 33.0795 32.902 32.2628 34.6065 30.6293C36.3253 28.9957 37.1847 26.5952 37.1847 23.4276C37.1847 20.0469 36.3253 17.5114 34.6065 15.821C32.902 14.1165 30.6577 13.2642 27.8736 13.2642H27.2983ZM61.0909 32.5256L72.8736 11.7727H81.8224V44.5H73.1719V23.6832L61.4318 44.5H52.419V11.7727H61.0909V32.5256ZM87.1811 44.5L87.1385 37.2983H88.2251C89.7734 37.2983 90.9027 36.4957 91.6129 34.8906C92.3232 33.2855 92.7564 30.4091 92.9126 26.2614L93.4453 11.7727H118.332V44.5H109.681V18.9105H101.606L101.094 28.9034C100.825 34.4006 99.7592 38.3778 97.8984 40.8352C96.0518 43.2784 93.3885 44.5 89.9084 44.5H87.1811ZM140.155 45.1392C136.846 45.1392 133.983 44.4361 131.569 43.0298C129.168 41.6094 127.314 39.6349 126.007 37.1065C124.701 34.5639 124.047 31.6165 124.047 28.2642C124.047 24.8835 124.701 21.929 126.007 19.4006C127.314 16.858 129.168 14.8835 131.569 13.4773C133.983 12.0568 136.846 11.3466 140.155 11.3466C143.465 11.3466 146.32 12.0568 148.721 13.4773C151.135 14.8835 152.996 16.858 154.303 19.4006C155.61 21.929 156.263 24.8835 156.263 28.2642C156.263 31.6165 155.61 34.5639 154.303 37.1065C152.996 39.6349 151.135 41.6094 148.721 43.0298C146.32 44.4361 143.465 45.1392 140.155 45.1392ZM140.198 38.108C142.442 38.108 144.14 37.1705 145.29 35.2955C146.455 33.4205 147.037 31.0554 147.037 28.2003C147.037 25.3452 146.455 22.9801 145.29 21.1051C144.14 19.2159 142.442 18.2713 140.198 18.2713C137.911 18.2713 136.185 19.2159 135.02 21.1051C133.855 22.9801 133.273 25.3452 133.273 28.2003C133.273 31.0554 133.855 33.4205 135.02 35.2955C136.185 37.1705 137.911 38.108 140.198 38.108ZM176.952 45.1392C173.6 45.1392 170.716 44.429 168.301 43.0085C165.901 41.5739 164.054 39.5852 162.762 37.0426C161.483 34.5 160.844 31.5739 160.844 28.2642C160.844 24.9119 161.49 21.9716 162.783 19.4432C164.09 16.9006 165.944 14.919 168.344 13.4986C170.745 12.0639 173.6 11.3466 176.909 11.3466C179.765 11.3466 182.265 11.8651 184.409 12.902C186.569 13.9389 188.266 15.3949 189.502 17.2699C190.752 19.1449 191.441 21.3466 191.569 23.875H183.003C182.762 22.2415 182.123 20.9276 181.086 19.9332C180.063 18.9247 178.721 18.4205 177.059 18.4205C174.956 18.4205 173.266 19.2656 171.988 20.956C170.709 22.6463 170.07 25.0398 170.07 28.1364C170.07 31.2614 170.702 33.6832 171.966 35.402C173.245 37.1065 174.942 37.9588 177.059 37.9588C178.621 37.9588 179.935 37.4901 181 36.5526C182.066 35.6009 182.733 34.2514 183.003 32.5043H191.569C191.426 35.0043 190.745 37.206 189.523 39.1094C188.316 41.0128 186.647 42.4972 184.516 43.5625C182.385 44.6136 179.864 45.1392 176.952 45.1392ZM212.167 45.1392C208.857 45.1392 205.995 44.4361 203.58 43.0298C201.18 41.6094 199.326 39.6349 198.019 37.1065C196.712 34.5639 196.059 31.6165 196.059 28.2642C196.059 24.8835 196.712 21.929 198.019 19.4006C199.326 16.858 201.18 14.8835 203.58 13.4773C205.995 12.0568 208.857 11.3466 212.167 11.3466C215.477 11.3466 218.332 12.0568 220.732 13.4773C223.147 14.8835 225.008 16.858 226.315 19.4006C227.621 21.929 228.275 24.8835 228.275 28.2642C228.275 31.6165 227.621 34.5639 226.315 37.1065C225.008 39.6349 223.147 41.6094 220.732 43.0298C218.332 44.4361 215.477 45.1392 212.167 45.1392ZM212.21 38.108C214.454 38.108 216.151 37.1705 217.302 35.2955C218.467 33.4205 219.049 31.0554 219.049 28.2003C219.049 25.3452 218.467 22.9801 217.302 21.1051C216.151 19.2159 214.454 18.2713 212.21 18.2713C209.923 18.2713 208.197 19.2159 207.032 21.1051C205.867 22.9801 205.285 25.3452 205.285 28.2003C205.285 31.0554 205.867 33.4205 207.032 35.2955C208.197 37.1705 209.923 38.108 212.21 38.108ZM249.837 55.6222V45.1392C246.499 45.1392 243.552 44.429 240.995 43.0085C238.452 41.5739 236.457 39.5923 235.008 37.0639C233.573 34.5213 232.856 31.5881 232.856 28.2642C232.856 24.9119 233.573 21.9716 235.008 19.4432C236.457 16.9006 238.452 14.919 240.995 13.4986C243.552 12.0639 246.499 11.3466 249.837 11.3466V0.863635H258.893V11.3466C262.231 11.3466 265.171 12.0639 267.714 13.4986C270.271 14.919 272.266 16.9006 273.701 19.4432C275.15 21.9716 275.874 24.9119 275.874 28.2642C275.874 31.5881 275.15 34.5213 273.701 37.0639C272.266 39.5923 270.271 41.5739 267.714 43.0085C265.171 44.429 262.231 45.1392 258.893 45.1392V55.6222H249.837ZM258.893 38.0653C260.526 38.0653 261.911 37.6321 263.048 36.7656C264.184 35.8849 265.05 34.706 265.647 33.2287C266.258 31.7372 266.563 30.0824 266.563 28.2642C266.563 26.4318 266.258 24.777 265.647 23.2997C265.05 21.8082 264.184 20.6222 263.048 19.7415C261.911 18.8608 260.526 18.4205 258.893 18.4205V38.0653ZM249.837 38.0653V18.4205C248.218 18.4205 246.833 18.8608 245.683 19.7415C244.546 20.6222 243.68 21.8082 243.083 23.2997C242.487 24.777 242.188 26.4318 242.188 28.2642C242.188 30.0824 242.487 31.7372 243.083 33.2287C243.694 34.706 244.567 35.8849 245.704 36.7656C246.854 37.6321 248.232 38.0653 249.837 38.0653ZM290.485 32.5256L302.268 11.7727H311.217V44.5H302.566V23.6832L290.826 44.5H281.814V11.7727H290.485V32.5256ZM337.669 44.5V32.696H331.853L325.567 44.5H316.874L323.926 31.3111C321.966 30.4588 320.453 29.2798 319.388 27.7741C318.323 26.2543 317.797 24.5 317.811 22.5114C317.797 19.3153 319.019 16.7301 321.476 14.7557C323.948 12.767 327.3 11.7727 331.533 11.7727H346.128V44.5H337.669ZM337.669 26.5597V18.8892H331.533C329.857 18.8892 328.586 19.2727 327.719 20.0398C326.867 20.8068 326.448 21.7159 326.462 22.767C326.448 23.8324 326.86 24.7344 327.698 25.473C328.55 26.1974 329.8 26.5597 331.448 26.5597H337.669ZM367.067 44.5V11.7727H395.683V44.5H387.011V18.9105H375.633V44.5H367.067ZM402.927 56.7727V11.7727H411.876V17.2699H412.281C412.692 16.375 413.275 15.473 414.028 14.5639C414.781 13.6548 415.775 12.8949 417.011 12.2841C418.246 11.6591 419.773 11.3466 421.592 11.3466C423.992 11.3466 426.194 11.9716 428.197 13.2216C430.2 14.4574 431.805 16.3253 433.012 18.8253C434.234 21.3111 434.844 24.429 434.844 28.179C434.844 31.8295 434.255 34.9119 433.076 37.4261C431.897 39.9261 430.306 41.8224 428.303 43.1151C426.3 44.3935 424.056 45.0327 421.57 45.0327C419.809 45.0327 418.31 44.7415 417.075 44.1591C415.853 43.5767 414.852 42.8452 414.07 41.9645C413.303 41.0696 412.707 40.1676 412.281 39.2585H412.004V56.7727H402.927ZM411.812 28.1364C411.812 31.0483 412.408 33.392 413.602 35.1676C414.809 36.929 416.506 37.8097 418.694 37.8097C420.924 37.8097 422.629 36.9148 423.808 35.125C424.987 33.321 425.576 30.9915 425.576 28.1364C425.576 25.2955 424.987 22.9943 423.808 21.233C422.643 19.4574 420.938 18.5696 418.694 18.5696C416.492 18.5696 414.795 19.4361 413.602 21.169C412.408 22.8878 411.812 25.2102 411.812 28.1364ZM455.683 45.1392C452.373 45.1392 449.511 44.4361 447.096 43.0298C444.695 41.6094 442.842 39.6349 441.535 37.1065C440.228 34.5639 439.575 31.6165 439.575 28.2642C439.575 24.8835 440.228 21.929 441.535 19.4006C442.842 16.858 444.695 14.8835 447.096 13.4773C449.511 12.0568 452.373 11.3466 455.683 11.3466C458.992 11.3466 461.847 12.0568 464.248 13.4773C466.663 14.8835 468.523 16.858 469.83 19.4006C471.137 21.929 471.79 24.8835 471.79 28.2642C471.79 31.6165 471.137 34.5639 469.83 37.1065C468.523 39.6349 466.663 41.6094 464.248 43.0298C461.847 44.4361 458.992 45.1392 455.683 45.1392ZM455.725 38.108C457.969 38.108 459.667 37.1705 460.817 35.2955C461.982 33.4205 462.565 31.0554 462.565 28.2003C462.565 25.3452 461.982 22.9801 460.817 21.1051C459.667 19.2159 457.969 18.2713 455.725 18.2713C453.438 18.2713 451.712 19.2159 450.548 21.1051C449.383 22.9801 448.8 25.3452 448.8 28.2003C448.8 31.0554 449.383 33.4205 450.548 35.2955C451.712 37.1705 453.438 38.108 455.725 38.108ZM492.607 45.1392C489.255 45.1392 486.364 44.4574 483.935 43.0938C481.506 41.7159 479.638 39.7699 478.332 37.2557C477.025 34.7273 476.371 31.7372 476.371 28.2855C476.371 24.919 477.025 21.9645 478.332 19.4219C479.638 16.8793 481.478 14.8977 483.85 13.4773C486.237 12.0568 489.035 11.3466 492.245 11.3466C495.129 11.3466 497.728 11.9574 500.043 13.179C502.373 14.4006 504.219 16.2472 505.583 18.7188C506.947 21.1761 507.629 24.2585 507.629 27.9659V30.4588H485.342V30.4801C485.342 32.9233 486.009 34.848 487.344 36.2543C488.68 37.6605 490.484 38.3636 492.756 38.3636C494.276 38.3636 495.59 38.044 496.698 37.4048C497.806 36.7656 498.587 35.821 499.042 34.571L507.437 35.125C506.798 38.1648 505.178 40.5937 502.579 42.4119C499.979 44.2301 496.656 45.1392 492.607 45.1392ZM485.342 24.8338H499.085C499.07 22.8878 498.445 21.2827 497.21 20.0185C495.974 18.7543 494.369 18.1222 492.394 18.1222C490.377 18.1222 488.722 18.7756 487.43 20.0824C486.137 21.3892 485.441 22.973 485.342 24.8338ZM513.552 44.5V11.7727H522.629V24.4716H525.185L534.092 11.7727H544.745L533.175 28.0085L544.873 44.5H534.092L526.016 32.8878H522.629V44.5H513.552ZM547.004 18.9105V11.7727H576.663V18.9105H566.116V44.5H557.465V18.9105H547.004ZM590.326 45.1179C587.201 45.1179 584.608 44.3011 582.549 42.6676C580.489 41.0341 579.459 38.598 579.459 35.3594C579.459 32.9162 580.034 30.9986 581.185 29.6065C582.336 28.2145 583.841 27.1989 585.702 26.5597C587.577 25.9062 589.594 25.4801 591.753 25.2812C594.594 24.9972 596.625 24.6989 597.847 24.3864C599.069 24.0739 599.679 23.392 599.679 22.3409V22.2131C599.679 20.8636 599.253 19.8196 598.401 19.081C597.563 18.3423 596.37 17.973 594.821 17.973C593.188 17.973 591.888 18.3281 590.922 19.0384C589.956 19.7486 589.317 20.6506 589.005 21.7443L580.61 21.0625C581.235 18.0795 582.783 15.7145 585.255 13.9673C587.74 12.2202 590.944 11.3466 594.864 11.3466C597.293 11.3466 599.566 11.7301 601.682 12.4972C603.799 13.2642 605.503 14.4645 606.796 16.098C608.103 17.7173 608.756 19.8267 608.756 22.4261V44.5H600.148V39.9616H599.892C599.097 41.4815 597.904 42.7244 596.313 43.6903C594.736 44.642 592.74 45.1179 590.326 45.1179ZM592.925 38.8537C594.914 38.8537 596.547 38.2784 597.826 37.1278C599.104 35.9631 599.743 34.5213 599.743 32.8026V29.3295C599.388 29.571 598.834 29.7841 598.081 29.9688C597.343 30.1534 596.547 30.3168 595.695 30.4588C594.857 30.5866 594.104 30.7003 593.436 30.7997C591.846 31.027 590.56 31.4744 589.58 32.142C588.614 32.8097 588.131 33.7827 588.131 35.0611C588.131 36.3111 588.578 37.2557 589.473 37.8949C590.382 38.5341 591.533 38.8537 592.925 38.8537Z" fill="url(#paint0_linear)"/>
<defs>
<linearGradient id="paint0_linear" x1="-25.6429" y1="34.7553" x2="655.907" y2="34.7553" gradientUnits="userSpaceOnUse">
<stop stop-color="#B9D4E4"/>
<stop offset="1" stop-color="#B9D4E4"/>
</linearGradient>
</defs>
</svg>
