<svg width="48" height="48" viewBox="0 0 48 48" fill="none" xmlns="http://www.w3.org/2000/svg">
<circle opacity="0.9" cx="24" cy="24" r="24" fill="#3D4B53"/>
<path fill-rule="evenodd" clip-rule="evenodd" d="M36 24C36 24.8284 35.3284 25.5 34.5 25.5H17.1225L20.5607 28.9393C21.1014 29.4801 21.143 30.3309 20.6854 30.9193L20.5607 31.0607C20.0199 31.6014 19.1691 31.643 18.5807 31.1854L18.4393 31.0607L12.4393 25.0607L12.3772 24.9947L12.2945 24.893L12.187 24.7261L12.1068 24.557L12.0538 24.399L12.0103 24.1762L12 24L12.0042 23.8871L12.0304 23.6989L12.0746 23.5318L12.1405 23.3652L12.219 23.2189L12.3192 23.0749C12.3565 23.0273 12.3966 22.982 12.4393 22.9393L18.4393 16.9393C19.0251 16.3536 19.9749 16.3536 20.5607 16.9393C21.1014 17.4801 21.143 18.3309 20.6854 18.9193L20.5607 19.0607L17.1225 22.5H34.5C35.3284 22.5 36 23.1716 36 24Z" fill="white"/>
</svg>
