<svg width="32" height="32" viewBox="0 0 32 32" fill="none" xmlns="http://www.w3.org/2000/svg">
<path fill-rule="evenodd" clip-rule="evenodd" d="M4.00001 5.33337H13.3333C14.0171 5.33337 14.5807 5.84809 14.6577 6.51121L14.6667 6.66671V17.3334C14.6667 17.4289 14.6564 17.524 14.6361 17.6171L14.5983 17.755L11.9316 25.755C11.7666 26.25 11.3305 26.5985 10.8214 26.6577L10.6667 26.6667H5.33334C4.4768 26.6667 3.85716 25.8769 4.02716 25.0642L4.06843 24.9117L6.1501 18.6667H4.00001C3.31622 18.6667 2.75266 18.152 2.67564 17.4889L2.66667 17.3334V6.66671C2.66667 5.98293 3.18139 5.41936 3.84451 5.34234L4.00001 5.33337H13.3333H4.00001ZM18.6667 5.33337H28C28.6838 5.33337 29.2473 5.84809 29.3244 6.51121L29.3333 6.66671V17.3334C29.3333 17.4289 29.3231 17.524 29.3028 17.6171L29.2649 17.755L26.5982 25.755C26.4333 26.25 25.9972 26.5985 25.4881 26.6577L25.3333 26.6667H20C19.1435 26.6667 18.5238 25.8769 18.6938 25.0642L18.7351 24.9117L20.8168 18.6667H18.6667C17.9829 18.6667 17.4193 18.152 17.3423 17.4889L17.3333 17.3334V6.66671C17.3333 5.98293 17.8481 5.41936 18.5112 5.34234L18.6667 5.33337H28H18.6667ZM12 8.00004H5.33334V16H8C8.85655 16 9.47618 16.7898 9.30618 17.6025L9.26492 17.755L7.18324 24H9.70566L12 17.117V8.00004ZM26.6667 8.00004H20V16H22.6667C23.5232 16 24.1428 16.7898 23.9728 17.6025L23.9316 17.755L21.8499 24H24.3723L26.6667 17.117V8.00004Z" fill="#6ACEEC"/>
</svg>
