<svg width="48" height="48" viewBox="0 0 48 48" fill="none" xmlns="http://www.w3.org/2000/svg">
<circle cx="24" cy="24" r="24" fill="url(#paint0_linear)"/>
<path d="M16.2592 30L17.2195 27.1307H21.5945L22.5604 30H24.8104L20.7081 18.3636H18.1058L14.0092 30H16.2592ZM17.7876 25.4375L19.3615 20.75H19.4524L21.0263 25.4375H17.7876ZM28.7635 30.1761C30.1328 30.1761 30.951 29.5341 31.326 28.8011H31.3942V30H33.3714V24.1591C33.3714 21.8523 31.4908 21.1591 29.826 21.1591C27.9908 21.1591 26.5817 21.9773 26.1271 23.5682L28.0476 23.8409C28.2521 23.2443 28.8317 22.733 29.8374 22.733C30.7919 22.733 31.3146 23.2216 31.3146 24.0795V24.1136C31.3146 24.7045 30.6953 24.733 29.1555 24.8977C27.4624 25.0795 25.843 25.5852 25.843 27.5511C25.843 29.267 27.0987 30.1761 28.7635 30.1761ZM29.2976 28.6648C28.4396 28.6648 27.826 28.2727 27.826 27.517C27.826 26.7273 28.5135 26.3977 29.4339 26.267C29.9737 26.1932 31.0533 26.0568 31.3203 25.8409V26.8693C31.3203 27.8409 30.5362 28.6648 29.2976 28.6648Z" fill="black"/>
<defs>
<linearGradient id="paint0_linear" x1="24" y1="0" x2="24" y2="48" gradientUnits="userSpaceOnUse">
<stop stop-color="#E5EEEF"/>
<stop offset="1" stop-color="#DAE5E8"/>
</linearGradient>
</defs>
</svg>
