<svg width="18" height="12" viewBox="0 0 18 12" fill="none" xmlns="http://www.w3.org/2000/svg">
<path d="M2.22683 11L3.06703 8.48935H6.89515L7.74032 11H9.70907L6.11958 0.818182H3.8426L0.258079 11H2.22683ZM3.56419 7.00781L4.94132 2.90625H5.02086L6.39799 7.00781H3.56419ZM13.1681 11.1541C14.3662 11.1541 15.0821 10.5923 15.4102 9.95099H15.4699V11H17.2V5.8892C17.2 3.87074 15.5544 3.2642 14.0977 3.2642C12.4919 3.2642 11.259 3.98011 10.8612 5.37216L12.5416 5.6108C12.7206 5.08878 13.2277 4.64134 14.1077 4.64134C14.9429 4.64134 15.4003 5.06889 15.4003 5.8196V5.84943C15.4003 6.36648 14.8584 6.39134 13.5111 6.53551C12.0296 6.6946 10.6127 7.13707 10.6127 8.85724C10.6127 10.3587 11.7114 11.1541 13.1681 11.1541ZM13.6354 9.83168C12.8847 9.83168 12.3477 9.48864 12.3477 8.82741C12.3477 8.13636 12.9493 7.84801 13.7547 7.73366C14.227 7.66903 15.1716 7.54972 15.4053 7.3608V8.26065C15.4053 9.1108 14.7192 9.83168 13.6354 9.83168Z" fill="black"/>
</svg>
