<svg width="48" height="48" viewBox="0 0 48 48" fill="none" xmlns="http://www.w3.org/2000/svg">
<circle cx="24" cy="24" r="24" fill="url(#paint0_linear)"/>
<path d="M17.2268 29L18.067 26.4893H21.8952L22.7403 29H24.7091L21.1196 18.8182H18.8426L15.2581 29H17.2268ZM18.5642 25.0078L19.9413 20.9062H20.0209L21.398 25.0078H18.5642ZM28.1681 29.1541C29.3662 29.1541 30.0821 28.5923 30.4102 27.951H30.4699V29H32.2V23.8892C32.2 21.8707 30.5544 21.2642 29.0977 21.2642C27.4919 21.2642 26.259 21.9801 25.8612 23.3722L27.5416 23.6108C27.7206 23.0888 28.2277 22.6413 29.1077 22.6413C29.9429 22.6413 30.4003 23.0689 30.4003 23.8196V23.8494C30.4003 24.3665 29.8584 24.3913 28.5111 24.5355C27.0296 24.6946 25.6127 25.1371 25.6127 26.8572C25.6127 28.3587 26.7114 29.1541 28.1681 29.1541ZM28.6354 27.8317C27.8847 27.8317 27.3477 27.4886 27.3477 26.8274C27.3477 26.1364 27.9493 25.848 28.7547 25.7337C29.227 25.669 30.1716 25.5497 30.4053 25.3608V26.2607C30.4053 27.1108 29.7192 27.8317 28.6354 27.8317Z" fill="black"/>
<defs>
<linearGradient id="paint0_linear" x1="24" y1="0" x2="24" y2="48" gradientUnits="userSpaceOnUse">
<stop stop-color="#E5EEEF"/>
<stop offset="1" stop-color="#DAE5E8"/>
</linearGradient>
</defs>
</svg>
