<svg width="20" height="13" viewBox="0 0 20 13" fill="none" xmlns="http://www.w3.org/2000/svg">
<path d="M2.25923 12L3.21946 9.13068H7.59446L8.56037 12H10.8104L6.7081 0.363636H4.10582L0.00923297 12H2.25923ZM3.78764 7.4375L5.36151 2.75H5.45241L7.02628 7.4375H3.78764ZM14.7635 12.1761C16.1328 12.1761 16.951 11.5341 17.326 10.8011H17.3942V12H19.3714V6.15909C19.3714 3.85227 17.4908 3.15909 15.826 3.15909C13.9908 3.15909 12.5817 3.97727 12.1271 5.56818L14.0476 5.84091C14.2521 5.24432 14.8317 4.73295 15.8374 4.73295C16.7919 4.73295 17.3146 5.22159 17.3146 6.07955V6.11364C17.3146 6.70455 16.6953 6.73295 15.1555 6.89773C13.4624 7.07955 11.843 7.58523 11.843 9.55114C11.843 11.267 13.0987 12.1761 14.7635 12.1761ZM15.2976 10.6648C14.4396 10.6648 13.826 10.2727 13.826 9.51705C13.826 8.72727 14.5135 8.39773 15.4339 8.26705C15.9737 8.19318 17.0533 8.05682 17.3203 7.84091V8.86932C17.3203 9.84091 16.5362 10.6648 15.2976 10.6648Z" fill="black"/>
</svg>
