<svg width="32" height="32" viewBox="0 0 32 32" fill="none" xmlns="http://www.w3.org/2000/svg">
<path d="M16 6.1333C22.9329 6.1333 29.8666 11.783 29.8666 16C29.8666 20.2169 22.9329 25.8666 16 25.8666C9.06701 25.8666 2.1333 20.2169 2.1333 16C2.1333 11.783 9.06701 6.1333 16 6.1333ZM16 8.5333C10.2966 8.5333 4.5333 13.2293 4.5333 16C4.5333 18.7706 10.2966 23.4666 16 23.4666C21.7034 23.4666 27.4666 18.7706 27.4666 16C27.4666 13.2293 21.7034 8.5333 16 8.5333ZM16 11.4666C18.5037 11.4666 20.5333 13.4963 20.5333 16C20.5333 18.5037 18.5037 20.5333 16 20.5333C13.4963 20.5333 11.4666 18.5037 11.4666 16C11.4666 13.4963 13.4963 11.4666 16 11.4666ZM16 13.8666C14.8218 13.8666 13.8666 14.8218 13.8666 16C13.8666 17.1782 14.8218 18.1333 16 18.1333C17.1782 18.1333 18.1333 17.1782 18.1333 16C18.1333 14.8218 17.1782 13.8666 16 13.8666Z" fill="#3D4B53"/>
</svg>
