<svg width="48" height="48" viewBox="0 0 48 48" fill="none" xmlns="http://www.w3.org/2000/svg">
<circle opacity="0.6" cx="24" cy="24" r="24" fill="white"/>
<path fill-rule="evenodd" clip-rule="evenodd" d="M26.1214 24.0004L34.0609 16.0609C34.6474 15.4744 34.6474 14.5264 34.0609 13.9399C33.4744 13.3534 32.5264 13.3534 31.9399 13.9399L24.0004 21.8794L16.0609 13.9399C15.4744 13.3534 14.5264 13.3534 13.9399 13.9399C13.3534 14.5264 13.3534 15.4744 13.9399 16.0609L21.8794 24.0004L13.9399 31.9399C13.3534 32.5264 13.3534 33.4744 13.9399 34.0609C14.2324 34.3534 14.6164 34.5004 15.0004 34.5004C15.3844 34.5004 15.7684 34.3534 16.0609 34.0609L24.0004 26.1214L31.9399 34.0609C32.2324 34.3534 32.6164 34.5004 33.0004 34.5004C33.3844 34.5004 33.7684 34.3534 34.0609 34.0609C34.6474 33.4744 34.6474 32.5264 34.0609 31.9399L26.1214 24.0004Z" fill="#3D4B53"/>
</svg>
